<svg width="98" height="98" viewBox="0 0 98 98" fill="none" xmlns="http://www.w3.org/2000/svg">
<path d="M22.9733 94.2308H75.0257C81.6219 94.2308 87.0125 88.8785 87.0125 82.2824V15.7553C87.0125 9.15918 81.6219 3.76921 75.0257 3.76921H37.522C34.3188 3.76921 31.3032 5.05085 29.0413 7.3123L14.4926 21.8615C12.2307 24.1231 10.9874 27.1008 10.9874 30.3045V82.2824C10.9874 88.8785 16.3772 94.2308 22.9733 94.2308ZM68.1627 79.1725H57.8746C55.7912 79.1725 54.1054 77.4848 54.1054 75.4032C54.1054 73.3217 55.7912 71.634 57.8746 71.634H68.1627C70.2461 71.634 71.9319 73.3217 71.9319 75.4032C71.9319 77.4848 70.2461 79.1725 68.1627 79.1725ZM39.1462 22.4647H58.8574C60.9408 22.4647 62.6266 24.1524 62.6266 26.2339C62.6266 28.3155 60.9408 30.0031 58.8574 30.0031H39.1462C37.0629 30.0031 35.377 28.3155 35.377 26.2339C35.377 24.1524 37.0629 22.4647 39.1462 22.4647ZM29.841 38.0404H68.1627C70.2461 38.0404 71.9319 39.7281 71.9319 41.8096C71.9319 43.8911 70.2461 45.5788 68.1627 45.5788H29.841C27.7576 45.5788 26.0717 43.8911 26.0717 41.8096C26.0717 39.7281 27.7576 38.0404 29.841 38.0404ZM29.841 53.616H50.5717C52.6551 53.616 54.341 55.3037 54.341 57.3853C54.341 59.4668 52.6551 61.1545 50.5717 61.1545H29.841C27.7576 61.1545 26.0717 59.4668 26.0717 57.3853C26.0717 55.3037 27.7576 53.616 29.841 53.616Z" fill="url(#paint0_linear_18291_2322)"/>
<defs>
<linearGradient id="paint0_linear_18291_2322" x1="49" y1="3.76921" x2="49" y2="94.2308" gradientUnits="userSpaceOnUse">
<stop stop-color="#439FFF"/>
<stop offset="1" stop-color="#0078FF"/>
</linearGradient>
</defs>
</svg>
