<svg width="86" height="86" viewBox="0 0 86 86" fill="none" xmlns="http://www.w3.org/2000/svg">
<g clip-path="url(#clip0_18291_134)">
<path d="M85.9998 56.2517C86.0037 56.7376 85.8826 57.2236 85.6348 57.6623C85.1091 58.5984 74.1512 78.0598 73.6236 78.9958C73.3721 79.4421 73.011 79.8033 72.5835 80.0529C72.156 80.3025 71.6645 80.4406 71.1521 80.4406H14.8478C14.3353 80.4406 13.8437 80.3025 13.4163 80.0529C12.989 79.8033 12.6279 79.4421 12.3763 78.9958C11.8487 78.0598 0.890744 58.5984 0.365002 57.6623C0.117248 57.2236 -0.00368944 56.7376 5.87232e-06 56.2517H85.9998Z" fill="#167EE6"/>
<path d="M85.9998 56.2517H43V80.4406H71.1522C71.6647 80.4406 72.1564 80.3025 72.5837 80.0529C73.011 79.8033 73.3721 79.4421 73.6237 78.9958C74.1513 78.0598 85.1093 58.5984 85.635 57.6623C85.8826 57.2236 86.0037 56.7376 85.9998 56.2517Z" fill="#3D55CC"/>
<path d="M29.1923 5.93771C28.7687 6.1816 28.4094 6.53518 28.1561 6.97206C26.9346 9.07654 1.5999 52.7477 0.382127 54.8467C0.130678 55.2816 0.00201352 55.7656 0.00016586 56.2516C-0.00369742 56.7375 0.117408 57.2234 0.365162 57.6622C0.890904 58.5983 11.8488 78.0596 12.3764 78.9957C12.6279 79.442 12.989 79.8031 13.4165 80.0527L43.0705 29.4014L29.3048 5.87775C29.2672 5.89723 29.2292 5.91655 29.1923 5.93771Z" fill="#12B347"/>
<path d="M85.9998 56.2517C85.998 55.7658 85.8693 55.2817 85.6179 54.8469C84.3964 52.7441 59.0635 9.07302 57.8437 6.97207C57.5903 6.53518 57.2311 6.1816 56.8075 5.93771C56.3839 5.69382 55.8961 5.55945 55.3912 5.55945H30.6086C30.1037 5.55945 29.6159 5.69366 29.1923 5.93771L58.6491 56.2517H85.9998Z" fill="#FFD500"/>
<path d="M85.9998 56.2517H58.6493L43 29.5214V5.55945H55.3912C55.8961 5.55945 56.3839 5.69366 56.8075 5.93771C57.2312 6.1816 57.5904 6.53518 57.8437 6.97207C59.0634 9.07285 84.3962 52.7441 85.6179 54.8469C85.8695 55.2817 85.998 55.7656 85.9998 56.2517Z" fill="#FFAA00"/>
</g>
<defs>
<clipPath id="clip0_18291_134">
<rect width="86" height="86" fill="white"/>
</clipPath>
</defs>
</svg>
