<svg width="86" height="86" viewBox="0 0 86 86" fill="none" xmlns="http://www.w3.org/2000/svg">
<g clip-path="url(#clip0_18291_3990)">
<path d="M24.0334 40.4666L35.8333 52.2665L58.3832 29.7166C59.0552 29.0448 59.9665 28.6674 60.9167 28.6674C61.8668 28.6674 62.7781 29.0448 63.4501 29.7166L86 52.2665V17.9167C86 15.0656 84.8674 12.3313 82.8514 10.3153C80.8354 8.29926 78.1011 7.16667 75.25 7.16667H10.75C7.89892 7.16667 5.16462 8.29926 3.1486 10.3153C1.13259 12.3313 0 15.0656 0 17.9167L0 59.4332L18.9666 40.4666C19.6386 39.7948 20.5498 39.4174 21.5 39.4174C22.4502 39.4174 23.3614 39.7948 24.0334 40.4666ZM32.25 21.5C32.9587 21.5 33.6515 21.7102 34.2408 22.1039C34.8301 22.4976 35.2894 23.0573 35.5606 23.7121C35.8318 24.3668 35.9027 25.0873 35.7645 25.7824C35.6262 26.4775 35.2849 27.116 34.7838 27.6171C34.2827 28.1183 33.6442 28.4596 32.9491 28.5978C32.254 28.7361 31.5335 28.6651 30.8787 28.3939C30.2239 28.1227 29.6643 27.6634 29.2706 27.0741C28.8768 26.4849 28.6667 25.7921 28.6667 25.0833C28.6667 24.133 29.0442 23.2215 29.7162 22.5495C30.3882 21.8775 31.2996 21.5 32.25 21.5Z" fill="url(#paint0_linear_18291_3990)"/>
<path d="M38.3667 59.8668C37.6948 60.5385 36.7835 60.9159 35.8333 60.9159C34.8831 60.9159 33.9719 60.5385 33.2999 59.8668L21.5 48.0668L0.136154 69.4307C0.45871 72.0208 1.71448 74.4046 3.66827 76.1354C5.62205 77.8663 8.13982 78.8254 10.75 78.8333H75.25C78.1011 78.8333 80.8354 77.7008 82.8514 75.6847C84.8674 73.6687 86 70.9344 86 68.0833V62.4002L60.9167 37.3168L38.3667 59.8668Z" fill="url(#paint1_linear_18291_3990)"/>
</g>
<defs>
<linearGradient id="paint0_linear_18291_3990" x1="43" y1="7.16667" x2="43" y2="59.4332" gradientUnits="userSpaceOnUse">
<stop stop-color="#00F800"/>
<stop offset="1" stop-color="#00D600"/>
</linearGradient>
<linearGradient id="paint1_linear_18291_3990" x1="43.0681" y1="37.3168" x2="43.0681" y2="78.8333" gradientUnits="userSpaceOnUse">
<stop stop-color="#00F800"/>
<stop offset="1" stop-color="#00D600"/>
</linearGradient>
<clipPath id="clip0_18291_3990">
<rect width="86" height="86" fill="white"/>
</clipPath>
</defs>
</svg>
