<svg width="86" height="86" viewBox="0 0 86 86" fill="none" xmlns="http://www.w3.org/2000/svg">
<g clip-path="url(#clip0_18291_2883)">
<path d="M14.2354 9.22836C6.40263 9.22836 0 15.6312 0 23.4637V62.5361C0 70.3688 6.40263 76.7715 14.2354 76.7715H71.7705C79.6032 76.7715 86 70.3688 86 62.5361V23.4639C86 15.6312 79.6032 9.22853 71.7705 9.22853L14.2354 9.22836ZM17.6413 25.5445L38.2388 47.3952C40.7294 49.7703 44.7239 49.8442 47.0774 47.4552L68.4306 25.5086C69.613 24.2931 71.5565 24.2663 72.7719 25.4486C73.9874 26.6309 74.0143 28.5745 72.8319 29.7899C65.7043 37.1132 58.5759 44.4386 51.4488 51.7606C46.6657 56.6157 38.83 56.4449 33.9994 51.8385C27.0614 44.4932 20.1124 37.1142 13.174 29.7538C12.015 28.5196 12.0739 26.5799 13.3058 25.4184C14.6637 24.1479 16.6776 24.5617 17.6413 25.5445Z" fill="url(#paint0_linear_18291_2883)"/>
</g>
<defs>
<linearGradient id="paint0_linear_18291_2883" x1="43" y1="9.22836" x2="43" y2="76.7715" gradientUnits="userSpaceOnUse">
<stop stop-color="#00D9FF"/>
<stop offset="1" stop-color="#00C3F3"/>
</linearGradient>
<clipPath id="clip0_18291_2883">
<rect width="86" height="86" fill="white"/>
</clipPath>
</defs>
</svg>
