<svg width="86" height="86" viewBox="0 0 86 86" fill="none" xmlns="http://www.w3.org/2000/svg">
<g clip-path="url(#clip0_18291_2164)">
<path d="M35.1818 66.4547C33.0249 66.4547 31.2728 64.7005 31.2728 62.5456C31.2728 61.4652 30.3986 60.591 29.3182 60.591C28.2378 60.591 27.3636 61.4652 27.3636 62.5456C27.3636 66.8574 30.8719 70.3637 35.1818 70.3637C39.4918 70.3637 43.0001 66.8574 43.0001 62.5454C43.0001 60.213 41.9732 58.1153 40.347 56.6818C41.9732 55.2483 43.0001 53.1506 43.0001 50.8182C43.0001 46.5064 39.4918 42.9999 35.1818 42.9999C30.8719 42.9999 27.3636 46.5062 27.3636 50.8182C27.3636 51.8985 28.2378 52.7728 29.3182 52.7728C30.3986 52.7728 31.2728 51.8985 31.2728 50.8182C31.2728 48.6633 33.0251 46.9091 35.1818 46.9091C37.3387 46.9091 39.0909 48.6633 39.0909 50.8182C39.0909 52.973 37.3386 54.7272 35.1818 54.7272C34.1015 54.7272 33.2272 55.6014 33.2272 56.6818C33.2272 57.7622 34.1015 58.6364 35.1818 58.6364C37.3387 58.6364 39.0909 60.3906 39.0909 62.5454C39.0909 64.7003 37.3387 66.4547 35.1818 66.4547Z" fill="url(#paint0_linear_18291_2164)"/>
<path d="M48.8674 46.913C48.8674 46.913 48.8674 46.913 48.8712 46.913L50.8182 46.9111V68.4093C50.8182 69.4896 51.6924 70.3639 52.7728 70.3639C53.8531 70.3639 54.7274 69.4896 54.7274 68.4093V44.9547C54.7274 44.4356 54.5212 43.9392 54.1547 43.5727C53.7883 43.2062 53.2921 43.0001 52.7728 43.0001C52.7728 43.0001 52.7728 43.0001 52.7689 43.0001L48.8674 43.0039C47.787 43.0058 46.9128 43.88 46.9128 44.9604C46.913 46.0387 47.7872 46.913 48.8674 46.913Z" fill="url(#paint1_linear_18291_2164)"/>
<path d="M78.1819 7.81825H68.4093C67.3289 7.81825 66.4547 8.69248 66.4547 9.77286V19.5455C66.4547 21.7004 64.7005 23.4546 62.5456 23.4546C60.3907 23.4546 58.6364 21.7004 58.6364 19.5455C58.6364 17.9116 59.6862 16.44 61.2476 15.8846C62.0263 15.6059 62.5454 14.8691 62.5454 14.0427V1.95461C62.5454 0.874232 61.6714 0 60.591 0C59.5106 0 58.6364 0.874232 58.6364 1.95461V7.81825H29.3182C28.2378 7.81825 27.3636 8.69248 27.3636 9.77286V19.5455C27.3636 21.7004 25.6094 23.4546 23.4546 23.4546C21.2997 23.4546 19.5455 21.7004 19.5455 19.5455C19.5455 17.9116 20.5953 16.44 22.1567 15.8846C22.9354 15.6059 23.4546 14.8691 23.4546 14.0427V1.95461C23.4546 0.874232 22.5803 0 21.5 0C20.4196 0 19.5453 0.874232 19.5453 1.95461V7.81825H7.81807C3.50627 7.81825 0 11.3245 0 15.6363V78.1817C0 82.4935 3.50627 86 7.81825 86H63.685C64.7214 86 65.7158 85.5877 66.4488 84.8548L84.8548 66.4545C85.5877 65.7215 86 64.7271 86 63.6907V15.6363C86 11.3245 82.4937 7.81825 78.1819 7.81825ZM78.1819 62.5454H70.3637C66.0519 62.5454 62.5454 66.0517 62.5454 70.3637V78.1819H7.81825V31.2728H78.1819V62.5454Z" fill="url(#paint2_linear_18291_2164)"/>
</g>
<defs>
<linearGradient id="paint0_linear_18291_2164" x1="35.1818" y1="42.9999" x2="35.1818" y2="70.3637" gradientUnits="userSpaceOnUse">
<stop stop-color="#FFE100"/>
<stop offset="1" stop-color="#FFAE00"/>
</linearGradient>
<linearGradient id="paint1_linear_18291_2164" x1="50.8201" y1="43.0001" x2="50.8201" y2="70.3639" gradientUnits="userSpaceOnUse">
<stop stop-color="#FFE100"/>
<stop offset="1" stop-color="#FFAE00"/>
</linearGradient>
<linearGradient id="paint2_linear_18291_2164" x1="43" y1="0" x2="43" y2="86" gradientUnits="userSpaceOnUse">
<stop stop-color="#FFE100"/>
<stop offset="1" stop-color="#FFAE00"/>
</linearGradient>
<clipPath id="clip0_18291_2164">
<rect width="86" height="86" fill="white"/>
</clipPath>
</defs>
</svg>
