<svg width="86" height="86" viewBox="0 0 86 86" fill="none" xmlns="http://www.w3.org/2000/svg">
<path d="M59.6625 9.88998H54.6879V5.80767C54.6879 4.47198 53.6049 3.38892 52.2692 3.38892C50.9335 3.38892 49.8504 4.47198 49.8504 5.80767V9.88998H38.9795V5.80767C38.9795 4.47198 37.8964 3.38892 36.5608 3.38892C35.2251 3.38892 34.142 4.47198 34.142 5.80767V9.88998H23.263V5.80767C23.263 4.47198 22.1799 3.38892 20.8442 3.38892C19.5086 3.38892 18.4255 4.47198 18.4255 5.80767V9.88998H13.4375C8.98431 9.88998 5.375 13.4993 5.375 17.9525V72.1325C5.375 76.5857 8.98431 80.195 13.4375 80.195H39.5949C39.216 79.0179 39.1246 77.7601 39.431 76.5185L40.8473 70.5576C41.2908 68.7865 42.1642 67.2332 43.3897 66.0023L62.3796 47.0393L67.6283 41.7664C67.6578 41.7369 67.6954 41.7154 67.725 41.6858V17.9525C67.725 13.4993 64.1157 9.88998 59.6625 9.88998ZM36.5581 54.231H20.8442C19.5086 54.231 18.4255 53.148 18.4255 51.8123C18.4255 50.4766 19.5086 49.3935 20.8442 49.3935H36.5581C37.8937 49.3935 38.9768 50.4766 38.9768 51.8123C38.9768 53.148 37.8937 54.231 36.5581 54.231ZM52.2665 42.871H20.8442C19.5086 42.871 18.4255 41.7879 18.4255 40.4522C18.4255 39.1165 19.5086 38.0335 20.8442 38.0335H52.2665C53.6022 38.0335 54.6852 39.1165 54.6852 40.4522C54.6852 41.7879 53.6022 42.871 52.2665 42.871ZM52.2665 31.5082H20.8442C19.5086 31.5082 18.4255 30.4252 18.4255 29.0895C18.4255 27.7538 19.5086 26.6707 20.8442 26.6707H52.2665C53.6022 26.6707 54.6852 27.7538 54.6852 29.0895C54.6852 30.4252 53.6022 31.5082 52.2665 31.5082Z" fill="url(#paint0_linear_18291_111)"/>
<path d="M64.2663 51.9924L46.8164 69.4181C46.1983 70.0362 45.7683 70.8156 45.5533 71.6756L44.1289 77.6687C43.7795 79.0931 45.0695 80.3831 46.5208 80.0337L52.5139 78.6094C53.347 78.4212 54.1264 77.9912 54.7445 77.3731L72.1945 59.9232L64.2663 51.9924Z" fill="url(#paint1_linear_18291_111)"/>
<path d="M78.9855 45.1769C76.7818 43 73.2343 43 71.0574 45.1769L67.6819 48.5685L75.6154 56.502L78.9855 53.1319C81.1624 50.9282 81.1624 47.3807 78.9855 45.1769Z" fill="url(#paint2_linear_18291_111)"/>
<defs>
<linearGradient id="paint0_linear_18291_111" x1="36.55" y1="3.38892" x2="36.55" y2="80.195" gradientUnits="userSpaceOnUse">
<stop stop-color="#FF9475"/>
<stop offset="1" stop-color="#FF581D"/>
</linearGradient>
<linearGradient id="paint1_linear_18291_111" x1="58.1328" y1="51.9924" x2="58.1328" y2="80.0916" gradientUnits="userSpaceOnUse">
<stop stop-color="#FF9475"/>
<stop offset="1" stop-color="#FF581D"/>
</linearGradient>
<linearGradient id="paint2_linear_18291_111" x1="74.15" y1="43.5443" x2="74.15" y2="56.502" gradientUnits="userSpaceOnUse">
<stop stop-color="#FF9475"/>
<stop offset="1" stop-color="#FF581D"/>
</linearGradient>
</defs>
</svg>
