<svg width="86" height="86" viewBox="0 0 86 86" fill="none" xmlns="http://www.w3.org/2000/svg">
<path d="M71.6667 78.8334H21.5C18.6489 78.8334 15.9146 77.7007 13.8986 75.6847C11.8826 73.6687 10.75 70.9343 10.75 68.0834V17.9167C10.75 15.0656 11.8826 12.3313 13.8986 10.3153C15.9146 8.29927 18.6489 7.16669 21.5 7.16669H71.6667C72.617 7.16669 73.5286 7.54423 74.2004 8.21621C74.8723 8.88823 75.25 9.79965 75.25 10.75V75.25C75.25 76.2003 74.8723 77.1119 74.2004 77.7838C73.5286 78.4557 72.617 78.8334 71.6667 78.8334ZM68.0833 71.6667V64.5H21.5C20.5496 64.5 19.6382 64.8777 18.9662 65.5496C18.2942 66.2215 17.9167 67.1331 17.9167 68.0834C17.9167 69.0337 18.2942 69.9453 18.9662 70.6171C19.6382 71.289 20.5496 71.6667 21.5 71.6667H68.0833ZM43 35.8334C44.9006 35.8334 46.7234 35.0783 48.0675 33.7343C49.4117 32.3903 50.1667 30.5674 50.1667 28.6667C50.1667 26.766 49.4117 24.9431 48.0675 23.5991C46.7234 22.2551 44.9006 21.5 43 21.5C41.0994 21.5 39.2766 22.2551 37.9324 23.5991C36.5883 24.9431 35.8333 26.766 35.8333 28.6667C35.8333 30.5674 36.5883 32.3903 37.9324 33.7343C39.2766 35.0783 41.0994 35.8334 43 35.8334ZM32.25 50.1667H53.75C53.75 47.3158 52.6173 44.5813 50.6013 42.5654C48.5853 40.5494 45.8509 39.4167 43 39.4167C40.1491 39.4167 37.4147 40.5494 35.3986 42.5654C33.3826 44.5813 32.25 47.3158 32.25 50.1667Z" fill="url(#paint0_linear_18291_2920)"/>
<defs>
<linearGradient id="paint0_linear_18291_2920" x1="43" y1="7.16669" x2="43" y2="78.8334" gradientUnits="userSpaceOnUse">
<stop stop-color="#FFB136"/>
<stop offset="1" stop-color="#FF9A00"/>
</linearGradient>
</defs>
</svg>
