<svg width="181" height="230" viewBox="0 0 181 230" fill="none" xmlns="http://www.w3.org/2000/svg">
<g clip-path="url(#clip0_11_7147)">
<rect width="181" height="229.111" fill="#FDE9D8"/>
<g clip-path="url(#clip1_11_7147)">
<path d="M170.02 7.93071H10.7913V231.294H170.02V7.93071Z" fill="#FDE9D8"/>
<mask id="mask0_11_7147" style="mask-type:luminance" maskUnits="userSpaceOnUse" x="10" y="7" width="161" height="225">
<path d="M170.02 7.93071H10.7913V231.294H170.02V7.93071Z" fill="white"/>
</mask>
<g mask="url(#mask0_11_7147)">
<path d="M29.6674 224.403C27.7791 223.599 25.4212 223.548 24.4709 221.453C30.3537 204.553 35.2958 187.136 41.4761 170.434C41.513 170.395 41.5286 170.343 41.518 170.293C41.5916 170.24 41.668 170.189 41.7447 170.137C41.7473 170.135 41.7497 170.134 41.7528 170.132C41.7765 170.117 41.8004 170.102 41.8248 170.086C42.0519 169.946 43.5394 170.608 43.8343 170.697C44.6267 170.937 45.4194 171.176 46.2123 171.414C47.7383 171.872 49.2648 172.328 50.7911 172.785C53.8455 173.699 56.8986 174.618 59.9415 175.57C66.0206 177.472 72.0638 179.505 77.9741 181.886C78.8953 182.257 80.2931 182.335 81.0272 183.056C81.8261 183.841 80.6764 185.775 80.3412 186.767C79.3179 189.793 78.267 192.81 77.2057 195.824C75.0818 201.855 72.9158 207.871 70.8421 213.92C69.6884 217.285 68.7905 220.82 67.4691 224.118C66.1847 227.324 65.6706 231.233 63.814 234.036C62.5309 235.404 60.1755 234.225 58.63 233.826C48.9951 230.628 39.3005 227.608 29.6674 224.403Z" fill="#FFC0CB"/>
<path d="M36.418 203.923C35.9002 202.83 34.2837 197.814 36.3959 197.871C37.1417 198.036 37.4689 198.831 37.7414 199.465C39.548 198.141 41.3757 199.021 40.168 201.248C39.8513 201.904 37.958 204.606 37.214 204.364C36.885 204.528 36.4596 204.287 36.418 203.923Z" fill="#EA8A68"/>
<path d="M46.7417 184.796C46.659 184.702 46.6135 184.586 46.6044 184.467C44.5242 182.927 46.2625 175.065 47.9908 180.495C50.543 178.277 52.0578 179.777 49.8325 182.326C49.1837 182.884 47.6062 185.62 46.7417 184.796Z" fill="#EA8A68"/>
<path d="M52.5677 203.742C48.2063 198.092 51.6078 193.94 53.951 199.018C55.5368 197.393 58.5176 197.041 56.8751 200.095C56.1414 200.982 53.7913 205.383 52.5677 203.742Z" fill="#EA8A68"/>
<path d="M66.6089 191.97C63.9514 188.585 65.5937 184.103 67.832 188.218C68.7937 187.661 71.6894 186.272 70.8884 188.61C70.0276 189.793 68.9328 191.043 67.7214 191.826C67.607 192.402 66.8721 192.407 66.6089 191.97Z" fill="#EA8A68"/>
<path d="M65.1029 212.873C64.001 211.424 63.0916 208.398 63.4853 206.61C64.5185 205.176 65.8667 207.814 66.2177 208.666C68.1557 206.951 70.3901 207.236 68.5138 210.029C67.8967 210.686 66.0378 213.893 65.1029 212.873Z" fill="#EA8A68"/>
<path d="M56.2145 226.653C54.5439 225.311 53.6932 221.139 54.4755 219.227C55.9685 218.32 56.7809 220.895 57.0332 221.964C61.5127 218.892 60.6139 222.906 58.1727 225.195C57.5957 225.67 57.0584 226.893 56.2145 226.653Z" fill="#EA8A68"/>
<path d="M38.5241 219.237C37.4212 217.062 36.6642 213.824 38.1239 211.699C39.6995 210.985 40.1255 213.552 40.1359 214.628C41.2235 213.49 43.9242 212.075 43.1877 214.919C42.3498 216.624 41.068 217.999 39.5937 219.144C39.4743 219.665 38.7282 219.703 38.5241 219.237Z" fill="#EA8A68"/>
<path d="M57.8381 189.34C59.3305 185.359 59.5576 177.906 54.4836 175.705C48.1442 175.805 51.6162 190.2 54.7702 193.079C53.6142 193.825 52.394 194.5 51.068 194.979C50.4405 195.376 48.6601 195.297 48.9901 196.305C49.8286 197.223 53.8979 194.889 55.3704 193.987C55.7066 195.757 58.0729 198.581 59.0835 199.778C59.5391 200.28 60.4106 199.686 59.9045 199.117C59.1321 198.262 58.4536 197.378 57.7988 196.41C57.2633 195.54 56.75 194.654 56.3893 193.715C56.3882 193.703 56.3828 193.692 56.381 193.681C75.1933 191.128 72.5607 174.292 57.8381 189.34ZM55.4195 192.27C52.7932 188.956 50.2343 179.526 53.8111 176.741C55.6323 176.5 56.6704 179.328 57.0985 180.476C58.554 184.528 57.0745 188.642 55.4195 192.27ZM56.5383 192.689C58.7478 189.683 61.5077 186.925 64.9072 185.026C70.8508 182.272 68.4263 187.475 65.5152 189.287C62.8561 190.982 59.7256 192.027 56.5383 192.689Z" fill="#206183"/>
<path d="M44.3046 228.422C49.2592 210.571 56.7229 193.554 61.8671 175.783C62.0005 174.778 63.4196 175.268 62.9281 176.181C58.0936 193.21 50.8066 209.443 46.0954 226.529C45.66 227.304 45.7669 229.264 44.6591 229.155C44.3579 229.055 44.2154 228.728 44.3046 228.422Z" fill="#206183"/>
<path d="M72.5969 198.995C60.4005 194.992 48.1367 191.164 36.0164 186.942C35.3281 186.717 35.6178 185.654 36.3496 185.859C49.0786 190.23 61.8989 194.398 74.74 198.434C75.2269 198.57 76.0679 198.543 75.9831 199.253C75.5764 200.38 73.4546 199.087 72.5969 198.995Z" fill="#206183"/>
<path d="M84.8131 77.7663C62.7493 71.1229 65.1234 36.2707 85.7119 28.3411C89.8775 26.7368 93.4369 26.2694 97.5572 27.1531C103.91 28.5153 108.632 34.0839 111.033 39.483C116.059 52.3639 109.488 67.7959 99.1389 76.0957C99.1594 76.137 99.1706 76.181 99.1792 76.2262C94.7822 79.0861 89.5779 79.7302 84.8131 77.7663Z" fill="#EA8A68"/>
<path d="M107.687 52.2125C108.792 52.0908 108.641 50.5646 108.305 49.8034C107.878 50.4483 107.144 51.4719 107.687 52.2125ZM98.1592 52.4931C98.6497 55.1733 101.791 51.9249 100.147 48.6971C99.8389 48.9119 99.5742 49.153 99.3224 49.4109C99.3396 49.3956 99.3544 49.3784 99.3721 49.3628C98.5932 50.1885 97.9616 51.3265 98.1592 52.4931ZM87.9912 50.0827C88.0375 50.4639 88.1665 50.7435 88.5717 50.8277C89.9177 50.8756 89.6116 48.0688 89.3102 47.2436C88.5818 47.9876 87.8615 48.9902 87.9912 50.0827ZM78.5914 47.4459C78.7956 50.2114 82.297 47.5133 81.0747 44.2959C79.7955 44.7978 78.5012 45.968 78.5914 47.4459ZM77.7187 48.6152C76.8087 46.3659 78.555 44.0413 80.6485 43.2788C79.2728 41.1375 75.9032 40.1623 73.7788 41.7262C73.4436 42.2809 72.5828 41.8953 72.781 41.2717C75.0942 38.5676 80.1429 39.9953 81.7056 42.9131C84.5496 41.9842 88.3662 42.5108 89.7716 45.4651C93.1388 43.2647 98.3381 43.5245 100.61 47.1552C103.09 46.071 106.64 45.838 108.565 48.0599C109.33 47.6529 111.987 46.1748 112.464 47.3011C112.524 47.5825 112.337 47.9099 112.039 47.9559C111.025 48.1231 110.016 48.4394 109.146 48.9956C111.723 55.0716 103.178 54.3476 107.719 48.7707C106.138 46.9755 103.124 47.2909 101.114 48.1354C102.24 50.434 101.874 54.2407 98.8114 54.6064C95.4367 53.7432 97.3931 48.8989 99.6434 47.7031C97.6477 44.5843 93.0639 44.5299 90.2288 46.4915C92.9456 55.1085 82.6125 52.1774 88.878 46.1371C87.7772 43.5794 84.5155 43.1828 82.1259 43.9435C82.5193 45.4653 82.6299 47.3068 81.5023 48.5496C80.5515 49.7389 78.4315 50.2748 77.7187 48.6152Z" fill="#206183"/>
<path d="M103.278 37.0501C103.263 37.1734 103.249 37.3076 103.294 37.4249C103.989 37.2709 103.916 36.9245 103.692 36.362C103.517 36.5628 103.382 36.8114 103.278 37.0501ZM84.0667 34.9653C84.8498 34.835 85.5085 34.0787 85.4864 33.2733C84.9756 33.5113 83.8285 34.3383 84.0667 34.9653ZM94.1723 38.6927C94.8765 38.5535 94.8576 37.2363 94.7803 36.666C94.3931 37.0543 93.5729 38.2599 94.1723 38.6927ZM93.7864 39.7277C91.9501 38.8849 93.2116 36.386 94.4116 35.507C93.0143 32.7329 89.3537 31.745 86.5555 32.8338C86.8345 34.3388 85.6728 35.8664 84.171 36.0703C81.5582 35.7413 83.575 32.6765 85.1249 32.2136C84.5512 31.4202 83.6132 31.098 82.6962 31.254C81.086 29.6926 85.0685 29.6291 86.1711 31.7954C89.4533 30.5269 93.6488 31.7117 95.3491 34.8997C97.9104 33.7518 101.308 33.0213 103.741 34.8124C104.46 34.214 108.419 33.1105 108.445 34.6056C108.388 34.9101 108.099 35.0906 107.801 35.0474C106.702 34.9216 105.511 35.094 104.528 35.612C106.644 39.4731 99.8964 39.3821 102.915 35.5722C100.812 34.2361 97.8823 34.9517 95.7636 35.9329C96.2148 37.3471 95.8075 40.2179 93.7864 39.7277Z" fill="#206183"/>
<path d="M100.271 65.3093C101.039 65.302 100.958 64.4009 100.88 63.8569C100.595 64.1838 99.9859 64.8672 100.271 65.3093ZM89.0153 64.448L89 64.4256C90.1151 64.436 90.6134 63.2673 90.1835 62.3225C89.6481 62.5901 88.3306 63.8837 89.0153 64.448ZM87.9652 64.9384C87.1765 63.5825 88.4739 62.0266 89.6343 61.3736C86.1253 57.5237 81.3065 61.2097 81.7277 59.2232C84.0352 57.4566 88.9332 58.5012 90.6503 60.8792C93.5099 59.7628 99.3105 59.342 101.315 62.1259C102.409 61.0607 109.449 59.4757 109.52 61.5892C109.357 62.0391 108.916 62.0086 108.544 61.8526C106.238 61.4443 103.796 61.8539 101.821 63.1123C103.32 68.2703 96.2163 66.6585 100.42 62.7719C98.7469 60.5209 93.5375 60.9721 91.1899 61.8547C92.3542 63.7721 89.6972 66.8603 87.9652 64.9384Z" fill="#206183"/>
<path d="M62.0991 103.937C59.5833 102.666 61.9772 99.9596 63.3308 98.6429C49.7737 95.089 42.9813 77.5359 47.1619 64.9064C50.0876 56.0684 59.2263 49.4281 68.6669 50.0468C79.0133 50.725 87.2677 62.5805 87.2826 72.3537C87.2878 75.7948 86.6348 79.2252 85.5659 82.4884C83.1464 89.8746 77.2433 99.7026 68.257 99.3191C67.596 99.3308 66.9333 99.297 66.2723 99.2234C68.6671 103.687 66.6639 105.906 62.0991 103.937Z" fill="#EAA04E"/>
<path d="M96.1137 86.7887C94.0335 74.3512 105.215 58.1135 118.498 61.2833C127.632 62.4655 133.791 72.4993 131.014 81.6326C128.866 90.2376 120.055 101.833 110.778 101.481C102.738 101.449 97.1763 94.5218 96.1137 86.7887Z" fill="#FFC0CB"/>
<path d="M110.227 91.8455C110.347 90.9647 110.415 90.0834 110.428 89.207C110.488 85.6338 109.643 82.1282 107.514 78.9672C102.774 72.9854 95.1719 70.0722 87.6485 71.4219C84.6557 71.9748 81.979 73.1947 79.6398 74.8911C78.6762 75.5901 77.7681 76.3682 76.9201 77.217C74.3335 79.8007 72.2866 83.0161 70.8204 86.4982C70.4777 87.3096 70.1661 88.1387 69.8868 88.9758C68.7327 92.4356 68.1273 96.0629 68.1049 99.523C68.1023 99.6639 68.102 99.8056 68.1039 99.9479C68.0162 100.774 67.9915 101.593 68.0232 102.396C68.2916 109.353 72.8322 115.352 79.3579 118.121C75.1319 121.361 76.0504 121.928 80.3453 123.958C83.0228 124.772 81.1587 120.06 80.9556 118.798C82.0281 119.188 83.1352 119.698 84.2771 119.611C88.5522 119.285 93.2569 117.386 97.0805 114.505C97.7046 114.038 98.303 113.543 98.8718 113.025C99.7638 112.219 100.582 111.355 101.309 110.443C102.661 108.836 103.977 107.036 105.17 105.102C105.772 104.125 106.343 103.115 106.87 102.079C108.528 98.8343 109.764 95.3386 110.227 91.8455Z" fill="#206183"/>
<path d="M106.871 102.079C106.344 103.115 105.773 104.125 105.171 105.102C104.234 102.989 104.429 100.462 104.078 98.2284C102.312 98.5433 92.8024 103.57 92.2241 101.673C91.452 98.5566 91.027 95.3808 90.2666 92.2705C88.7557 92.756 80.6723 96.5141 79.8152 95.3472C78.5396 92.7474 78.5869 89.4374 77.7992 86.6132C75.326 87.4495 72.7874 88.1829 70.2841 88.928C70.1278 88.9646 69.9954 88.9789 69.8872 88.9756C70.1665 88.1384 70.4781 87.3094 70.8208 86.498C70.8619 86.5071 70.9004 86.5172 70.9373 86.5318C82.9366 82.5495 79.5733 82.1779 81.4208 93.2964C94.8733 88.9048 91.5552 84.2604 94.2177 99.6647C97.9425 98.536 101.253 96.4613 104.578 94.6219C105.824 94.0605 105.949 95.6843 106.11 96.4488C106.561 98.309 106.863 100.192 106.871 102.079Z" fill="#EAA04E"/>
<path d="M98.8723 113.025C98.3033 113.544 97.7052 114.038 97.081 114.506C96.6759 113.033 96.4298 111.487 95.8858 110.048C93.447 110.893 90.9502 111.991 88.6666 112.993C88.4903 113.357 87.9483 113.45 87.7109 113.078C86.3643 110.581 85.2032 107.951 84.1216 105.327C83.8446 105.048 83.7474 104.604 83.5617 104.259C81.9925 104.865 76.6652 108.11 75.4651 107.439C73.9934 105.074 72.646 102.585 71.3067 100.136C70.6272 100.532 69.0224 102.088 68.0232 102.397C67.9915 101.594 68.0162 100.774 68.1039 99.9481C68.102 99.8059 68.1026 99.6642 68.1049 99.5232C68.8549 98.851 69.8678 98.1915 70.2556 97.6807C72.8187 94.6825 72.9828 98.2812 74.0433 100.168C74.7538 101.919 75.6484 103.549 76.4309 105.265C88.5483 98.5025 83.3547 99.273 88.374 110.091C91.2027 108.882 94.1788 108.035 97.0405 106.895C98.5176 106.491 98.7441 111.291 98.8723 113.025Z" fill="#EAA04E"/>
<path d="M103.237 85.2853C103.24 85.2837 103.244 85.2822 103.247 85.2814C103.245 85.2817 103.242 85.2827 103.24 85.283C103.239 85.2835 103.238 85.2848 103.237 85.2853Z" fill="#EAA04E"/>
<path d="M110.448 90.1198L110.447 90.1187L110.446 90.1185L110.448 90.1198Z" fill="#EAA04E"/>
<path d="M110.227 91.8455C110.221 91.8364 110.214 91.8294 110.208 91.8206C110.208 91.8206 110.208 91.8206 110.205 91.8198C110.2 91.8086 110.191 91.799 110.183 91.7891C110.182 91.7862 110.178 91.7829 110.177 91.78L110.176 91.7821C110.177 91.78 110.175 91.7792 110.175 91.7792C110.175 91.7792 110.173 91.7764 110.172 91.7735C110.169 91.7701 110.165 91.7665 110.162 91.761L110.161 91.7631C110.059 91.6294 109.956 91.4976 109.85 91.3675C109.766 91.2513 109.682 91.1397 109.594 91.0269C109.401 90.7658 109.21 90.5023 109.018 90.2389C109.016 90.2381 109.014 90.2355 109.012 90.2347C108.128 89.331 106.674 86.175 105.709 85.9529C105.652 85.8993 105.61 85.8437 105.572 85.7893C104.805 86.0931 103.987 86.3014 103.22 86.6051C103.207 86.608 103.199 86.6121 103.188 86.6179C103.071 86.6628 102.946 86.7076 102.827 86.7588C102.825 86.758 102.825 86.758 102.822 86.7596C102.764 86.782 102.71 86.8038 102.649 86.8256C102.641 86.8298 102.633 86.8319 102.623 86.8355L102.612 86.8412C102.601 86.8467 102.588 86.8496 102.577 86.8553C102.556 86.8623 102.536 86.8722 102.516 86.8792C101.39 87.2667 100.402 87.8997 99.2986 88.3061C98.4217 86.4891 97.7549 84.6833 97.0286 83.0439C96.8455 82.5929 96.6645 82.1633 96.5254 81.7129C96.2981 81.4656 96.2318 81.1044 96.0888 80.8201C86.8689 84.0651 89.4841 85.3418 86.0563 76.7169C85.3913 76.7385 84.7102 76.7039 84.0601 76.7583C81.7635 76.8652 79.4279 76.7872 77.1701 77.1278C77.0955 77.1775 77.0091 77.2069 76.9199 77.217C77.768 76.3682 78.6761 75.5904 79.6396 74.8911C82.4615 74.405 86.7953 74.1959 87.3971 74.3229C87.5206 74.3499 87.6462 74.3775 87.7253 74.4758C87.7534 74.5036 87.7763 74.5322 87.7986 74.5629C87.9601 74.7699 87.9776 75.0195 88.0631 75.2523C88.0532 75.2539 88.0441 75.2531 88.0345 75.2544C88.2535 75.8429 88.2886 76.5796 88.5089 77.1078C88.8441 78.483 89.385 79.8402 89.7982 81.2391C100.591 76.6831 95.8513 77.2321 100.192 86.1193C102.068 85.2528 103.998 84.6599 105.864 83.9294C105.884 83.8776 105.91 83.8282 105.945 83.784C106.398 83.6295 106.869 83.5273 107.149 84.0222C108.339 85.7012 109.333 87.4802 110.428 89.207C110.415 90.0834 110.346 90.9647 110.227 91.8455Z" fill="#EAA04E"/>
<path d="M110.438 90.1076C110.437 90.1065 110.437 90.1065 110.437 90.1055C110.432 90.0992 110.427 90.0922 110.422 90.086C110.427 90.093 110.432 90.1003 110.438 90.1076Z" fill="#EAA04E"/>
<path d="M61.1973 177.012C62.0963 152.982 62.1166 128.917 63.4351 104.927C63.7531 104.412 64.5138 104.581 64.4649 105.243C63.8413 115.006 63.9523 124.773 63.4491 134.544C62.9906 148.749 62.8541 162.848 62.3114 177.031C62.2256 177.829 61.1466 177.829 61.1973 177.012Z" fill="#206183"/>
<path d="M61.5392 176.719C66.3055 160.503 70.8456 144.215 75.9955 128.111C76.4719 127.268 76.5005 124.971 77.5951 125.071C78.4296 125.474 77.5262 126.64 77.4113 127.345C72.0785 143.801 67.4789 160.481 62.5864 177.066C62.317 177.821 61.3015 177.52 61.5392 176.719Z" fill="#206183"/>
<path d="M61.9384 176.801C60.7104 176.485 66.1911 168.656 66.6348 167.342C71.6672 157.713 76.6311 148.055 81.7946 138.506C85.4957 131.272 89.3505 124.123 93.0881 116.909C93.369 116.397 93.6235 115.559 94.3096 115.866C94.6133 116.018 94.7374 116.425 94.5785 116.755C88.1189 129.051 81.7808 141.421 75.1119 153.592C71.3088 161.425 67.1955 169.092 62.8169 176.595C62.6294 176.91 62.2096 176.992 61.9384 176.801Z" fill="#206183"/>
</g>
<path d="M90.1829 177.332L87.1873 162.656L92.318 161.609C93.3403 161.4 94.2196 161.405 94.9558 161.623C95.691 161.836 96.2815 162.206 96.7272 162.732C97.172 163.253 97.4676 163.872 97.6138 164.588C97.7426 165.219 97.7366 165.763 97.5959 166.219C97.46 166.675 97.2349 167.059 96.9206 167.372C96.6111 167.684 96.2578 167.941 95.8608 168.141L95.8901 168.284C96.345 168.221 96.8286 168.287 97.341 168.481C97.8533 168.675 98.317 169.008 98.7319 169.481C99.1469 169.953 99.4333 170.577 99.5913 171.351C99.7415 172.086 99.7093 172.782 99.4949 173.438C99.2804 174.094 98.8476 174.667 98.1965 175.159C97.5453 175.65 96.6417 176.013 95.4856 176.249L90.1829 177.332ZM91.6382 175.392L95.1638 174.673C96.3247 174.436 97.1029 174.043 97.4985 173.495C97.8979 172.94 98.0318 172.341 97.9002 171.696C97.7988 171.199 97.5786 170.766 97.2395 170.397C96.8996 170.024 96.4697 169.758 95.9498 169.601C95.429 169.438 94.8485 169.423 94.2083 169.553L90.5968 170.29L91.6382 175.392ZM90.2808 168.743L93.5771 168.07C94.1121 167.961 94.5732 167.757 94.9602 167.459C95.3521 167.16 95.6356 166.794 95.8107 166.36C95.9907 165.925 96.028 165.45 95.9227 164.934C95.7911 164.289 95.4549 163.788 94.9142 163.43C94.3725 163.068 93.6143 162.986 92.6398 163.185L89.2862 163.87L90.2808 168.743ZM103.078 174.7L100.831 163.693L102.522 163.348L104.769 174.354L103.078 174.7ZM101.317 161.683C100.987 161.75 100.68 161.696 100.395 161.52C100.115 161.343 99.943 161.097 99.8786 160.782C99.8143 160.467 99.8762 160.173 100.064 159.901C100.257 159.627 100.519 159.457 100.848 159.39C101.178 159.323 101.483 159.377 101.763 159.554C102.047 159.73 102.222 159.975 102.286 160.291C102.351 160.606 102.286 160.9 102.093 161.173C101.905 161.446 101.646 161.616 101.317 161.683ZM107.866 173.722L105.62 162.715L107.253 162.382L107.593 164.044L107.707 164.021C107.797 163.435 108.07 162.919 108.526 162.473C108.982 162.027 109.54 161.736 110.199 161.601C110.324 161.576 110.479 161.547 110.667 161.514C110.854 161.48 110.996 161.459 111.094 161.449L111.445 163.169C111.385 163.166 111.249 163.171 111.038 163.184C110.83 163.192 110.614 163.219 110.39 163.265C109.854 163.374 109.4 163.583 109.025 163.894C108.654 164.198 108.387 164.571 108.223 165.013C108.064 165.449 108.034 165.915 108.136 166.412L109.557 173.377L107.866 173.722ZM118.604 160.065L118.897 161.498L113.193 162.662L112.9 161.229L118.604 160.065ZM114.024 158.253L115.715 157.908L117.857 168.398C117.954 168.876 118.097 169.22 118.284 169.431C118.475 169.636 118.689 169.756 118.925 169.793C119.165 169.823 119.41 169.813 119.658 169.763C119.844 169.725 119.995 169.684 120.111 169.64C120.225 169.592 120.317 169.553 120.386 169.524L121.04 170.973C120.934 171.04 120.783 171.115 120.586 171.2C120.39 171.29 120.135 171.367 119.82 171.431C119.342 171.529 118.853 171.522 118.352 171.41C117.856 171.297 117.415 171.061 117.028 170.702C116.646 170.342 116.39 169.842 116.259 169.202L114.024 158.253ZM123.971 163.538L125.322 170.159L123.631 170.504L120.636 155.829L122.327 155.483L123.427 160.872L123.57 160.843C123.712 160.222 124.007 159.691 124.454 159.251C124.906 158.806 125.564 158.495 126.429 158.319C127.179 158.165 127.866 158.182 128.491 158.368C129.116 158.549 129.646 158.916 130.082 159.469C130.522 160.016 130.839 160.762 131.032 161.708L132.459 168.702L130.768 169.047L129.364 162.168C129.186 161.294 128.821 160.664 128.269 160.279C127.722 159.888 127.049 159.774 126.251 159.937C125.697 160.05 125.224 160.269 124.833 160.593C124.446 160.915 124.171 161.327 124.01 161.828C123.853 162.328 123.84 162.898 123.971 163.538ZM139.756 167.451C138.839 167.639 137.982 167.572 137.185 167.252C136.387 166.927 135.703 166.38 135.133 165.611C134.562 164.837 134.158 163.867 133.92 162.701C133.684 161.545 133.677 160.501 133.9 159.57C134.123 158.639 134.541 157.869 135.153 157.262C135.766 156.654 136.535 156.255 137.462 156.066C138.179 155.92 138.769 155.924 139.234 156.078C139.702 156.226 140.076 156.428 140.358 156.685C140.643 156.935 140.867 157.143 141.03 157.309L141.173 157.279L140.067 151.862L141.759 151.517L144.754 166.192L143.12 166.526L142.775 164.835L142.575 164.876C142.491 165.102 142.366 165.391 142.199 165.744C142.032 166.091 141.759 166.428 141.383 166.754C141.006 167.075 140.463 167.307 139.756 167.451ZM139.676 165.886C140.354 165.747 140.891 165.453 141.287 165.004C141.682 164.55 141.937 163.983 142.052 163.303C142.166 162.618 142.138 161.86 141.968 161.028C141.801 160.207 141.535 159.512 141.17 158.945C140.804 158.372 140.352 157.962 139.814 157.714C139.274 157.46 138.661 157.404 137.973 157.545C137.256 157.691 136.697 157.997 136.294 158.462C135.895 158.922 135.64 159.489 135.529 160.163C135.422 160.832 135.447 161.553 135.605 162.327C135.765 163.111 136.03 163.798 136.399 164.39C136.773 164.975 137.234 165.408 137.784 165.689C138.338 165.964 138.969 166.03 139.676 165.886ZM151.378 165.109C150.681 165.251 150.021 165.249 149.399 165.103C148.775 164.951 148.246 164.659 147.809 164.225C147.371 163.787 147.079 163.21 146.933 162.493C146.804 161.863 146.824 161.326 146.992 160.884C147.16 160.437 147.428 160.058 147.798 159.749C148.168 159.44 148.592 159.179 149.072 158.966C149.555 158.748 150.045 158.554 150.542 158.383C151.194 158.16 151.723 157.985 152.13 157.857C152.54 157.723 152.83 157.582 152.998 157.433C153.172 157.283 153.231 157.072 153.175 156.8L153.164 156.743C153.019 156.036 152.714 155.526 152.247 155.213C151.785 154.899 151.164 154.822 150.385 154.981C149.578 155.146 148.981 155.452 148.595 155.899C148.208 156.346 147.963 156.789 147.858 157.229L146.136 156.983C146.286 156.256 146.562 155.657 146.964 155.187C147.369 154.711 147.841 154.341 148.38 154.077C148.922 153.807 149.47 153.615 150.024 153.502C150.377 153.43 150.792 153.39 151.268 153.382C151.748 153.369 152.23 153.448 152.712 153.618C153.2 153.787 153.64 154.103 154.033 154.565C154.426 155.027 154.711 155.695 154.89 156.57L156.37 163.821L154.679 164.167L154.375 162.676L154.289 162.694C154.223 162.956 154.084 163.25 153.872 163.577C153.66 163.904 153.351 164.209 152.946 164.49C152.541 164.772 152.018 164.978 151.378 165.109ZM151.326 163.537C151.995 163.401 152.532 163.154 152.937 162.798C153.346 162.441 153.626 162.03 153.775 161.567C153.929 161.102 153.959 160.641 153.866 160.182L153.55 158.635C153.496 158.735 153.354 158.846 153.125 158.968C152.9 159.083 152.635 159.199 152.33 159.316C152.03 159.428 151.735 159.532 151.447 159.631C151.162 159.724 150.931 159.801 150.755 159.862C150.327 160.009 149.935 160.186 149.579 160.393C149.227 160.594 148.96 160.845 148.778 161.146C148.599 161.442 148.554 161.804 148.641 162.234C148.761 162.822 149.069 163.222 149.566 163.434C150.065 163.64 150.652 163.675 151.326 163.537ZM160.994 167.177C160.708 167.235 160.447 167.264 160.213 167.262C159.98 167.265 159.816 167.253 159.721 167.228L159.847 165.65C160.279 165.671 160.65 165.635 160.959 165.542C161.269 165.449 161.519 165.251 161.711 164.948C161.909 164.649 162.054 164.199 162.145 163.598L162.285 162.674L155.956 152.441L157.79 152.066L162.619 160.217L162.734 160.194L163.982 150.802L165.816 150.428L163.718 163.993C163.624 164.605 163.46 165.129 163.226 165.565C162.992 166.005 162.688 166.358 162.315 166.624C161.946 166.888 161.506 167.073 160.994 167.177ZM169.535 145.847L171.545 156.424L169.882 156.764L167.586 146.245L169.535 145.847ZM171.58 160.836C171.226 160.908 170.897 160.844 170.592 160.642C170.287 160.441 170.099 160.163 170.027 159.81C169.954 159.456 170.019 159.127 170.221 158.822C170.422 158.517 170.7 158.329 171.053 158.256C171.407 158.184 171.736 158.249 172.041 158.451C172.346 158.652 172.534 158.93 172.606 159.283C172.654 159.517 172.638 159.744 172.559 159.965C172.484 160.184 172.361 160.373 172.189 160.533C172.022 160.686 171.819 160.787 171.58 160.836Z" fill="#206183"/>
<path d="M105.124 156.96L103.079 146.938L104.292 146.69L105.203 151.153L110.547 150.062L109.636 145.599L110.85 145.351L112.896 155.374L111.682 155.621L110.767 151.139L105.423 152.23L106.338 156.712L105.124 156.96ZM117.417 154.634C116.94 154.732 116.49 154.73 116.065 154.63C115.639 154.526 115.278 154.327 114.979 154.031C114.68 153.732 114.481 153.337 114.381 152.848C114.293 152.417 114.307 152.051 114.422 151.749C114.536 151.443 114.72 151.185 114.972 150.974C115.225 150.762 115.514 150.584 115.842 150.439C116.172 150.29 116.506 150.158 116.846 150.041C117.291 149.889 117.652 149.769 117.93 149.682C118.21 149.591 118.408 149.494 118.523 149.392C118.642 149.29 118.682 149.146 118.644 148.96L118.636 148.921C118.538 148.438 118.329 148.09 118.01 147.876C117.694 147.662 117.271 147.609 116.739 147.718C116.188 147.83 115.78 148.039 115.516 148.344C115.252 148.65 115.085 148.952 115.013 149.253L113.837 149.085C113.94 148.588 114.128 148.179 114.402 147.858C114.679 147.533 115.002 147.28 115.369 147.1C115.739 146.916 116.114 146.785 116.492 146.708C116.733 146.658 117.017 146.631 117.342 146.626C117.67 146.617 117.998 146.67 118.328 146.787C118.661 146.902 118.961 147.118 119.23 147.433C119.498 147.749 119.693 148.205 119.815 148.802L120.826 153.755L119.671 153.991L119.463 152.973L119.405 152.985C119.36 153.164 119.265 153.365 119.12 153.588C118.975 153.812 118.765 154.019 118.488 154.212C118.211 154.404 117.854 154.545 117.417 154.634ZM117.381 153.561C117.838 153.468 118.205 153.299 118.481 153.056C118.761 152.812 118.952 152.532 119.054 152.215C119.159 151.898 119.18 151.583 119.116 151.27L118.9 150.213C118.863 150.281 118.766 150.357 118.61 150.44C118.456 150.519 118.275 150.599 118.067 150.678C117.862 150.754 117.661 150.826 117.464 150.893C117.269 150.957 117.112 151.009 116.991 151.051C116.699 151.151 116.431 151.272 116.188 151.414C115.948 151.551 115.766 151.723 115.641 151.928C115.519 152.13 115.488 152.377 115.548 152.671C115.63 153.072 115.84 153.345 116.179 153.49C116.52 153.631 116.921 153.655 117.381 153.561ZM123.509 156.143L121.4 145.808L122.515 145.58L122.759 146.774L122.896 146.746C122.954 146.598 123.038 146.408 123.147 146.175C123.258 145.938 123.439 145.711 123.691 145.493C123.944 145.271 124.316 145.111 124.805 145.011C125.438 144.882 126.028 144.926 126.576 145.144C127.123 145.362 127.592 145.733 127.981 146.259C128.37 146.784 128.646 147.442 128.807 148.231C128.969 149.027 128.975 149.745 128.823 150.384C128.671 151.02 128.388 151.547 127.973 151.965C127.558 152.379 127.038 152.65 126.411 152.778C125.928 152.877 125.525 152.876 125.202 152.775C124.879 152.671 124.618 152.532 124.419 152.359C124.22 152.182 124.064 152.034 123.951 151.914L123.853 151.934L124.664 155.908L123.509 156.143ZM123.302 149.335C123.418 149.902 123.603 150.386 123.858 150.786C124.113 151.183 124.425 151.471 124.794 151.65C125.163 151.826 125.58 151.867 126.043 151.773C126.526 151.674 126.903 151.464 127.174 151.144C127.447 150.82 127.621 150.424 127.696 149.957C127.773 149.486 127.757 148.983 127.648 148.447C127.54 147.919 127.361 147.459 127.111 147.068C126.864 146.674 126.552 146.386 126.176 146.204C125.801 146.019 125.369 145.976 124.88 146.076C124.41 146.172 124.04 146.372 123.769 146.675C123.497 146.975 123.323 147.354 123.246 147.812C123.169 148.266 123.188 148.773 123.302 149.335ZM131.907 154.429L129.797 144.094L130.913 143.866L131.157 145.06L131.294 145.032C131.352 144.884 131.436 144.694 131.544 144.461C131.656 144.224 131.837 143.997 132.088 143.779C132.342 143.557 132.714 143.397 133.203 143.297C133.836 143.167 134.426 143.212 134.974 143.43C135.521 143.648 135.989 144.019 136.379 144.545C136.768 145.07 137.043 145.728 137.204 146.517C137.367 147.313 137.372 148.031 137.221 148.67C137.069 149.306 136.785 149.833 136.371 150.251C135.956 150.665 135.435 150.936 134.809 151.064C134.326 151.162 133.923 151.161 133.6 151.061C133.276 150.957 133.015 150.818 132.817 150.645C132.618 150.468 132.462 150.32 132.349 150.2L132.251 150.22L133.062 154.194L131.907 154.429ZM131.7 147.62C131.816 148.188 132.001 148.672 132.256 149.072C132.51 149.468 132.822 149.757 133.192 149.936C133.561 150.112 133.977 150.153 134.44 150.058C134.923 149.96 135.3 149.75 135.571 149.43C135.845 149.106 136.019 148.71 136.094 148.243C136.171 147.771 136.155 147.268 136.045 146.733C135.938 146.205 135.759 145.745 135.509 145.354C135.262 144.96 134.95 144.671 134.573 144.49C134.199 144.305 133.767 144.262 133.278 144.362C132.808 144.458 132.437 144.658 132.166 144.961C131.895 145.261 131.72 145.64 131.644 146.097C131.567 146.552 131.585 147.059 131.7 147.62ZM140.779 152.618C140.584 152.658 140.406 152.678 140.246 152.676C140.086 152.678 139.974 152.67 139.91 152.653L139.996 151.575C140.291 151.59 140.544 151.565 140.755 151.502C140.967 151.438 141.138 151.303 141.269 151.096C141.404 150.892 141.503 150.584 141.565 150.174L141.661 149.543L137.339 142.554L138.591 142.299L141.889 147.865L141.967 147.849L142.82 141.436L144.072 141.18L142.64 150.444C142.575 150.862 142.463 151.219 142.303 151.517C142.144 151.818 141.936 152.059 141.681 152.24C141.429 152.421 141.128 152.547 140.779 152.618Z" fill="#206183"/>
</g>
</g>
<defs>
<clipPath id="clip0_11_7147">
<rect width="181" height="229.111" fill="white"/>
</clipPath>
<clipPath id="clip1_11_7147">
<rect width="154.806" height="218.94" fill="white" transform="translate(13.0029 10.1422)"/>
</clipPath>
</defs>
</svg>
