<svg width="181" height="230" viewBox="0 0 181 230" fill="none" xmlns="http://www.w3.org/2000/svg">
<g clip-path="url(#clip0_11_7194)">
<rect width="181" height="229.111" fill="#FAFAFA"/>
<path d="M176.514 -1.52588e-05H4.68115V229.111H176.514V-1.52588e-05Z" fill="#FAFAFA"/>
<mask id="mask0_11_7194" style="mask-type:luminance" maskUnits="userSpaceOnUse" x="4" y="0" width="173" height="230">
<path d="M176.514 -1.52588e-05H4.68115V229.111H176.514V-1.52588e-05Z" fill="white"/>
</mask>
<g mask="url(#mask0_11_7194)">
<path d="M109.819 141.901L105.849 137.398L112.07 139.916L109.819 141.901Z" fill="#E9E5D9"/>
<path d="M102.764 72.8045L96.8672 70.8386L100.799 68.8735L102.764 72.8045Z" fill="#E9E5D9"/>
<path d="M89.2266 114.893L94.2273 112.774L92.7868 116.335L89.2266 114.893Z" fill="#E9E5D9"/>
<path d="M87.0654 97.9309L91.3017 98.1975L89.3169 95.9453L87.0654 97.9309Z" fill="#E9E5D9"/>
<path d="M160.348 55.4681L164.585 55.7348L162.599 53.4833L160.348 55.4681Z" fill="#E9E5D9"/>
<path d="M137.842 58.4256L134.84 55.424V58.4256H137.842Z" fill="#E9E5D9"/>
<path d="M122.832 99.698L119.831 96.6963V99.698H122.832Z" fill="#E9E5D9"/>
<path d="M143.452 51.9395L138.291 56.2317L140.703 50.7341L143.452 51.9395Z" fill="#E9E5D9"/>
<path d="M33.6281 58.0761L31.4287 51.7344L35.7257 55.928L33.6281 58.0761Z" fill="#E9E5D9"/>
<path d="M137.843 77.3807H131.838L137.843 74.3782V77.3807Z" fill="#E9E5D9"/>
<path d="M62.7942 87.887V93.8911L59.7925 87.887H62.7942Z" fill="#E9E5D9"/>
<path d="M172.364 146.533V152.538L169.362 146.533H172.364Z" fill="#E9E5D9"/>
<path d="M108.102 120.839L103.595 118.587L106.6 116.335L108.102 120.839Z" fill="#E9E5D9"/>
<path d="M175.354 87.1533L169.375 84.8853L173.361 82.6172L175.354 87.1533Z" fill="#E9E5D9"/>
<path d="M116.829 71.3766L119.831 68.3749H116.829V71.3766Z" fill="#E9E5D9"/>
<path d="M155.258 73.7827L150.446 68.9705V73.7827H155.258Z" fill="#E9E5D9"/>
<path d="M155.854 130.664L152.852 122.851V130.664H155.854Z" fill="#E9E5D9"/>
<path d="M131.838 111.903L134.84 108.901H131.838V111.903Z" fill="#E9E5D9"/>
<path d="M106.597 89.3882L100.593 86.3865H106.597V89.3882Z" fill="#E9E5D9"/>
<path d="M143.846 149.535L137.842 146.533H143.846V149.535Z" fill="#E9E5D9"/>
<path d="M140.844 94.6413L134.84 91.6396H140.844V94.6413Z" fill="#E9E5D9"/>
<path d="M160.966 101.199L163.968 95.1959V101.199H160.966Z" fill="#E9E5D9"/>
<path d="M177.603 22.7361L171.624 20.4681L175.61 18.2009L177.603 22.7361Z" fill="#E9E5D9"/>
<path d="M21.7599 25.0041L15.7803 22.7361L19.7665 20.4681L21.7599 25.0041Z" fill="#E9E5D9"/>
<path d="M143.093 30.2249L137.089 27.2224H143.093V30.2249Z" fill="#E9E5D9"/>
<path d="M7.68253 43.1041L1.6792 40.1024H7.68253V43.1041Z" fill="#E9E5D9"/>
<path d="M163.215 36.782L166.217 30.7787V36.782H163.215Z" fill="#E9E5D9"/>
<path d="M29.8862 39.7056L32.8887 33.7015V39.7056H29.8862Z" fill="#E9E5D9"/>
<path d="M77.062 103.226L81.0324 107.73L74.8105 105.211L77.062 103.226Z" fill="#E9E5D9"/>
<path d="M88.0645 185.64L97.0703 188.642L91.0661 191.644L88.0645 185.64Z" fill="#E9E5D9"/>
<path d="M97.6545 130.234L92.6538 132.353L94.0951 128.792L97.6545 130.234Z" fill="#E9E5D9"/>
<path d="M99.8162 147.196L95.5791 146.93L97.5639 149.182L99.8162 147.196Z" fill="#E9E5D9"/>
<path d="M26.5331 189.659L22.2969 189.392L24.2817 191.644L26.5331 189.659Z" fill="#E9E5D9"/>
<path d="M78.5359 161.657L74.2988 161.39L76.2837 163.642L78.5359 161.657Z" fill="#E9E5D9"/>
<path d="M73.0542 191.644L76.0567 194.646V191.644H73.0542Z" fill="#E9E5D9"/>
<path d="M64.0483 145.428L67.0508 148.431V145.428H64.0483Z" fill="#E9E5D9"/>
<path d="M50.54 191.644L56.5442 194.646H50.54V191.644Z" fill="#E9E5D9"/>
<path d="M77.6245 63.2906L83.6287 66.293H77.6245V63.2906Z" fill="#E9E5D9"/>
<path d="M49.0396 167.746H55.0429L49.0396 170.748V167.746Z" fill="#E9E5D9"/>
<path d="M16.2925 69.1638H22.2966L16.2925 72.1655V69.1638Z" fill="#E9E5D9"/>
<path d="M157.347 196.289H163.35L157.347 199.292V196.289Z" fill="#E9E5D9"/>
<path d="M124.087 157.24V151.236L127.089 157.24H124.087Z" fill="#E9E5D9"/>
<path d="M14.5176 98.5936V92.5894L17.5193 98.5936H14.5176Z" fill="#E9E5D9"/>
<path d="M78.7783 124.288L83.2859 126.54L80.2811 128.792L78.7783 124.288Z" fill="#E9E5D9"/>
<path d="M11.5273 157.974L17.507 160.242L13.52 162.51L11.5273 157.974Z" fill="#E9E5D9"/>
<path d="M107.835 176.546L113.815 178.813L109.828 181.082L107.835 176.546Z" fill="#E9E5D9"/>
<path d="M70.0529 173.751L67.0513 176.752H70.0529V173.751Z" fill="#E9E5D9"/>
<path d="M31.3874 55.424L28.3857 58.4256H31.3874V55.424Z" fill="#E9E5D9"/>
<path d="M10.3439 193.288L7.34229 196.289H10.3439V193.288Z" fill="#E9E5D9"/>
<path d="M8.84279 163.77L5.84033 166.772H8.84279V163.77Z" fill="#E9E5D9"/>
<path d="M124.747 175.045L121.746 178.047H124.747V175.045Z" fill="#E9E5D9"/>
<path d="M31.6235 171.344L36.4357 176.157V171.344H31.6235Z" fill="#E9E5D9"/>
<path d="M31.0278 114.463L34.0295 122.276V114.463H31.0278Z" fill="#E9E5D9"/>
<path d="M55.0427 133.224L52.041 136.226H55.0427V133.224Z" fill="#E9E5D9"/>
<path d="M80.2847 155.739L86.2888 158.741H80.2847V155.739Z" fill="#E9E5D9"/>
<path d="M43.0352 95.5919L49.0393 98.5936H43.0352V95.5919Z" fill="#E9E5D9"/>
<path d="M46.0371 150.486L52.0412 153.487H46.0371V150.486Z" fill="#E9E5D9"/>
<path d="M127.335 169.248L133.34 172.249H127.335V169.248Z" fill="#E9E5D9"/>
<path d="M25.916 143.928L22.9136 149.931V143.928H25.916Z" fill="#E9E5D9"/>
<path d="M122.341 194.789L119.339 200.792V194.789H122.341Z" fill="#E9E5D9"/>
<path d="M55.0427 56.485L52.041 62.4883V56.485H55.0427Z" fill="#E9E5D9"/>
<path d="M150.732 11.1799L154.969 11.4465L152.984 9.19507L150.732 11.1799Z" fill="#E9E5D9"/>
<path d="M128.227 14.1374L125.224 11.1357V14.1374H128.227Z" fill="#E9E5D9"/>
<path d="M133.836 7.65125L128.675 11.9435L131.087 6.44585L133.836 7.65125Z" fill="#E9E5D9"/>
<path d="M24.0121 13.7879L21.8135 7.44615L26.1097 11.6398L24.0121 13.7879Z" fill="#E9E5D9"/>
<path d="M68.0088 19.0024L74.0129 22.004H68.0088V19.0024Z" fill="#E9E5D9"/>
<path d="M21.7717 11.1357L18.77 14.1374H21.7717V11.1357Z" fill="#E9E5D9"/>
<path d="M45.427 12.1967L42.4253 18.2009V12.1967H45.427Z" fill="#E9E5D9"/>
<path d="M170.908 211.332L164.928 209.064L168.914 206.796L170.908 211.332Z" fill="#E9E5D9"/>
<path d="M65.3176 221.642L59.3379 219.374L63.3241 217.106L65.3176 221.642Z" fill="#E9E5D9"/>
<path d="M15.0651 213.6L9.08545 211.332L13.0716 209.064L15.0651 213.6Z" fill="#E9E5D9"/>
<path d="M136.398 218.82L130.394 215.819H136.398V218.82Z" fill="#E9E5D9"/>
<path d="M156.52 225.378L159.521 219.374V225.378H156.52Z" fill="#E9E5D9"/>
<path d="M23.1919 228.301L26.1936 222.297V228.301H23.1919Z" fill="#E9E5D9"/>
<path d="M61.314 207.598L67.3181 210.6H61.314V207.598Z" fill="#E9E5D9"/>
<path d="M38.7321 200.792L35.7305 206.796V200.792H38.7321Z" fill="#E9E5D9"/>
<path d="M8.84279 131.723L5.84033 137.727V131.723H8.84279Z" fill="#E9E5D9"/>
<path d="M157.354 170.748L154.353 176.752V170.748H157.354Z" fill="#E9E5D9"/>
<path d="M109.336 212.816L106.334 218.82V212.816H109.336Z" fill="#E9E5D9"/>
<path d="M82.7529 22.673C79.7552 16.6642 78.3258 13.6412 75.6089 7.57001C81.6012 7.85164 84.6005 7.92184 90.5975 7.92184C87.599 13.8589 86.0299 16.8117 82.7529 22.673Z" fill="#3A4D57"/>
<path d="M98.4422 22.673C95.1652 16.8117 93.5962 13.8589 90.5977 7.92264C96.5947 7.92264 99.594 7.85243 105.586 7.5708C102.869 13.6412 101.44 16.6642 98.4422 22.673Z" fill="#FA6564"/>
<path d="M114.118 21.9362C110.568 16.235 108.861 13.3596 105.586 7.57001C111.579 7.28838 114.573 7.07697 120.551 6.51372C118.118 12.7064 116.833 15.7925 114.118 21.9362Z" fill="#3A4D57"/>
<path d="M129.755 20.4626C125.938 14.9349 124.096 12.1431 120.55 6.51449C126.528 5.95124 129.512 5.5994 135.464 4.75452C133.322 11.0545 132.18 14.1973 129.755 20.4626Z" fill="#FBBE68"/>
<path d="M145.326 18.2514C141.247 12.9107 139.274 10.2088 135.464 4.75374C141.416 3.90885 144.385 3.4158 150.303 2.28929C148.454 8.6847 147.459 11.8789 145.326 18.2514Z" fill="#FA6564"/>
<path d="M160.805 15.3041C156.473 10.163 154.371 7.55818 150.302 2.28929C156.22 1.16277 159.168 0.529307 165.041 -0.879623C163.49 5.59783 162.643 8.83615 160.805 15.3041Z" fill="#FBBE68"/>
<path d="M176.167 11.6193C171.587 6.69122 169.362 4.18969 165.041 -0.879621C170.913 -2.28776 173.837 -3.06244 179.654 -4.75221C178.401 1.79387 177.704 5.07008 176.167 11.6193Z" fill="#3A4D57"/>
<path d="M5.02814 11.6193C3.48983 5.07008 2.79326 1.79387 1.54053 -4.75221C7.35769 -3.06244 10.282 -2.28776 16.1536 -0.879621C11.8338 4.18969 9.60756 6.69122 5.02814 11.6193Z" fill="#FA6564"/>
<path d="M20.3898 15.3041C18.5525 8.83615 17.7052 5.59783 16.1543 -0.879623C22.0259 0.528519 24.9755 1.16277 30.8929 2.28929C26.8231 7.55818 24.7223 10.163 20.3898 15.3041Z" fill="#3A4D57"/>
<path d="M35.8696 18.2514C33.7365 11.8789 32.7409 8.6847 30.8926 2.28929C36.8099 3.4158 39.7793 3.90885 45.7313 4.75374C41.9211 10.2088 39.9481 12.9107 35.8696 18.2514Z" fill="#FBBE68"/>
<path d="M51.44 20.4626C49.0143 14.1981 47.8728 11.0545 45.731 4.75372C51.683 5.59861 54.6673 5.95045 60.6446 6.51371C57.0986 12.1431 55.2582 14.9349 51.44 20.4626Z" fill="#FA6564"/>
<path d="M67.077 21.9362C64.3633 15.7933 63.0766 12.7064 60.6445 6.5145C66.6218 7.07775 69.6164 7.28917 75.6087 7.5708C72.3333 13.3596 70.627 16.235 67.077 21.9362Z" fill="#FBBE68"/>
</g>
<path d="M36.8032 127.56C50.2417 130.949 62.9962 129.237 75.0645 122.423L49.7692 79.0775L36.8032 127.56Z" fill="#D8D0BC"/>
<path d="M46.0358 97.6161C45.9537 97.0158 46.3442 96.5172 46.9485 96.4486C47.5196 96.3839 48.0111 96.7665 48.0876 97.3361C48.1673 97.9301 47.7705 98.4366 47.1709 98.5044C46.5951 98.5691 46.1139 98.1936 46.0358 97.6161Z" fill="#F9F8F7"/>
<path d="M48.1669 105.382C47.5665 105.484 47.0499 105.114 46.9623 104.518C46.8771 103.939 47.2321 103.443 47.8016 103.346C48.398 103.244 48.9242 103.619 49.011 104.209C49.0954 104.781 48.7325 105.285 48.1669 105.382Z" fill="#F9F8F7"/>
<path d="M48.976 85.656C49.5724 85.5747 50.0757 85.9691 50.1435 86.5718C50.209 87.1461 49.8304 87.6313 49.2561 87.7094C48.6597 87.7907 48.1564 87.3962 48.0877 86.7935C48.0231 86.2192 48.4017 85.7349 48.976 85.656Z" fill="#F9F8F7"/>
<path d="M46.4258 91.5796L46.8841 89.8654C47.0324 90.02 47.1342 90.2228 47.1642 90.461C47.2296 90.9888 46.918 91.4416 46.4258 91.5796Z" fill="#F9F8F7"/>
<path d="M51.7861 124.874C51.8713 125.47 51.48 125.979 50.8805 126.051C50.2817 126.124 49.7886 125.724 49.7287 125.117C49.6719 124.542 50.0577 124.068 50.6383 123.998C51.2102 123.929 51.7048 124.306 51.7861 124.874Z" fill="#F9F8F7"/>
<path d="M49.6459 117.12C50.2422 117.016 50.77 117.388 50.8599 117.978C50.9467 118.55 50.5854 119.057 50.0221 119.156C49.4218 119.26 48.9027 118.892 48.8128 118.297C48.7245 117.718 49.0779 117.219 49.6459 117.12Z" fill="#F9F8F7"/>
<path d="M51.079 101.488C50.4841 101.556 49.9895 101.147 49.9343 100.542C49.8822 99.9701 50.2751 99.4929 50.8526 99.4274C51.4474 99.3596 51.942 99.7682 51.9972 100.373C52.0493 100.944 51.6564 101.422 51.079 101.488Z" fill="#F9F8F7"/>
<path d="M49.8965 92.5437C50.4708 92.4632 50.9678 92.8285 51.0601 93.398C51.1579 93.9991 50.7832 94.5103 50.1836 94.594C49.6054 94.6744 49.1131 94.3139 49.0201 93.7428C48.9246 93.1448 49.3033 92.6265 49.8965 92.5437Z" fill="#F9F8F7"/>
<path d="M54.7574 120.936C54.8599 121.536 54.4899 122.053 53.8935 122.141C53.3145 122.226 52.8183 121.871 52.7213 121.301C52.6195 120.703 52.9926 120.182 53.5851 120.094C54.1602 120.008 54.6611 120.368 54.7574 120.936Z" fill="#F9F8F7"/>
<path d="M52.6787 113.204C53.253 113.129 53.7468 113.496 53.8352 114.068C53.9282 114.667 53.5472 115.18 52.95 115.259C52.3757 115.335 51.8827 114.967 51.7935 114.395C51.7012 113.797 52.0823 113.283 52.6787 113.204Z" fill="#F9F8F7"/>
<path d="M51.7545 106.317C52.3288 106.241 52.8226 106.609 52.911 107.18C53.0009 107.759 52.6491 108.26 52.0827 108.361C51.4831 108.469 50.9617 108.103 50.8694 107.509C50.7763 106.91 51.1581 106.396 51.7545 106.317Z" fill="#F9F8F7"/>
<path d="M48.7583 110.228C49.331 110.145 49.8375 110.509 49.9329 111.07C50.0331 111.663 49.6529 112.187 49.0604 112.273C48.4814 112.358 47.986 112.001 47.8905 111.431C47.7895 110.829 48.1611 110.315 48.7583 110.228Z" fill="#F9F8F7"/>
<path d="M40.9865 122.808C41.0749 123.386 40.7215 123.886 40.1543 123.986C39.5539 124.092 39.0349 123.723 38.9441 123.128C38.8526 122.529 39.236 122.018 39.8332 121.94C40.4067 121.866 40.899 122.237 40.9865 122.808Z" fill="#F9F8F7"/>
<path d="M39.6479 116.924L39.9848 115.664C40.0219 115.753 40.0518 115.847 40.0653 115.95C40.1181 116.353 39.9485 116.712 39.6479 116.924Z" fill="#F9F8F7"/>
<path d="M47.5931 127.91C48.1856 127.807 48.7165 128.187 48.8041 128.774C48.8277 128.935 48.8135 129.088 48.7717 129.231C48.1059 129.215 47.4385 129.189 46.7696 129.147C46.7656 129.126 46.7577 129.107 46.7546 129.087C46.6678 128.512 47.0275 128.008 47.5931 127.91Z" fill="#F9F8F7"/>
<path d="M53.6458 128.187C53.5448 127.589 53.9188 127.067 54.5112 126.98C55.0863 126.896 55.5865 127.256 55.6827 127.825C55.7734 128.363 55.4784 128.835 54.9861 128.989C54.8354 129.005 54.6848 129.018 54.5341 129.032C54.0852 128.983 53.7255 128.659 53.6458 128.187Z" fill="#F9F8F7"/>
<path d="M42.8115 118.038C43.3858 117.962 43.8844 118.331 43.9727 118.898C44.0658 119.493 43.6809 120.008 43.0829 120.087C42.5062 120.164 42.0132 119.798 41.924 119.227C41.8294 118.629 42.212 118.117 42.8115 118.038Z" fill="#F9F8F7"/>
<path d="M45.1063 101.237C45.1884 101.831 44.7916 102.342 44.1944 102.412C43.9617 102.439 43.7455 102.39 43.5625 102.287L44.0808 100.349C44.5983 100.346 45.033 100.71 45.1063 101.237Z" fill="#F9F8F7"/>
<path d="M43.9816 108.433C43.8917 107.861 44.2483 107.352 44.8099 107.25C45.4024 107.143 45.9364 107.517 46.0287 108.104C46.1179 108.675 45.7582 109.185 45.1965 109.286C44.5969 109.393 44.0747 109.027 43.9816 108.433Z" fill="#F9F8F7"/>
<path d="M47.0087 123.065C46.4084 123.155 45.9019 122.772 45.8254 122.171C45.7528 121.6 46.1275 121.104 46.6963 121.019C47.2903 120.93 47.8086 121.322 47.882 121.916C47.9538 122.487 47.5783 122.98 47.0087 123.065Z" fill="#F9F8F7"/>
<path d="M41.8379 111.157C42.4359 111.055 42.9581 111.427 43.0465 112.019C43.1324 112.594 42.7735 113.096 42.2063 113.193C41.6083 113.296 41.0861 112.923 40.9978 112.331C40.911 111.756 41.2699 111.254 41.8379 111.157Z" fill="#F9F8F7"/>
<path d="M46.0823 116.181C45.5072 116.266 45.0071 115.907 44.9085 115.338C44.8059 114.743 45.1806 114.219 45.7731 114.13C46.3426 114.046 46.8546 114.411 46.9509 114.972C47.0526 115.562 46.6708 116.094 46.0823 116.181Z" fill="#F9F8F7"/>
<path d="M44.8934 125.777C44.9904 126.373 44.6109 126.89 44.0146 126.973C43.4371 127.053 42.9417 126.692 42.8486 126.121C42.7516 125.525 43.131 125.008 43.7274 124.925C44.3056 124.845 44.8003 125.206 44.8934 125.777Z" fill="#F9F8F7"/>
<path d="M72.4449 122.097C72.5325 122.695 72.1452 123.202 71.544 123.277C70.9705 123.348 70.4791 122.974 70.3946 122.403C70.3071 121.805 70.6944 121.298 71.2955 121.224C71.8691 121.154 72.3613 121.527 72.4449 122.097Z" fill="#F9F8F7"/>
<path d="M57.0789 93.6678C56.4778 93.7554 55.9737 93.3704 55.8995 92.7677C55.8293 92.1966 56.2064 91.7027 56.776 91.6199C56.8848 91.6041 56.9897 91.6096 57.0915 91.6238L57.9001 93.0091C57.7755 93.3531 57.4765 93.6102 57.0789 93.6678Z" fill="#F9F8F7"/>
<path d="M61.568 101.497C62.1651 101.391 62.6937 101.762 62.7844 102.351C62.8728 102.922 62.5122 103.431 61.9498 103.53C61.3494 103.637 60.8296 103.269 60.7381 102.675C60.6481 102.098 61.0007 101.597 61.568 101.497Z" fill="#F9F8F7"/>
<path d="M62.5423 108.377C63.1173 108.298 63.6175 108.664 63.7082 109.23C63.8037 109.825 63.4211 110.342 62.8255 110.424C62.2472 110.504 61.7557 110.143 61.6634 109.571C61.5672 108.97 61.9427 108.459 62.5423 108.377Z" fill="#F9F8F7"/>
<path d="M65.5559 122.992C65.6577 123.584 65.2782 124.11 64.6866 124.197C64.1075 124.282 63.6113 123.927 63.5143 123.358C63.4157 122.782 63.7612 122.27 64.3213 122.161C64.9146 122.046 65.4565 122.41 65.5559 122.992Z" fill="#F9F8F7"/>
<path d="M63.4548 115.266C64.0535 115.178 64.5655 115.566 64.6373 116.163C64.7091 116.757 64.3052 117.257 63.7032 117.318C63.1282 117.376 62.6533 116.992 62.5815 116.412C62.5105 115.835 62.8797 115.35 63.4548 115.266Z" fill="#F9F8F7"/>
<path d="M64.6427 105.655C64.5978 105.359 64.6688 105.085 64.8234 104.874L65.7826 106.518C65.2139 106.583 64.7303 106.226 64.6427 105.655Z" fill="#F9F8F7"/>
<path d="M60.5176 127.164C60.4663 126.596 60.8647 126.115 61.4398 126.05C62.0094 125.986 62.5032 126.372 62.5798 126.94C62.6137 127.193 62.5569 127.429 62.4378 127.624C61.966 127.75 61.4935 127.866 61.0194 127.977C60.744 127.814 60.55 127.525 60.5176 127.164Z" fill="#F9F8F7"/>
<path d="M68.283 125.131C68.5946 125.085 68.8825 125.172 69.0987 125.35C68.5394 125.584 67.9785 125.807 67.416 126.02C67.4681 125.566 67.7994 125.204 68.283 125.131Z" fill="#F9F8F7"/>
<path d="M66.4533 111.354C67.0284 111.279 67.5214 111.646 67.6098 112.218C67.7029 112.817 67.321 113.331 66.7247 113.409C66.1504 113.485 65.6573 113.118 65.5682 112.546C65.4751 111.947 65.8561 111.434 66.4533 111.354Z" fill="#F9F8F7"/>
<path d="M37.2545 125.873C37.6489 125.972 37.9518 126.294 38.0118 126.732C38.0694 127.154 37.884 127.534 37.5558 127.742C37.305 127.682 37.0541 127.624 36.8032 127.56L37.2545 125.873Z" fill="#F9F8F7"/>
<path d="M68.5402 119.148C68.6104 119.724 68.2388 120.209 67.663 120.292C67.061 120.378 66.5601 119.994 66.4867 119.39C66.4173 118.817 66.7936 118.326 67.3632 118.244C67.9619 118.158 68.4676 118.547 68.5402 119.148Z" fill="#F9F8F7"/>
<path d="M69.4702 115.515C69.3842 114.926 69.762 114.426 70.3498 114.343L71.3201 116.006C71.1583 116.211 70.9138 116.354 70.618 116.391C70.0445 116.46 69.553 116.085 69.4702 115.515Z" fill="#F9F8F7"/>
<path d="M55.6677 109.3C56.242 109.228 56.735 109.598 56.821 110.168C56.9109 110.767 56.526 111.275 55.9248 111.351C55.3505 111.424 54.8583 111.054 54.7715 110.483C54.6808 109.885 55.0658 109.377 55.6677 109.3Z" fill="#F9F8F7"/>
<path d="M58.6689 123.935C58.7588 124.509 58.4022 125.016 57.8382 125.116C57.2394 125.224 56.7148 124.856 56.6217 124.264C56.5318 123.691 56.8884 123.184 57.4524 123.083C58.052 122.976 58.5766 123.344 58.6689 123.935Z" fill="#F9F8F7"/>
<path d="M52.2492 83.7998C51.6725 83.8834 51.1731 83.5252 51.0761 82.9572C51.0075 82.5533 51.1637 82.1865 51.454 81.9633L52.4874 83.7343C52.4125 83.7635 52.3336 83.7871 52.2492 83.7998Z" fill="#F9F8F7"/>
<path d="M56.5923 116.187C57.1658 116.114 57.662 116.487 57.7472 117.055C57.8363 117.652 57.449 118.162 56.8494 118.238C56.2751 118.311 55.7821 117.94 55.6961 117.37C55.6062 116.772 55.9912 116.264 56.5923 116.187Z" fill="#F9F8F7"/>
<path d="M56.8244 99.6514C56.7558 99.0803 57.1345 98.588 57.7056 98.5068C58.3004 98.4224 58.8148 98.8176 58.8834 99.4132C58.9497 99.9835 58.5694 100.477 57.9999 100.558C57.4043 100.643 56.8962 100.252 56.8244 99.6514Z" fill="#F9F8F7"/>
<path d="M55.0068 104.463C54.4301 104.539 53.9371 104.173 53.8479 103.603C53.7548 103.005 54.1367 102.493 54.7362 102.414C55.3105 102.338 55.8091 102.707 55.8974 103.274C55.9897 103.87 55.6047 104.384 55.0068 104.463Z" fill="#F9F8F7"/>
<path d="M60.4666 119.17C61.0606 119.079 61.5805 119.469 61.6562 120.062C61.7288 120.633 61.3556 121.129 60.7869 121.215C60.1857 121.307 59.6785 120.927 59.6004 120.325C59.5254 119.754 59.8978 119.257 60.4666 119.17Z" fill="#F9F8F7"/>
<path d="M53.834 95.524C54.4083 95.4585 54.8942 95.8364 54.9731 96.4099C55.0552 97.0071 54.6615 97.5104 54.0596 97.579C53.4853 97.6445 52.9994 97.2666 52.9205 96.6931C52.8384 96.0967 53.2313 95.5927 53.834 95.524Z" fill="#F9F8F7"/>
<path d="M58.9592 107.438C58.3597 107.54 57.843 107.169 57.7546 106.573C57.6694 105.999 58.0299 105.496 58.5963 105.399C59.1888 105.298 59.7189 105.678 59.8049 106.267C59.8877 106.839 59.5249 107.342 58.9592 107.438Z" fill="#F9F8F7"/>
<path d="M59.5713 112.279C60.1424 112.206 60.6426 112.581 60.7285 113.147C60.8185 113.74 60.4288 114.258 59.834 114.335C59.2391 114.411 58.7359 114.01 58.672 113.409C58.6104 112.838 58.997 112.352 59.5713 112.279Z" fill="#F9F8F7"/>
<path d="M52.8705 88.6419C53.4693 88.5551 53.9805 88.944 54.0522 89.5412C54.1232 90.136 53.7185 90.6346 53.1166 90.6945C52.5431 90.7521 52.0635 90.3648 51.9933 89.7873C51.9231 89.2154 52.2994 88.7247 52.8705 88.6419Z" fill="#F9F8F7"/>
<path d="M49.9416 79.4199C48.4483 77.6229 46.4098 75.0054 43.9249 74.5028C44.522 76.4616 47.4425 78.5742 49.2009 79.5398C47.4417 78.8188 43.9517 78.5821 42.2422 79.3434C44.2065 80.7342 47.7943 79.3118 50.0852 79.7717C47.429 80.006 46.0138 81.4323 44.2885 83.2207C46.2875 82.3963 47.7264 80.4423 49.5685 79.4791C49.0289 81.1483 48.2684 83.1813 48.3883 84.9783C49.514 84.2518 49.9724 80.705 49.9361 79.4428C51.0216 81.4134 52.1355 83.7911 54.4571 84.165C54.3412 82.6101 52.025 81.9238 51.0066 81.075C50.3857 80.5575 49.9858 79.9106 49.6537 79.2456C51.4633 81.2264 54.4642 81.5767 56.9571 81.7684C55.7706 78.3612 52.0274 79.2613 49.3839 79.6163C51.3766 79.4806 54.4713 78.9734 55.7643 77.4572C53.6462 76.759 51.0082 77.794 49.7262 79.539C50.1159 77.9644 51.633 76.4253 51.0216 74.6748C50.6839 73.7077 49.8446 72.9109 49.1456 73.6982C47.9039 75.0953 49.3973 78.3163 49.9416 79.4199Z" fill="#E9E5D9"/>
<path d="M55.2354 148.11C74.2551 155.718 93.2757 155.718 112.296 148.11L83.7658 79.6376L55.2354 148.11Z" fill="#E9E5D9"/>
<path d="M83.9308 80.0345C83.8527 79.9564 83.7754 79.8791 83.6973 79.801L83.7651 79.6377L83.9308 80.0345Z" fill="#F9F8F7"/>
<path d="M78.9236 111.325C76.957 109.359 74.988 107.393 73.0205 105.427L73.6666 103.875C76.3574 106.568 79.0459 109.263 81.7376 111.955C90.5809 120.796 99.4305 129.632 108.278 138.47L109.885 142.326C99.5661 131.993 89.2516 121.652 78.9236 111.325Z" fill="#F9F8F7"/>
<path d="M87.5372 88.6884L89.137 92.5279C86.6095 90.0011 84.0819 87.4727 81.5552 84.9452L82.2123 83.3682C83.9873 85.1416 85.7622 86.915 87.5372 88.6884Z" fill="#F9F8F7"/>
<path d="M88.8394 104.506C91.8568 107.524 94.8782 110.537 97.8972 113.554L99.4766 117.344C95.3026 113.164 91.1311 108.982 86.9548 104.806C83.7377 101.589 80.5168 98.3766 77.2974 95.1611L77.9474 93.6007C81.5786 97.2359 85.2066 100.873 88.8394 104.506Z" fill="#F9F8F7"/>
<path d="M92.7152 101.116L94.3222 104.974C92.9148 103.567 91.5067 102.162 90.0993 100.755C86.5376 97.1957 82.979 93.6331 79.418 90.0721L80.0775 88.4896C84.2901 92.6991 88.5034 96.9069 92.7152 101.116Z" fill="#F9F8F7"/>
<path d="M75.51 115.152C73.9709 113.613 72.4302 112.077 70.8911 110.539L71.4804 109.123C84.6309 122.294 97.7799 135.463 110.934 148.638C110.454 148.821 109.974 148.998 109.493 149.171C98.1641 137.832 86.8437 126.486 75.51 115.152Z" fill="#F9F8F7"/>
<path d="M104.676 129.824C97.7318 122.887 90.785 115.952 83.8445 109.011C80.9453 106.112 78.0502 103.211 75.1519 100.311L75.805 98.7434C78.9661 101.907 82.1239 105.073 85.2857 108.234C91.2196 114.168 97.1575 120.096 103.094 126.027L104.676 129.824Z" fill="#F9F8F7"/>
<path d="M70.2536 117.165C69.7542 116.665 69.2541 116.166 68.7539 115.666L69.329 114.284C81.4035 126.362 93.4686 138.43 105.528 150.493C105.018 150.648 104.507 150.797 103.997 150.943C92.7499 139.684 81.5045 128.422 70.2536 117.165Z" fill="#F9F8F7"/>
<path d="M58.0649 141.321L58.6534 139.908C62.941 144.187 67.2427 148.477 71.5405 152.766C70.6838 152.619 69.8271 152.455 68.9704 152.276C65.3368 148.623 61.7056 144.968 58.0649 141.321Z" fill="#F9F8F7"/>
<path d="M60.2021 136.191L60.7181 134.954C66.9778 141.201 73.232 147.442 79.4854 153.683C78.822 153.643 78.1593 153.594 77.4959 153.536C71.7347 147.75 65.9728 141.967 60.2021 136.191Z" fill="#F9F8F7"/>
<path d="M55.9346 146.433L56.5176 145.033C58.3272 146.848 60.1353 148.66 61.9434 150.475C60.966 150.176 59.9894 149.859 59.012 149.519C57.9864 148.491 56.9625 147.46 55.9346 146.433Z" fill="#F9F8F7"/>
<path d="M68.464 122.655C67.8471 122.038 67.2302 121.42 66.6133 120.804L67.2286 119.328C78.1167 130.205 89.0142 141.093 99.918 151.987C99.3169 152.123 98.715 152.252 98.1139 152.373C88.245 142.452 78.3549 132.553 68.464 122.655Z" fill="#F9F8F7"/>
<path d="M62.3428 131.053L62.9328 129.636C70.9754 137.664 79.0227 145.699 87.074 153.737C86.3924 153.768 85.71 153.788 85.0284 153.801C77.4718 146.213 69.9105 138.63 62.3428 131.053Z" fill="#F9F8F7"/>
<path d="M64.4746 125.937L65.0213 124.624C74.5383 134.128 84.0521 143.629 93.5723 153.136C92.9916 153.216 92.4102 153.289 91.8296 153.355C82.726 144.202 73.6011 135.069 64.4746 125.937Z" fill="#F9F8F7"/>
<path d="M84.0382 79.1028C85.16 80.6119 86.4909 81.9893 87.7089 83.44C88.9435 84.9105 90.8202 87.3765 91.0001 89.3589C87.66 88.94 86.5429 85.9983 85.5876 83.1947C85.2807 82.2946 85.1876 79.6952 83.9846 79.3047C83.8016 80.279 83.9641 81.2887 83.6943 82.2985C83.3243 83.6838 82.81 84.8063 81.9824 85.9676C81.6456 86.4401 80.2359 88.903 79.2158 87.7946C78.0089 86.4835 81.3931 82.5983 82.0132 81.4C82.4447 80.5661 82.7863 79.412 83.7495 79.0152C82.3848 80.406 81.5557 82.0374 79.7554 82.9825C78.1887 83.8045 76.8027 84.1445 75.0317 84.0948C75.4348 81.9293 78.8183 80.9527 80.5688 80.3066C81.6132 79.9216 82.989 79.6637 83.8395 78.9158C82.1773 79.3528 80.2138 79.315 78.5027 79.2874C77.3912 79.2692 75.7882 79.2897 74.7761 78.8385C74.0747 76.1816 82.4463 78.2776 83.6691 78.7399C83.1941 78.5782 82.6056 78.1632 82.1473 77.9139C79.518 76.4829 76.8027 75.2191 74.2585 73.6311C73.4539 73.1286 72.3022 72.5504 71.9077 71.629C73.734 71.4097 76.196 72.4652 77.8093 73.2485C78.8963 73.7763 80.0284 74.6125 80.8733 75.485C81.9919 76.6399 82.918 77.7214 83.6935 79.0949C83.5334 77.1172 82.0313 75.3635 81.8893 73.2966C81.8018 72.0289 82.1071 70.7904 82.3579 69.559C82.8242 70.1759 83.1058 71.0894 83.247 71.8901C83.5247 73.4623 84.0217 75.0408 84.2576 76.6083C84.394 77.514 84.2512 78.4898 83.7637 79.2669C83.7377 76.7732 86.1256 74.405 88.2382 73.4181C87.9542 75.638 86.4845 78.4882 84.1463 79.0996C86.0183 79.7836 89.5304 80.3082 89.8302 82.7474C88.3881 82.8744 87.4454 82.394 86.5208 81.4221C85.7588 80.6206 84.7719 80.0541 83.9507 79.3031C85.2831 81.3534 85.5813 83.9291 84.4982 86.1167C84.4666 85.4532 84.0201 84.9239 83.8592 84.2888C83.6659 83.526 83.617 82.5557 83.6769 81.7636C83.7858 80.3153 84.0398 78.885 84.0374 77.4091" fill="#D8D0BC"/>
<path d="M102.428 152.709C114.938 161.968 128.915 165.636 144.36 163.714L136.599 107.893L102.428 152.709Z" fill="#D8D0BC"/>
<path d="M136.644 108.216C136.602 108.144 136.56 108.072 136.518 107.999L136.599 107.893L136.644 108.216Z" fill="#F9F8F7"/>
<path d="M126.93 130.246C125.863 128.421 124.796 126.597 123.729 124.772L124.503 123.757C125.961 126.255 127.417 128.754 128.876 131.251C133.669 139.455 138.469 147.654 143.267 155.855L143.704 158.999C138.113 149.414 132.528 139.826 126.93 130.246Z" fill="#F9F8F7"/>
<path d="M137.625 115.271L138.059 118.401C136.689 116.056 135.32 113.712 133.95 111.366L134.737 110.334C135.7 111.98 136.662 113.626 137.625 115.271Z" fill="#F9F8F7"/>
<path d="M135.532 127.147C137.168 129.947 138.807 132.744 140.444 135.542L140.873 138.632C138.612 134.756 136.353 130.878 134.089 127.004C132.345 124.02 130.597 121.038 128.852 118.054L129.631 117.033C131.599 120.403 133.563 123.776 135.532 127.147Z" fill="#F9F8F7"/>
<path d="M139.034 125.403L139.471 128.547C138.708 127.242 137.944 125.938 137.181 124.632C135.249 121.329 133.321 118.025 131.391 114.721L132.181 113.685C134.466 117.592 136.751 121.497 139.034 125.403Z" fill="#E9E5D9"/>
<path d="M123.683 132.398C122.849 130.971 122.013 129.544 121.178 128.117L121.884 127.191C129.008 139.406 136.131 151.619 143.257 163.838C142.869 163.88 142.482 163.917 142.095 163.952C135.957 153.435 129.826 142.913 123.683 132.398Z" fill="#E9E5D9"/>
<path d="M142.287 148.805C138.521 142.368 134.754 135.933 130.992 129.494C129.421 126.804 127.853 124.114 126.283 121.424L127.065 120.397C128.778 123.331 130.488 126.266 132.202 129.2C135.419 134.705 138.639 140.207 141.857 145.71L142.287 148.805Z" fill="#E9E5D9"/>
<path d="M119.433 132.865C119.162 132.401 118.891 131.937 118.62 131.473L119.31 130.569C125.853 141.773 132.392 152.969 138.928 164.158C138.523 164.174 138.12 164.185 137.716 164.193C131.622 153.751 125.529 143.306 119.433 132.865Z" fill="#F9F8F7"/>
<path d="M105.816 148.265L106.521 147.34C108.847 151.311 111.18 155.294 113.512 159.275C112.911 159.002 112.313 158.715 111.717 158.419C109.752 155.034 107.789 151.647 105.816 148.265Z" fill="#E9E5D9"/>
<path d="M108.376 144.908L108.994 144.097C112.389 149.895 115.782 155.688 119.174 161.48C118.694 161.323 118.216 161.159 117.74 160.988C114.622 155.626 111.504 150.265 108.376 144.908Z" fill="#F9F8F7"/>
<path d="M103.266 151.611L103.964 150.695C104.944 152.377 105.923 154.059 106.902 155.74C106.241 155.332 105.584 154.91 104.932 154.473C104.376 153.519 103.823 152.564 103.266 151.611Z" fill="#F9F8F7"/>
<path d="M117.058 136.554C116.723 135.981 116.389 135.41 116.055 134.837L116.792 133.87C122.695 143.964 128.604 154.066 134.516 164.175C134.047 164.159 133.581 164.138 133.115 164.11C127.776 154.917 122.417 145.735 117.058 136.554Z" fill="#E9E5D9"/>
<path d="M110.94 141.545L111.647 140.617C116.009 148.068 120.373 155.524 124.739 162.984C124.232 162.876 123.727 162.759 123.224 162.636C119.134 155.603 115.04 148.572 110.94 141.545Z" fill="#E9E5D9"/>
<path d="M113.494 138.196L114.148 137.337C119.309 146.156 124.468 154.973 129.631 163.796C129.188 163.742 128.747 163.684 128.308 163.62C123.383 155.139 118.439 146.667 113.494 138.196Z" fill="#F9F8F7"/>
<path d="M136.594 107.926C137.592 106.824 138.21 103.759 137.447 102.394C136.777 102.811 137.032 104.976 136.904 105.729C136.804 106.319 136.769 107.655 136.471 108.131C136.382 107.714 136.423 107.272 136.341 106.845C136.114 105.659 135.422 104.505 134.872 103.447C134.509 102.75 134.067 101.432 133.351 101.017C133.133 102.427 134.316 103.951 134.948 105.118C135.442 106.029 135.919 107.035 136.503 107.888C135.713 107.372 134.8 107.238 133.916 106.948C133.253 106.73 132.385 106.267 131.669 106.481C132.091 107.354 133.702 107.681 134.584 107.71C135.269 107.732 136.011 107.591 136.661 107.635C135.297 108.611 132.595 108.915 131.785 110.564C132.903 110.045 133.999 109.908 135.07 109.201C135.563 108.876 136.138 108.561 136.521 108.122C136.092 109.892 134.77 111.695 135.985 113.459C137.446 112.016 137.035 109.771 136.909 107.92C137.558 109.101 139.658 113.533 141.373 112.101C140.593 110.274 138.144 108.929 136.48 107.999C138.017 107.748 140.592 108.304 140.451 105.906C138.47 105.568 137.882 107.218 136.469 108.084C136.9 107.577 136.743 105.9 136.647 105.27C136.559 104.692 136.255 104.236 135.951 103.746C135.28 104.891 135.864 107.092 136.179 108.301C135.846 107.7 134.638 105.54 133.732 105.992C133.932 106.977 135.551 108.234 136.574 108.157C135.979 108.578 135.304 109.439 135.017 110.087C135.886 109.669 136.116 109.194 136.555 108.409C136.77 109.48 137.502 110.547 138.111 111.445C138.103 110.323 137.61 108.812 137.076 107.81C137.539 108.712 138.763 109.568 139.776 108.963C139.324 107.943 137.791 107.786 136.832 107.627C137.756 107.161 138.226 106.203 138.289 105.212C137.524 106.071 137.027 107.265 136.594 107.926Z" fill="#E9E5D9"/>
<path d="M71.3763 141.901L75.3467 137.398L69.124 139.916L71.3763 141.901Z" fill="#FA6564"/>
<path d="M78.4312 72.8045L84.3272 70.8386L80.3962 68.8735L78.4312 72.8045Z" fill="#FBBE68"/>
<path d="M91.9688 114.893L86.9673 112.774L88.4086 116.335L91.9688 114.893Z" fill="#FA6564"/>
<path d="M94.1293 97.9309L89.8931 98.1975L91.8779 95.9453L94.1293 97.9309Z" fill="#FA6564"/>
<path d="M20.8469 55.4681L16.6099 55.7348L18.5955 53.4833L20.8469 55.4681Z" fill="#FA6564"/>
<path d="M43.3525 58.4256L46.355 55.424V58.4256H43.3525Z" fill="#FA6564"/>
<path d="M58.3628 99.698L61.3645 96.6963V99.698H58.3628Z" fill="#FA6564"/>
<path d="M37.7432 51.9395L42.904 56.2318L40.4924 50.7341L37.7432 51.9395Z" fill="#FBBE68"/>
<path d="M147.567 58.0762L149.766 51.7344L145.47 55.928L147.567 58.0762Z" fill="#FBBE68"/>
<path d="M43.3525 77.3807H49.3567L43.3525 74.3783V77.3807Z" fill="#FA6564"/>
<path d="M118.401 87.887V93.8911L121.403 87.887H118.401Z" fill="#FA6564"/>
<path d="M8.83057 146.534V152.538L11.8322 146.534H8.83057Z" fill="#FA6564"/>
<path d="M73.0928 120.839L77.6004 118.587L74.5948 116.335L73.0928 120.839Z" fill="#FBBE68"/>
<path d="M5.84082 87.1533L11.8205 84.8853L7.83431 82.6173L5.84082 87.1533Z" fill="#FA6564"/>
<path d="M64.3667 71.3766L61.3643 68.3749H64.3667V71.3766Z" fill="#FA6564"/>
<path d="M25.9375 73.7827L30.7488 68.9705V73.7827H25.9375Z" fill="#FBBE68"/>
<path d="M25.3413 130.664L28.3438 122.851V130.664H25.3413Z" fill="#FBBE68"/>
<path d="M49.3567 111.903L46.355 108.901H49.3567V111.903Z" fill="#FA6564"/>
<path d="M74.5986 89.3882L80.602 86.3865H74.5986V89.3882Z" fill="#FBBE68"/>
<path d="M37.3491 149.535L43.3524 146.534H37.3491V149.535Z" fill="#FBBE68"/>
<path d="M40.3511 94.6413L46.3552 91.6396H40.3511V94.6413Z" fill="#FBBE68"/>
<path d="M20.2292 101.199L17.2275 95.1959V101.199H20.2292Z" fill="#FBBE68"/>
<path d="M104.133 103.226L100.163 107.73L106.384 105.211L104.133 103.226Z" fill="#FA6564"/>
<path d="M93.1308 185.64L84.125 188.642L90.1291 191.644L93.1308 185.64Z" fill="#FBBE68"/>
<path d="M83.5405 130.234L88.5412 132.353L87.0999 128.792L83.5405 130.234Z" fill="#FA6564"/>
<path d="M81.3789 147.196L85.616 146.93L83.6312 149.182L81.3789 147.196Z" fill="#FA6564"/>
<path d="M154.662 189.659L158.898 189.392L156.914 191.644L154.662 189.659Z" fill="#FA6564"/>
<path d="M102.66 161.657L106.897 161.39L104.912 163.642L102.66 161.657Z" fill="#FA6564"/>
<path d="M108.141 191.644L105.138 194.646V191.644H108.141Z" fill="#FA6564"/>
<path d="M117.147 145.428L114.144 148.431V145.428H117.147Z" fill="#FA6564"/>
<path d="M130.655 191.644L124.651 194.646H130.655V191.644Z" fill="#FBBE68"/>
<path d="M103.571 63.2906L97.5664 66.2931H103.571V63.2906Z" fill="#FBBE68"/>
<path d="M132.156 167.746H126.152L132.156 170.748V167.746Z" fill="#FA6564"/>
<path d="M164.903 69.1638H158.898L164.903 72.1655V69.1638Z" fill="#FA6564"/>
<path d="M23.8485 196.289H17.8452L23.8485 199.292V196.289Z" fill="#FA6564"/>
<path d="M57.1076 157.24V151.236L54.106 157.24H57.1076Z" fill="#FA6564"/>
<path d="M166.677 98.5936V92.5894L163.676 98.5936H166.677Z" fill="#FA6564"/>
<path d="M102.417 124.288L97.9092 126.54L100.914 128.792L102.417 124.288Z" fill="#FBBE68"/>
<path d="M169.667 157.974L163.688 160.242L167.674 162.51L169.667 157.974Z" fill="#FA6564"/>
<path d="M73.3601 176.546L67.3804 178.813L71.3666 181.082L73.3601 176.546Z" fill="#FA6564"/>
<path d="M111.142 173.75L114.144 176.752H111.142V173.75Z" fill="#FA6564"/>
<path d="M149.808 55.424L152.809 58.4256H149.808V55.424Z" fill="#FA6564"/>
<path d="M170.852 193.288L173.853 196.289H170.852V193.288Z" fill="#FA6564"/>
<path d="M172.353 163.77L175.355 166.772H172.353V163.77Z" fill="#FA6564"/>
<path d="M56.4478 175.045L59.4494 178.047H56.4478V175.045Z" fill="#FA6564"/>
<path d="M149.572 171.344L144.76 176.157V171.344H149.572Z" fill="#FBBE68"/>
<path d="M150.167 114.463L147.166 122.276V114.463H150.167Z" fill="#FBBE68"/>
<path d="M126.152 133.224L129.154 136.226H126.152V133.224Z" fill="#FA6564"/>
<path d="M100.91 155.739L94.9062 158.741H100.91V155.739Z" fill="#FBBE68"/>
<path d="M138.16 95.5919L132.156 98.5936H138.16V95.5919Z" fill="#FBBE68"/>
<path d="M135.158 150.486L129.154 153.487H135.158V150.486Z" fill="#FBBE68"/>
<path d="M53.8596 169.248L47.8555 172.249H53.8596V169.248Z" fill="#FBBE68"/>
<path d="M155.279 143.928L158.282 149.931V143.928H155.279Z" fill="#FBBE68"/>
<path d="M58.8545 194.789L61.8562 200.792V194.789H58.8545Z" fill="#FBBE68"/>
<path d="M126.152 56.485L129.154 62.4883V56.485H126.152Z" fill="#FBBE68"/>
<path d="M172.353 131.723L175.355 137.727V131.723H172.353Z" fill="#FBBE68"/>
<path d="M23.8408 170.748L26.8425 176.752V170.748H23.8408Z" fill="#FBBE68"/>
<path d="M141.58 127.412C128.142 130.801 115.387 129.089 103.318 122.275L128.614 78.9293L141.58 127.412Z" fill="#3A4D57"/>
<path d="M132.348 97.4679C132.43 96.8676 132.04 96.369 131.435 96.3004C130.864 96.2357 130.373 96.6183 130.296 97.1878C130.217 97.7819 130.613 98.2883 131.213 98.3562C131.789 98.4216 132.27 98.0453 132.348 97.4679Z" fill="#6498AF"/>
<path d="M130.216 105.234C130.817 105.336 131.333 104.966 131.421 104.37C131.506 103.791 131.151 103.295 130.582 103.197C129.985 103.096 129.459 103.471 129.372 104.061C129.289 104.632 129.651 105.137 130.216 105.234Z" fill="#6498AF"/>
<path d="M129.408 85.5086C128.812 85.4273 128.308 85.8217 128.24 86.4244C128.175 86.9987 128.553 87.4839 129.128 87.5628C129.724 87.644 130.228 87.2496 130.295 86.6469C130.361 86.0718 129.982 85.5867 129.408 85.5086Z" fill="#6498AF"/>
<path d="M131.958 91.4322L131.499 89.718C131.351 89.8726 131.249 90.0753 131.219 90.3136C131.154 90.8405 131.465 91.2934 131.958 91.4322Z" fill="#6498AF"/>
<path d="M126.598 124.726C126.512 125.322 126.904 125.83 127.503 125.903C128.102 125.975 128.595 125.576 128.655 124.969C128.712 124.394 128.326 123.92 127.745 123.85C127.173 123.781 126.68 124.158 126.598 124.726Z" fill="#6498AF"/>
<path d="M128.738 116.972C128.142 116.868 127.614 117.24 127.524 117.83C127.437 118.401 127.799 118.909 128.362 119.007C128.962 119.112 129.481 118.744 129.571 118.149C129.66 117.57 129.306 117.071 128.738 116.972Z" fill="#6498AF"/>
<path d="M127.305 101.34C127.9 101.408 128.393 100.999 128.449 100.394C128.502 99.8219 128.109 99.3446 127.531 99.2791C126.936 99.2113 126.442 99.6199 126.386 100.225C126.334 100.796 126.727 101.274 127.305 101.34Z" fill="#6498AF"/>
<path d="M128.487 92.3962C127.913 92.3157 127.416 92.681 127.324 93.2506C127.226 93.8517 127.6 94.3629 128.2 94.4465C128.778 94.527 129.271 94.1665 129.364 93.5953C129.459 92.9965 129.081 92.479 128.487 92.3962Z" fill="#6498AF"/>
<path d="M123.626 120.788C123.524 121.388 123.894 121.905 124.49 121.992C125.069 122.078 125.565 121.723 125.662 121.153C125.764 120.555 125.391 120.034 124.799 119.945C124.224 119.86 123.723 120.22 123.626 120.788Z" fill="#6498AF"/>
<path d="M125.705 113.056C125.131 112.98 124.638 113.348 124.549 113.92C124.456 114.519 124.837 115.032 125.434 115.111C126.008 115.187 126.501 114.819 126.59 114.247C126.683 113.649 126.301 113.135 125.705 113.056Z" fill="#6498AF"/>
<path d="M126.629 106.169C126.054 106.093 125.561 106.461 125.473 107.032C125.383 107.61 125.734 108.112 126.301 108.213C126.901 108.32 127.422 107.954 127.515 107.36C127.608 106.762 127.226 106.248 126.629 106.169Z" fill="#6498AF"/>
<path d="M129.626 110.08C129.053 109.997 128.547 110.36 128.451 110.922C128.351 111.515 128.731 112.039 129.324 112.125C129.903 112.21 130.398 111.853 130.493 111.283C130.594 110.681 130.223 110.166 129.626 110.08Z" fill="#6498AF"/>
<path d="M137.397 122.66C137.308 123.238 137.662 123.738 138.229 123.838C138.829 123.943 139.348 123.575 139.439 122.98C139.531 122.381 139.147 121.869 138.55 121.792C137.977 121.718 137.484 122.089 137.397 122.66Z" fill="#6498AF"/>
<path d="M138.735 116.776L138.398 115.516C138.361 115.605 138.331 115.699 138.318 115.801C138.266 116.205 138.435 116.564 138.735 116.776Z" fill="#6498AF"/>
<path d="M130.791 127.761C130.198 127.659 129.667 128.038 129.58 128.626C129.556 128.786 129.57 128.941 129.612 129.083C130.278 129.067 130.945 129.041 131.614 128.998C131.618 128.978 131.626 128.959 131.629 128.938C131.716 128.364 131.356 127.859 130.791 127.761Z" fill="#6498AF"/>
<path d="M124.738 128.039C124.839 127.441 124.465 126.92 123.872 126.833C123.297 126.749 122.797 127.108 122.701 127.677C122.61 128.215 122.905 128.688 123.397 128.841C123.548 128.857 123.699 128.871 123.849 128.885C124.298 128.835 124.658 128.511 124.738 128.039Z" fill="#6498AF"/>
<path d="M135.573 117.889C134.999 117.814 134.5 118.182 134.412 118.749C134.319 119.345 134.704 119.859 135.302 119.939C135.878 120.015 136.371 119.649 136.46 119.079C136.554 118.481 136.172 117.968 135.573 117.889Z" fill="#6498AF"/>
<path d="M133.277 101.089C133.195 101.683 133.592 102.195 134.189 102.263C134.422 102.29 134.638 102.242 134.821 102.139L134.303 100.201C133.785 100.198 133.351 100.562 133.277 101.089Z" fill="#6498AF"/>
<path d="M134.402 108.286C134.492 107.714 134.136 107.204 133.574 107.102C132.982 106.995 132.448 107.37 132.355 107.957C132.266 108.528 132.626 109.038 133.188 109.138C133.787 109.245 134.309 108.879 134.402 108.286Z" fill="#6498AF"/>
<path d="M131.376 122.917C131.976 123.006 132.482 122.624 132.559 122.022C132.631 121.451 132.257 120.956 131.688 120.871C131.093 120.782 130.576 121.174 130.502 121.768C130.431 122.339 130.806 122.833 131.376 122.917Z" fill="#6498AF"/>
<path d="M136.546 111.009C135.948 110.906 135.426 111.279 135.338 111.871C135.252 112.446 135.611 112.948 136.178 113.045C136.776 113.148 137.298 112.775 137.387 112.183C137.473 111.608 137.114 111.107 136.546 111.009Z" fill="#6498AF"/>
<path d="M132.301 116.033C132.877 116.118 133.377 115.76 133.475 115.191C133.577 114.595 133.202 114.071 132.61 113.983C132.04 113.899 131.528 114.264 131.432 114.825C131.331 115.414 131.714 115.946 132.301 116.033Z" fill="#6498AF"/>
<path d="M133.491 125.628C133.394 126.225 133.773 126.741 134.369 126.824C134.947 126.905 135.442 126.543 135.535 125.973C135.632 125.377 135.253 124.86 134.657 124.777C134.078 124.697 133.584 125.059 133.491 125.628Z" fill="#6498AF"/>
<path d="M105.939 121.949C105.85 122.547 106.238 123.054 106.84 123.128C107.413 123.199 107.905 122.825 107.989 122.255C108.077 121.657 107.689 121.15 107.088 121.076C106.515 121.006 106.022 121.379 105.939 121.949Z" fill="#6498AF"/>
<path d="M121.305 93.5196C121.906 93.6071 122.41 93.2222 122.484 92.6195C122.554 92.0483 122.177 91.5545 121.608 91.4716C121.499 91.4559 121.394 91.4606 121.292 91.4756L120.483 92.8609C120.608 93.2048 120.907 93.462 121.305 93.5196Z" fill="#6498AF"/>
<path d="M116.816 101.348C116.219 101.243 115.69 101.614 115.6 102.203C115.511 102.774 115.872 103.283 116.434 103.383C117.034 103.489 117.555 103.122 117.646 102.528C117.736 101.949 117.383 101.449 116.816 101.348Z" fill="#6498AF"/>
<path d="M115.842 108.229C115.267 108.15 114.766 108.515 114.676 109.082C114.58 109.676 114.963 110.194 115.559 110.276C116.137 110.356 116.629 109.994 116.721 109.422C116.817 108.821 116.442 108.312 115.842 108.229Z" fill="#6498AF"/>
<path d="M112.828 122.844C112.726 123.435 113.106 123.961 113.697 124.049C114.276 124.134 114.773 123.779 114.87 123.21C114.968 122.634 114.623 122.122 114.063 122.013C113.469 121.898 112.927 122.262 112.828 122.844Z" fill="#6498AF"/>
<path d="M114.929 115.117C114.331 115.03 113.818 115.419 113.747 116.015C113.675 116.609 114.079 117.109 114.681 117.17C115.256 117.228 115.731 116.845 115.802 116.264C115.873 115.687 115.504 115.202 114.929 115.117Z" fill="#6498AF"/>
<path d="M113.741 105.507C113.786 105.211 113.715 104.938 113.56 104.726L112.601 106.37C113.17 106.436 113.653 106.078 113.741 105.507Z" fill="#6498AF"/>
<path d="M117.866 127.016C117.918 126.448 117.519 125.967 116.944 125.903C116.375 125.839 115.881 126.225 115.804 126.793C115.77 127.046 115.827 127.282 115.946 127.477C116.418 127.601 116.89 127.718 117.365 127.829C117.64 127.667 117.834 127.377 117.866 127.016Z" fill="#6498AF"/>
<path d="M110.101 124.984C109.788 124.937 109.501 125.025 109.285 125.202C109.844 125.437 110.405 125.66 110.968 125.873C110.916 125.418 110.584 125.056 110.101 124.984Z" fill="#6498AF"/>
<path d="M111.93 111.207C111.356 111.131 110.863 111.499 110.774 112.071C110.681 112.67 111.062 113.183 111.659 113.262C112.233 113.338 112.726 112.97 112.815 112.398C112.908 111.799 112.527 111.286 111.93 111.207Z" fill="#6498AF"/>
<path d="M141.129 125.725C140.735 125.824 140.432 126.146 140.372 126.584C140.314 127.006 140.5 127.386 140.828 127.593C141.079 127.533 141.329 127.476 141.58 127.412L141.129 125.725Z" fill="#6498AF"/>
<path d="M109.844 119C109.774 119.577 110.145 120.061 110.721 120.144C111.323 120.231 111.824 119.847 111.897 119.242C111.967 118.67 111.591 118.178 111.021 118.096C110.422 118.009 109.917 118.398 109.844 119Z" fill="#6498AF"/>
<path d="M108.914 115.367C109 114.777 108.622 114.278 108.035 114.194L107.064 115.857C107.226 116.062 107.471 116.205 107.767 116.242C108.339 116.312 108.831 115.937 108.914 115.367Z" fill="#6498AF"/>
<path d="M122.716 109.152C122.141 109.079 121.648 109.45 121.562 110.02C121.472 110.618 121.857 111.126 122.458 111.203C123.033 111.276 123.526 110.905 123.612 110.335C123.703 109.736 123.318 109.228 122.716 109.152Z" fill="#6498AF"/>
<path d="M119.715 123.787C119.625 124.361 119.982 124.868 120.546 124.968C121.144 125.075 121.669 124.708 121.762 124.116C121.852 123.543 121.495 123.035 120.931 122.934C120.332 122.828 119.807 123.195 119.715 123.787Z" fill="#6498AF"/>
<path d="M126.135 83.6515C126.711 83.7352 127.211 83.377 127.308 82.809C127.376 82.4051 127.22 82.0383 126.93 81.815L125.896 83.5861C125.971 83.6152 126.05 83.6389 126.135 83.6515Z" fill="#6498AF"/>
<path d="M121.791 116.039C121.218 115.966 120.721 116.339 120.636 116.907C120.547 117.504 120.934 118.013 121.534 118.09C122.108 118.162 122.601 117.792 122.687 117.222C122.777 116.623 122.393 116.115 121.791 116.039Z" fill="#6498AF"/>
<path d="M121.56 99.5032C121.629 98.932 121.25 98.4398 120.679 98.3585C120.084 98.2741 119.571 98.6693 119.501 99.2649C119.435 99.8353 119.815 100.329 120.385 100.41C120.979 100.496 121.488 100.104 121.56 99.5032Z" fill="#6498AF"/>
<path d="M123.377 104.315C123.954 104.392 124.447 104.026 124.536 103.455C124.63 102.858 124.247 102.345 123.648 102.267C123.073 102.191 122.575 102.559 122.486 103.126C122.394 103.721 122.779 104.236 123.377 104.315Z" fill="#6498AF"/>
<path d="M117.917 119.022C117.323 118.931 116.803 119.321 116.728 119.913C116.655 120.484 117.028 120.98 117.597 121.066C118.198 121.158 118.705 120.778 118.784 120.176C118.858 119.605 118.486 119.109 117.917 119.022Z" fill="#6498AF"/>
<path d="M124.55 95.3758C123.976 95.3103 123.49 95.6882 123.411 96.2617C123.329 96.8581 123.723 97.3622 124.325 97.4308C124.899 97.4963 125.385 97.1184 125.465 96.5449C125.546 95.9485 125.153 95.4444 124.55 95.3758Z" fill="#6498AF"/>
<path d="M119.425 107.29C120.024 107.392 120.541 107.02 120.629 106.425C120.715 105.85 120.354 105.348 119.788 105.251C119.196 105.15 118.665 105.53 118.579 106.119C118.496 106.691 118.859 107.194 119.425 107.29Z" fill="#6498AF"/>
<path d="M118.813 112.131C118.242 112.057 117.741 112.433 117.655 112.998C117.566 113.592 117.955 114.11 118.55 114.187C119.145 114.263 119.648 113.862 119.712 113.261C119.774 112.691 119.387 112.204 118.813 112.131Z" fill="#6498AF"/>
<path d="M125.514 88.4937C124.915 88.4069 124.404 88.7958 124.332 89.393C124.261 89.987 124.666 90.4864 125.268 90.5463C125.842 90.6039 126.321 90.2166 126.392 89.6391C126.461 89.0672 126.085 88.5765 125.514 88.4937Z" fill="#6498AF"/>
<path d="M128.443 79.2717C129.936 77.4746 131.974 74.8571 134.459 74.3546C133.862 76.3126 130.942 78.426 129.183 79.3908C130.942 78.6698 134.432 78.4331 136.142 79.1944C134.178 80.5852 130.59 79.1628 128.299 79.6227C130.955 79.857 132.37 81.2833 134.096 83.0717C132.097 82.2481 130.658 80.2933 128.816 79.3308C129.354 81.0001 130.116 83.033 129.996 84.8301C128.87 84.1035 128.412 80.5568 128.448 79.2946C127.363 81.2652 126.249 83.6428 123.926 84.0168C124.043 82.4619 126.358 81.7756 127.377 80.9268C127.998 80.4092 128.398 79.7624 128.73 79.0974C126.92 81.0782 123.919 81.4285 121.426 81.6202C122.613 78.213 126.356 79.1131 128.999 79.4681C127.007 79.3324 123.912 78.8252 122.619 77.309C124.737 76.6108 127.375 77.6458 128.657 79.3908C128.267 77.8162 126.75 76.2771 127.362 74.5266C127.699 73.5594 128.539 72.7627 129.238 73.55C130.48 74.9471 128.988 78.1688 128.443 79.2717Z" fill="#FBBE68"/>
<path d="M50.5896 138.965H44.333L47.4609 135.837L50.5896 138.965Z" fill="#FBBE68"/>
<path d="M123.148 147.962C104.128 155.57 85.108 155.57 66.0874 147.962L94.6179 79.4894L123.148 147.962Z" fill="#FBBE68"/>
<path d="M94.4531 79.8862C94.5312 79.8081 94.6085 79.7307 94.6866 79.6526L94.6188 79.4893L94.4531 79.8862Z" fill="#FA6564"/>
<path d="M99.4608 111.178C101.427 109.211 103.397 107.246 105.364 105.279L104.718 103.728C102.027 106.421 99.3385 109.116 96.6469 111.807C87.8036 120.65 78.954 129.484 70.106 138.322L68.499 142.179C78.8183 131.845 89.1329 121.505 99.4608 111.178Z" fill="#FA6564"/>
<path d="M90.8469 88.5401L89.2471 92.3796C91.7746 89.8528 94.3022 87.3245 96.829 84.7969L96.1718 83.2199C94.3976 84.9933 92.6219 86.7667 90.8469 88.5401Z" fill="#FA6564"/>
<path d="M89.5444 104.359C86.527 107.376 83.5056 110.39 80.4866 113.406L78.9072 117.196C83.0812 113.017 87.2527 108.835 91.4291 104.658C94.6461 101.441 97.867 98.2291 101.086 95.0136L100.436 93.4532C96.8052 97.0876 93.1772 100.726 89.5444 104.359Z" fill="#FA6564"/>
<path d="M85.669 100.969L84.062 104.826C85.4694 103.42 86.8775 102.014 88.2849 100.608C91.8466 97.0481 95.4053 93.4856 98.9662 89.9246L98.3067 88.3421C94.0941 92.5508 89.8808 96.7586 85.669 100.969Z" fill="#FA6564"/>
<path d="M102.875 115.004C104.414 113.465 105.955 111.929 107.494 110.39L106.905 108.974C93.7541 122.145 80.6052 135.314 67.4507 148.489C67.9311 148.672 68.4116 148.849 68.892 149.022C80.2202 137.684 91.5406 126.338 102.875 115.004Z" fill="#FA6564"/>
<path d="M73.708 129.675C80.6525 122.739 87.5993 115.804 94.5398 108.863C97.439 105.964 100.334 103.063 103.232 100.163L102.579 98.5951C99.4182 101.759 96.2604 104.924 93.0986 108.086C87.1647 114.019 81.2268 119.948 75.2905 125.878L73.708 129.675Z" fill="#FA6564"/>
<path d="M108.131 117.017C108.631 116.517 109.13 116.017 109.63 115.516L109.055 114.135C96.9805 126.213 84.9147 138.281 72.856 150.344C73.3664 150.499 73.8767 150.648 74.3871 150.793C85.6341 139.535 96.8804 128.274 108.131 117.017Z" fill="#FA6564"/>
<path d="M120.319 141.173L119.731 139.761C115.442 144.039 111.142 148.33 106.844 152.618C107.7 152.471 108.557 152.307 109.414 152.129C113.047 148.475 116.679 144.819 120.319 141.173Z" fill="#FA6564"/>
<path d="M118.183 136.044L117.667 134.805C111.407 141.052 105.153 147.294 98.8994 153.535C99.5629 153.495 100.226 153.446 100.889 153.387C106.65 147.602 112.412 141.818 118.183 136.044Z" fill="#FA6564"/>
<path d="M122.449 146.284L121.866 144.885C120.057 146.7 118.249 148.513 116.44 150.326C117.417 150.027 118.394 149.71 119.371 149.371C120.397 148.342 121.421 147.312 122.449 146.284Z" fill="#FA6564"/>
<path d="M109.92 122.508C110.537 121.891 111.154 121.273 111.771 120.656L111.156 119.18C100.268 130.058 89.3709 140.945 78.4663 151.839C79.0682 151.976 79.6693 152.105 80.2705 152.225C90.1393 142.304 100.029 132.406 109.92 122.508Z" fill="#FA6564"/>
<path d="M116.041 130.905L115.451 129.488C107.409 137.517 99.3613 145.551 91.3101 153.589C91.9924 153.621 92.674 153.64 93.3556 153.653C100.912 146.065 108.474 138.481 116.041 130.905Z" fill="#FA6564"/>
<path d="M113.91 125.788L113.363 124.476C103.846 133.98 94.3322 143.481 84.812 152.988C85.3926 153.068 85.974 153.141 86.5546 153.207C95.6582 144.054 104.783 134.92 113.91 125.788Z" fill="#FA6564"/>
<path d="M94.3456 78.9545C93.2238 80.4636 91.893 81.841 90.675 83.2917C89.4404 84.7622 87.5637 87.2282 87.3838 89.2107C90.7231 88.7918 91.841 85.8501 92.7963 83.0464C93.1032 82.1463 93.1962 79.547 94.3993 79.1565C94.5823 80.1307 94.4198 81.1405 94.6896 82.1502C95.0596 83.5355 95.5739 84.6581 96.4014 85.8193C96.7383 86.2918 98.148 88.7547 99.168 87.6463C100.375 86.3352 96.9907 82.45 96.3707 81.2517C95.9391 80.4179 95.5976 79.2637 94.6343 78.8669C95.9991 80.2577 96.8282 81.8891 98.6284 82.8342C100.195 83.6562 101.581 83.9962 103.352 83.9465C102.949 81.781 99.5656 80.8044 97.8151 80.1583C96.7706 79.7734 95.3948 79.5154 94.5444 78.7675C96.2066 79.2046 98.1693 79.1667 99.8812 79.1391C100.993 79.1217 102.596 79.1415 103.608 78.6902C104.309 76.0333 95.9376 78.1293 94.7148 78.5916C95.1897 78.4299 95.7782 78.015 96.2366 77.7657C98.8659 76.3347 101.581 75.0709 104.125 73.4821C104.93 72.9796 106.082 72.4013 106.476 71.4799C104.65 71.2606 102.188 72.3153 100.575 73.0995C99.4875 73.6272 98.3555 74.4634 97.5106 75.3359C96.392 76.4909 95.4658 77.5724 94.6903 78.9458C94.8505 76.9681 96.3525 75.2145 96.4945 73.1468C96.5813 71.8791 96.2768 70.6406 96.0259 69.4091C95.5597 70.026 95.2781 70.9395 95.1369 71.7402C94.8592 73.3125 94.3622 74.891 94.1263 76.4585C93.9898 77.3641 94.1326 78.34 94.6201 79.117C94.6462 76.6234 92.2582 74.2552 90.1449 73.2683C90.4288 75.4882 91.8993 78.3384 94.2368 78.9498C92.3648 79.6337 88.8527 80.1583 88.5529 82.5975C89.995 82.7245 90.9377 82.2449 91.8622 81.2722C92.6243 80.4707 93.6112 79.9043 94.4324 79.1533C93.1 81.2036 92.8018 83.7793 93.8849 85.9668C93.9165 85.3034 94.363 84.774 94.5239 84.139C94.7172 83.3762 94.7661 82.4066 94.7061 81.6138C94.5973 80.1654 94.3433 78.7352 94.3456 77.2592" fill="#3A4D57"/>
<path d="M75.9563 152.561C63.4463 161.82 49.469 165.489 34.0244 163.566L41.7854 107.745L75.9563 152.561Z" fill="#3A4D57"/>
<path d="M41.7397 108.068C41.7816 107.996 41.8242 107.924 41.866 107.852L41.7847 107.745L41.7397 108.068Z" fill="#6498AF"/>
<path d="M51.454 130.097C52.5206 128.273 53.5879 126.449 54.6545 124.624L53.8806 123.609C52.4228 126.106 50.9665 128.606 49.5079 131.103C44.7147 139.307 39.9151 147.506 35.1172 155.707L34.6802 158.851C40.2709 149.266 45.8562 139.678 51.454 130.097Z" fill="#6498AF"/>
<path d="M40.7587 115.123L40.3232 118.252C41.6935 115.908 43.063 113.562 44.4333 111.218L43.646 110.185C42.6836 111.832 41.7211 113.477 40.7587 115.123Z" fill="#6498AF"/>
<path d="M42.8519 126.999C41.2166 129.798 39.5773 132.595 37.9404 135.394L37.5112 138.484C39.7721 134.607 42.0315 130.73 44.2956 126.856C46.039 123.872 47.7871 120.89 49.5321 117.906L48.7535 116.884C46.7853 120.255 44.821 123.629 42.8519 126.999Z" fill="#6498AF"/>
<path d="M39.3501 125.255L38.9131 128.4C39.6759 127.095 40.4396 125.79 41.2032 124.485C43.1344 121.182 45.0624 117.878 46.9927 114.575L46.2031 113.539C43.9177 117.444 41.6339 121.349 39.3501 125.255Z" fill="#FBBE68"/>
<path d="M54.7008 132.251C55.5347 130.823 56.3709 129.397 57.2055 127.97L56.4994 127.044C49.3759 139.259 42.2524 151.472 35.1265 163.691C35.5146 163.733 35.9019 163.77 36.2885 163.804C42.4267 153.287 48.5578 142.765 54.7008 132.251Z" fill="#FBBE68"/>
<path d="M36.0967 148.657C39.8628 142.221 43.6297 135.784 47.3918 129.346C48.9633 126.656 50.5315 123.965 52.1014 121.275L51.3188 120.249C49.6062 123.183 47.8959 126.118 46.1817 129.052C42.9654 134.556 39.7452 140.058 36.5266 145.562L36.0967 148.657Z" fill="#FBBE68"/>
<path d="M58.9515 132.716C59.2221 132.252 59.4935 131.789 59.7641 131.325L59.0746 130.421C52.5309 141.624 45.9919 152.821 39.4561 164.01C39.8607 164.026 40.2647 164.037 40.6678 164.045C46.7626 153.603 52.8551 143.159 58.9515 132.716Z" fill="#6498AF"/>
<path d="M72.5671 148.117L71.8626 147.192C69.5362 151.163 67.2035 155.146 64.8716 159.126C65.4727 158.853 66.0707 158.567 66.6663 158.271C68.6314 154.885 70.5957 151.499 72.5671 148.117Z" fill="#FBBE68"/>
<path d="M70.0083 144.76L69.3906 143.95C65.9953 149.748 62.6031 155.541 59.2109 161.333C59.6906 161.176 60.1686 161.012 60.6443 160.841C63.7619 155.478 66.8804 150.117 70.0083 144.76Z" fill="#6498AF"/>
<path d="M75.1183 151.462L74.4202 150.547C73.4404 152.229 72.4614 153.91 71.4824 155.592C72.1427 155.184 72.7998 154.762 73.4522 154.324C74.0076 153.371 74.5614 152.416 75.1183 151.462Z" fill="#6498AF"/>
<path d="M61.326 136.406C61.6605 135.833 61.9949 135.261 62.3286 134.689L61.5918 133.722C55.6887 143.816 49.78 153.918 43.8682 164.027C44.3368 164.011 44.803 163.99 45.2684 163.963C50.6075 154.769 55.9664 145.587 61.326 136.406Z" fill="#FBBE68"/>
<path d="M67.4435 141.396L66.7367 140.469C62.375 147.92 58.011 155.376 53.6445 162.836C54.1518 162.728 54.6567 162.611 55.16 162.488C59.2495 155.455 63.3438 148.424 67.4435 141.396Z" fill="#FBBE68"/>
<path d="M64.8897 138.048L64.2349 137.189C59.0741 146.009 53.9148 154.825 48.7524 163.648C49.195 163.595 49.6352 163.536 50.0754 163.472C55.0003 154.99 59.9442 146.518 64.8897 138.048Z" fill="#6498AF"/>
<path d="M41.79 107.778C40.7921 106.676 40.1736 103.611 40.9357 102.246C41.6054 102.663 41.3506 104.828 41.4784 105.581C41.5786 106.171 41.6141 107.506 41.9115 107.983C42.0007 107.565 41.9596 107.124 42.0417 106.697C42.2689 105.511 42.9607 104.356 43.5106 103.298C43.8727 102.601 44.316 101.283 45.0323 100.868C45.25 102.278 44.0667 103.802 43.4348 104.969C42.941 105.88 42.4637 106.886 41.88 107.739C42.6696 107.223 43.5832 107.089 44.4675 106.799C45.1309 106.581 45.9987 106.118 46.7142 106.332C46.2929 107.205 44.6821 107.532 43.8001 107.561C43.1146 107.583 42.3722 107.442 41.7222 107.486C43.0862 108.462 45.7888 108.766 46.5982 110.415C45.4804 109.896 44.3847 109.759 43.3134 109.052C42.8203 108.727 42.246 108.412 41.8626 107.973C42.2918 109.743 43.6139 111.546 42.3991 113.31C40.9381 111.867 41.3483 109.622 41.4745 107.771C40.826 108.952 38.7253 113.384 37.0103 111.952C37.7905 110.125 40.2399 108.78 41.9036 107.85C40.3669 107.599 37.7912 108.155 37.9324 105.757C39.9133 105.419 40.5018 107.069 41.9147 107.935C41.4839 107.427 41.6401 105.75 41.7372 105.12C41.8255 104.543 42.1293 104.087 42.433 103.596C43.1035 104.741 42.5198 106.941 42.205 108.151C42.5379 107.551 43.7457 105.391 44.6521 105.842C44.4517 106.826 42.8329 108.085 41.8098 108.007C42.4046 108.429 43.0798 109.289 43.3662 109.938C42.4977 109.519 42.2673 109.045 41.8287 108.259C41.6141 109.331 40.882 110.398 40.273 111.296C40.2809 110.174 40.7732 108.662 41.3073 107.661C40.845 108.563 39.6206 109.419 38.6077 108.814C39.0597 107.794 40.5925 107.637 41.5518 107.478C40.6272 107.012 40.1579 106.054 40.094 105.063C40.8592 105.923 41.3562 107.117 41.79 107.778Z" fill="#FBBE68"/>
<path d="M79.3848 86.7912C79.3848 95.6014 72.2423 104.786 63.4321 104.786C54.622 104.786 47.4795 95.6014 47.4795 86.7912C47.4795 77.981 54.622 70.8386 63.4321 70.8386C72.2423 70.8386 79.3848 77.981 79.3848 86.7912Z" fill="#3A4D57"/>
<path d="M50.8387 89.9498C50.2163 89.9561 49.8361 90.3427 49.8439 90.9896C49.8518 91.6404 50.2629 92.012 50.8703 92.0041C51.4785 91.9962 51.8469 91.6017 51.8879 90.9533C51.824 90.323 51.4564 89.9435 50.8387 89.9498ZM55.9325 95.0909C55.3116 95.158 54.9598 95.5114 54.9811 96.1512C55.0024 96.8004 55.4134 97.1499 56.0311 97.1262C56.6512 97.1026 57.0322 96.7081 57.0038 96.0699C56.9754 95.4365 56.5873 95.1091 55.9325 95.0909ZM50.8695 81.7384C51.4856 81.7274 51.8982 81.3188 51.8848 80.6916C51.8721 80.0708 51.4698 79.7189 50.8182 79.67C50.2084 79.7394 49.8203 80.0936 49.8298 80.7216C49.8392 81.3503 50.251 81.7495 50.8695 81.7384ZM61.083 89.9562C60.4606 90.013 60.1017 90.3608 60.1135 91.0006C60.1254 91.6483 60.5293 92.0064 61.1485 91.993C61.7702 91.9796 62.1567 91.5907 62.1386 90.9525C62.1196 90.3206 61.7386 89.9838 61.083 89.9562ZM61.0925 81.7282C61.7228 81.7455 62.1322 81.3598 62.1464 80.7366C62.1606 80.1212 61.8017 79.7173 61.1501 79.6984C60.4977 79.6795 60.1703 80.0597 60.0812 80.6821C60.1348 81.2998 60.4606 81.7108 61.0925 81.7282ZM71.3574 81.7416C71.9664 81.7597 72.401 81.3732 72.416 80.7397C72.431 80.1149 72.0539 79.7481 71.3794 79.6724C70.7838 79.7094 70.3847 80.0526 70.3634 80.6758C70.3413 81.3046 70.746 81.7234 71.3574 81.7416ZM55.9656 76.5926C56.5912 76.61 56.9446 76.2274 57.0235 75.597C56.9628 74.9833 56.6677 74.5786 56.0145 74.566C55.3692 74.5542 54.9953 74.9139 54.978 75.5497C54.9598 76.1911 55.344 76.576 55.9656 76.5926ZM56.0145 84.8308C55.3748 84.8206 54.9937 85.1795 54.9772 85.8177C54.9606 86.4591 55.3432 86.8432 55.9656 86.8606C56.592 86.878 56.9446 86.4946 57.0227 85.8643C56.962 85.2505 56.6646 84.8411 56.0145 84.8308ZM61.1462 100.234C60.4938 100.217 60.168 100.6 60.0812 101.22C60.1364 101.838 60.4638 102.248 61.0965 102.263C61.7268 102.278 62.1346 101.89 62.1464 101.267C62.1591 100.653 61.7986 100.25 61.1462 100.234ZM76.5332 86.8598C77.1556 86.8551 77.5485 86.4733 77.539 85.8351C77.5295 85.2071 77.1603 84.8261 76.5174 84.8308C75.876 84.8363 75.5439 85.2134 75.5037 85.8508C75.5487 86.4914 75.9107 86.8646 76.5332 86.8598ZM71.3794 89.9506C70.7562 89.9546 70.3744 90.338 70.3784 90.9841C70.3823 91.6349 70.7925 92.0096 71.3984 92.0049C72.0066 92.0001 72.3774 91.6081 72.4216 90.9722C72.3616 90.3301 72.0011 89.9467 71.3794 89.9506ZM75.9431 95.3071C75.6804 95.5572 75.5944 96.092 75.6086 96.4928C75.6157 96.6971 75.9928 96.9519 76.2539 97.0545C76.3573 97.0955 76.6389 96.8146 76.7682 96.6308C76.9947 96.3098 77.1666 95.95 77.4001 95.5382C76.9284 95.0365 76.3825 94.8906 75.9431 95.3071ZM71.4102 100.219C70.7783 100.203 70.4328 100.591 70.3523 101.21C70.3886 101.843 70.7767 102.341 71.3408 102.242C71.7502 102.17 72.2827 101.654 72.3821 101.244C72.5217 100.671 72.0382 100.235 71.4102 100.219ZM66.2809 84.8308C65.6412 84.8214 65.2609 85.1803 65.2452 85.8193C65.2294 86.4606 65.6128 86.844 66.2352 86.8606C66.8616 86.8772 67.2134 86.493 67.2915 85.8627C67.2284 85.2489 66.931 84.8403 66.2809 84.8308ZM66.2139 95.0886C65.6199 95.1383 65.246 95.472 65.246 96.1125C65.246 96.7578 65.6396 97.1278 66.2605 97.127C66.8821 97.1262 67.2773 96.746 67.2718 96.1078C67.2663 95.4767 66.8955 95.1288 66.2139 95.0886ZM66.2636 74.5652C65.6191 74.5676 65.2531 74.9328 65.2467 75.5694C65.2396 76.2132 65.6317 76.5871 66.2526 76.5934C66.8789 76.5997 67.2244 76.21 67.2962 75.5316C67.2063 74.9778 66.92 74.5628 66.2636 74.5652Z" fill="#FBBE68"/>
<path d="M63.4322 104.018L65.3002 107.739H62.002L63.4322 104.018Z" fill="#3A4D57"/>
<path d="M70.1753 136.462C67.6604 135.588 67.52 132.723 67.6328 130.644C67.6762 129.84 67.7259 129.041 67.7756 128.244C67.9097 126.084 68.0477 123.851 68.054 121.619C68.0611 118.934 67.7874 116.72 66.4297 114.65C64.6516 111.937 63.7815 109.128 63.7681 106.062L64.3211 106.059C64.3337 109.015 65.1746 111.726 66.892 114.346C68.3262 116.533 68.6149 118.835 68.607 121.621C68.6007 123.87 68.4619 126.111 68.327 128.279C68.2773 129.075 68.2284 129.872 68.1842 130.675C68.0722 132.736 68.2181 135.197 70.356 135.939L70.1753 136.462Z" fill="#3A4D57"/>
<path d="M124.493 136.468C124.493 145.278 117.351 154.463 108.541 154.463C99.7304 154.463 92.5879 145.278 92.5879 136.468C92.5879 127.658 99.7304 120.516 108.541 120.516C117.351 120.516 124.493 127.657 124.493 136.468Z" fill="#3A4D57"/>
<path d="M124.448 138.707C122.685 141.558 120.026 142.668 117.61 140.135C116.129 138.582 114.69 138.684 113.091 140.17C111.034 142.08 109.405 142.073 107.311 140.145C105.713 138.673 104.578 138.679 102.933 140.169C100.822 142.082 99.2493 142.102 97.1699 140.133C95.9684 138.994 94.6833 138.777 93.1884 139.526C93.1395 139.424 93.0906 139.322 93.0425 139.221C93.3762 139.009 93.6862 138.683 94.0483 138.607C95.3949 138.323 96.5404 138.721 97.5588 139.678C99.5144 141.515 100.575 141.489 102.556 139.677C104.303 138.078 105.956 138.08 107.697 139.684C109.661 141.493 110.709 141.493 112.708 139.684C114.492 138.071 116.222 138.065 118.01 139.664C120.073 141.511 121.044 141.494 123.129 139.625C123.525 139.27 124.006 139.011 124.448 138.707Z" fill="#FBBE68"/>
<path d="M124.234 133.717C122.588 136.696 119.819 137.501 117.581 135.071C116.178 133.549 114.687 133.657 113.159 135.06C110.993 137.048 109.425 137.054 107.289 135.08C105.746 133.654 104.555 133.648 103.004 135.059C100.809 137.054 99.3331 137.081 97.1464 135.07C95.9418 133.961 94.6598 133.715 93.1357 134.525C93.5452 133.501 94.8878 133.128 96.139 133.704C96.763 133.991 97.3168 134.473 97.8366 134.939C99.3726 136.318 100.742 136.324 102.278 134.908C104.432 132.922 105.762 132.929 107.998 134.936C109.563 136.342 110.876 136.333 112.436 134.907C114.616 132.914 116.101 132.914 118.316 134.905C119.905 136.334 121.178 136.339 122.755 134.939C123.233 134.515 123.74 134.123 124.234 133.717Z" fill="#FBBE68"/>
<path d="M95.1006 128.49C95.5637 128.595 96.0796 128.607 96.478 128.829C97.0089 129.125 97.4625 129.566 97.924 129.975C99.3613 131.249 100.739 131.252 102.173 129.967C104.516 127.866 105.727 127.85 107.992 129.887C109.567 131.304 110.848 131.299 112.43 129.869C114.637 127.873 116.088 127.873 118.313 129.869C119.853 131.249 120.517 131.243 123.29 129.719C123.164 130.064 123.147 130.315 123.012 130.445C121.593 131.814 119.62 131.832 118.12 130.512C115.741 128.419 115.021 128.411 112.723 130.447C111.152 131.84 109.295 131.84 107.714 130.448C105.44 128.444 104.86 128.442 102.558 130.435C100.887 131.881 99.1081 131.824 97.4506 130.369C96.7399 129.745 95.9005 129.266 95.1203 128.721C95.1132 128.643 95.1069 128.567 95.1006 128.49Z" fill="#FBBE68"/>
<path d="M94.5967 144.207C95.8068 143.941 96.6675 144.489 97.4761 145.235C99.5027 147.103 100.484 147.098 102.575 145.241C104.354 143.661 105.977 143.679 107.737 145.298C109.673 147.079 110.779 147.076 112.757 145.284C114.555 143.655 116.254 143.656 118.022 145.289C119.454 146.611 119.88 146.741 121.809 146.445C121.27 147.207 120.305 147.43 119.221 146.89C118.604 146.582 118.067 146.091 117.536 145.635C115.993 144.311 114.749 144.351 113.184 145.641C112.461 146.238 111.62 146.808 110.737 147.064C109.506 147.423 108.443 146.833 107.523 145.946C105.707 144.195 104.621 144.21 102.758 145.92C100.946 147.583 99.2582 147.553 97.3664 145.969C96.561 145.295 95.5836 144.826 94.5967 144.207Z" fill="#FBBE68"/>
<path d="M97.8155 125.114C98.06 125.224 98.314 125.317 98.5483 125.446C99.7766 126.121 100.918 125.986 101.985 125.098C104.799 122.757 105.497 122.748 108.194 125.03C109.59 126.212 110.921 126.194 112.335 124.91C113.268 124.063 114.194 123.215 115.576 123.434C116.169 123.527 116.802 123.678 117.299 123.991C118.418 124.693 119.463 125.514 120.589 126.323C119.632 126.565 118.857 126.109 118.136 125.482C115.692 123.356 115.078 123.355 112.64 125.48C111.138 126.789 109.267 126.767 107.731 125.421C105.445 123.419 104.835 123.413 102.572 125.378C101.15 126.614 99.4003 126.801 98.0908 125.836C97.9156 125.707 97.8099 125.484 97.6719 125.304C97.7208 125.24 97.7681 125.177 97.8155 125.114Z" fill="#FBBE68"/>
<path d="M100.59 151.8C101.282 151.267 101.995 150.767 102.651 150.201C104.328 148.757 105.982 148.756 107.629 150.238C109.762 152.157 110.682 152.157 112.847 150.237C114.612 148.673 116.753 148.787 118.189 150.531C118.253 150.61 118.241 150.751 118.311 151.081C117.923 150.868 117.666 150.771 117.46 150.608C115.843 149.332 114.679 149.393 113.105 150.756C112.516 151.267 111.867 151.814 111.149 152.045C109.779 152.482 108.578 152.01 107.531 151.002C105.679 149.22 104.653 149.237 102.769 150.953C101.595 152.022 101.327 152.114 100.59 151.8Z" fill="#FBBE68"/>
<path d="M108.541 153.695L110.409 157.415H107.11L108.541 153.695Z" fill="#3A4D57"/>
<path d="M116.663 178.234C114.728 178.234 113.042 175.325 112.886 173.75C112.774 172.607 113.065 171.466 113.346 170.362C113.577 169.458 113.816 168.524 113.82 167.615C113.825 166.331 113.771 165.195 113.039 164.304C112.704 163.897 112.249 163.667 111.767 163.424C111.36 163.219 110.939 163.006 110.579 162.675C108.849 161.091 108.308 157.717 108.378 155.086L108.931 155.101C108.864 157.609 109.36 160.807 110.952 162.267C111.257 162.547 111.626 162.732 112.016 162.93C112.527 163.188 113.057 163.455 113.465 163.952C114.383 165.07 114.377 166.483 114.372 167.617C114.368 168.594 114.121 169.562 113.881 170.499C113.599 171.605 113.333 172.649 113.435 173.694C113.574 175.102 115.154 177.752 116.747 177.677L116.782 178.227C116.743 178.232 116.702 178.234 116.663 178.234Z" fill="#3A4D57"/>
<path d="M143.16 147.539L142.643 147.34C143.508 145.095 142.97 143.745 141.437 141.568L141.055 141.03C139.553 138.925 137.282 135.742 137.5 133.175C137.711 130.678 139.142 128.745 140.527 126.875C142.298 124.482 143.971 122.223 143.095 118.937L143.629 118.794C144.574 122.337 142.743 124.812 140.971 127.204C139.632 129.013 138.249 130.881 138.051 133.223C137.851 135.586 140.05 138.669 141.505 140.709L141.89 141.25C143.287 143.234 144.196 144.847 143.16 147.539Z" fill="#3A4D57"/>
<path d="M157.688 102.465C157.688 110.333 151.311 118.534 143.443 118.534C135.576 118.534 129.199 110.332 129.199 102.465C129.199 94.5979 135.576 88.2206 143.443 88.2206C151.31 88.2206 157.688 94.5979 157.688 102.465Z" fill="#FA6564"/>
<path d="M132.198 105.286C131.643 105.291 131.303 105.637 131.31 106.214C131.317 106.796 131.684 107.128 132.226 107.12C132.769 107.113 133.097 106.76 133.134 106.182C133.078 105.619 132.749 105.28 132.198 105.286ZM136.746 109.876C136.191 109.936 135.877 110.252 135.896 110.823C135.916 111.402 136.283 111.714 136.833 111.694C137.387 111.672 137.727 111.321 137.702 110.75C137.677 110.185 137.33 109.892 136.746 109.876ZM132.225 97.9538C132.775 97.9444 133.143 97.5791 133.131 97.019C133.12 96.4644 132.761 96.1504 132.179 96.1063C131.635 96.1678 131.288 96.4841 131.297 97.045C131.306 97.6067 131.673 97.9633 132.225 97.9538ZM141.346 105.291C140.79 105.342 140.469 105.652 140.48 106.224C140.49 106.802 140.851 107.122 141.403 107.109C141.958 107.097 142.303 106.75 142.287 106.18C142.271 105.617 141.93 105.316 141.346 105.291ZM141.354 97.9444C141.917 97.9601 142.282 97.6154 142.295 97.0592C142.307 96.5102 141.987 96.1497 141.405 96.1323C140.823 96.1157 140.53 96.455 140.45 97.0103C140.498 97.5618 140.79 97.9286 141.354 97.9444ZM150.52 97.9554C151.064 97.9712 151.451 97.6264 151.465 97.0608C151.479 96.5031 151.142 96.1757 150.539 96.1078C150.008 96.141 149.651 96.4479 149.632 97.004C149.612 97.5657 149.974 97.9396 150.52 97.9554ZM136.776 93.3586C137.334 93.3744 137.65 93.032 137.72 92.4696C137.666 91.9213 137.402 91.56 136.819 91.5489C136.243 91.5379 135.909 91.8598 135.893 92.4278C135.878 92.9997 136.22 93.3428 136.776 93.3586ZM136.82 100.714C136.249 100.705 135.908 101.026 135.894 101.595C135.879 102.168 136.221 102.511 136.777 102.526C137.336 102.541 137.651 102.2 137.721 101.636C137.665 101.089 137.4 100.724 136.82 100.714ZM141.402 114.469C140.819 114.454 140.528 114.796 140.451 115.349C140.501 115.902 140.793 116.268 141.358 116.281C141.921 116.294 142.285 115.949 142.296 115.393C142.306 114.843 141.984 114.483 141.402 114.469ZM155.142 102.526C155.697 102.521 156.049 102.181 156.039 101.611C156.031 101.05 155.701 100.71 155.127 100.715C154.555 100.72 154.258 101.056 154.223 101.625C154.262 102.197 154.585 102.531 155.142 102.526ZM150.539 105.286C149.982 105.29 149.642 105.632 149.645 106.209C149.649 106.79 150.015 107.124 150.557 107.121C151.1 107.117 151.431 106.766 151.47 106.199C151.416 105.625 151.095 105.282 150.539 105.286ZM154.615 110.069C154.38 110.293 154.303 110.771 154.316 111.128C154.322 111.311 154.659 111.537 154.892 111.63C154.985 111.666 155.235 111.416 155.351 111.252C155.553 110.965 155.707 110.644 155.915 110.276C155.494 109.828 155.007 109.697 154.615 110.069ZM150.567 114.456C150.003 114.441 149.694 114.788 149.623 115.341C149.655 115.905 150.001 116.35 150.505 116.262C150.87 116.198 151.345 115.737 151.435 115.371C151.559 114.859 151.127 114.471 150.567 114.456ZM145.987 100.714C145.416 100.705 145.076 101.026 145.061 101.597C145.047 102.17 145.389 102.512 145.945 102.527C146.504 102.542 146.818 102.199 146.888 101.635C146.833 101.088 146.567 100.723 145.987 100.714ZM145.927 109.875C145.396 109.919 145.063 110.217 145.062 110.789C145.062 111.365 145.414 111.695 145.968 111.694C146.523 111.694 146.876 111.354 146.871 110.784C146.866 110.221 146.536 109.91 145.927 109.875ZM145.971 91.5474C145.395 91.5489 145.068 91.8755 145.063 92.4443C145.057 93.0194 145.406 93.3531 145.961 93.3586C146.52 93.3641 146.828 93.0162 146.892 92.4104C146.813 91.9158 146.557 91.5458 145.971 91.5474Z" fill="#FBBE68"/>
<path d="M143.444 117.848L145.111 121.17H142.167L143.444 117.848Z" fill="#FA6564"/>
<path d="M46.0041 29.5019H47.5925L51.3274 38.6243H51.4561L55.191 29.5019H56.7794V40.4917H55.5344V32.142H55.4271L51.9928 40.4917H50.7907L47.3564 32.142H47.2491V40.4917H46.0041V29.5019ZM61.7015 40.6849C61.1791 40.6849 60.7051 40.5865 60.2794 40.3898C59.8537 40.1895 59.5156 39.9015 59.2652 39.5258C59.0148 39.1466 58.8896 38.6887 58.8896 38.1521C58.8896 37.6799 58.9826 37.2971 59.1686 37.0038C59.3547 36.7068 59.6033 36.4743 59.9145 36.3062C60.2258 36.138 60.5692 36.0128 60.9448 35.9305C61.324 35.8447 61.705 35.7767 62.0878 35.7266C62.5887 35.6622 62.9947 35.6139 63.3059 35.5817C63.6207 35.5459 63.8497 35.4869 63.9928 35.4046C64.1395 35.3224 64.2128 35.1793 64.2128 34.9753V34.9324C64.2128 34.403 64.0679 33.9916 63.7782 33.6982C63.492 33.4049 63.0573 33.2582 62.4742 33.2582C61.8696 33.2582 61.3956 33.3905 61.0522 33.6553C60.7087 33.92 60.4672 34.2026 60.3277 34.5031L59.1257 34.0738C59.3404 33.573 59.6265 33.1831 59.9843 32.904C60.3456 32.6214 60.7391 32.4246 61.1648 32.3137C61.5941 32.1993 62.0163 32.142 62.4312 32.142C62.696 32.142 63.0001 32.1742 63.3435 32.2386C63.6905 32.2994 64.025 32.4264 64.347 32.6196C64.6725 32.8128 64.9426 33.1044 65.1572 33.4943C65.3719 33.8842 65.4792 34.4065 65.4792 35.0612V40.4917H64.2128V39.3756H64.1484C64.0626 39.5545 63.9195 39.7459 63.7191 39.9498C63.5188 40.1537 63.2523 40.3272 62.9196 40.4703C62.5869 40.6134 62.1808 40.6849 61.7015 40.6849ZM61.8946 39.5473C62.3955 39.5473 62.8176 39.4489 63.161 39.2522C63.5081 39.0554 63.7692 38.8014 63.9445 38.4902C64.1234 38.1789 64.2128 37.8516 64.2128 37.5082V36.3491C64.1591 36.4135 64.0411 36.4725 63.8586 36.5262C63.6798 36.5762 63.4723 36.621 63.2362 36.6603C63.0036 36.6961 62.7765 36.7283 62.5547 36.7569C62.3364 36.782 62.1594 36.8034 62.0234 36.8213C61.6943 36.8642 61.3866 36.934 61.1004 37.0306C60.8178 37.1236 60.5889 37.2649 60.4136 37.4545C60.2419 37.6405 60.156 37.8945 60.156 38.2165C60.156 38.6565 60.3188 38.9892 60.6443 39.2146C60.9734 39.4364 61.3902 39.5473 61.8946 39.5473ZM68.9712 37.4867L68.9498 35.9198H69.2073L72.8134 32.2493H74.3803L70.5382 36.1344H70.4308L68.9712 37.4867ZM67.7907 40.4917V29.5019H69.0571V40.4917H67.7907ZM73.028 40.4917L69.8084 36.4135L70.7099 35.5334L74.6379 40.4917H73.028ZM79.1267 40.6635C78.3325 40.6635 77.6474 40.4882 77.0714 40.1376C76.499 39.7834 76.0572 39.2897 75.746 38.6565C75.4383 38.0197 75.2845 37.2792 75.2845 36.4349C75.2845 35.5907 75.4383 34.8466 75.746 34.2026C76.0572 33.5551 76.4901 33.0507 77.0446 32.6894C77.6027 32.3245 78.2538 32.142 78.9979 32.142C79.4272 32.142 79.8511 32.2136 80.2697 32.3567C80.6882 32.4998 81.0692 32.7323 81.4126 33.0543C81.7561 33.3727 82.0297 33.7948 82.2337 34.3207C82.4376 34.8466 82.5395 35.4941 82.5395 36.2632V36.7998H76.186V35.7051H81.2517C81.2517 35.2401 81.1586 34.8251 80.9726 34.4602C80.7902 34.0953 80.529 33.8073 80.1892 33.5963C79.8529 33.3852 79.4558 33.2796 78.9979 33.2796C78.4935 33.2796 78.057 33.4049 77.6885 33.6553C77.3236 33.9021 77.0428 34.2241 76.8461 34.6212C76.6493 35.0183 76.5509 35.444 76.5509 35.8983V36.6281C76.5509 37.2506 76.6582 37.7783 76.8729 38.2111C77.0911 38.6404 77.3934 38.9678 77.7798 39.1931C78.1661 39.4149 78.6151 39.5258 79.1267 39.5258C79.4594 39.5258 79.7599 39.4793 80.0282 39.3863C80.3001 39.2897 80.5344 39.1466 80.7311 38.957C80.9279 38.7638 81.0799 38.5242 81.1873 38.238L82.4107 38.5814C82.282 38.9964 82.0655 39.3613 81.7614 39.6761C81.4574 39.9873 81.0817 40.2306 80.6345 40.4059C80.1874 40.5776 79.6847 40.6635 79.1267 40.6635ZM89.3384 40.4917H87.9432L91.9786 29.5019H93.3523L97.3876 40.4917H95.9925L92.7084 31.2405H92.6225L89.3384 40.4917ZM89.8536 36.1988H95.4773V37.3794H89.8536V36.1988ZM105.346 40.4917L102.341 29.5019H103.693L105.99 38.4526H106.097L108.437 29.5019H109.939L112.279 38.4526H112.386L114.683 29.5019H116.035L113.03 40.4917H111.656L109.231 31.7342H109.145L106.719 40.4917H105.346ZM117.521 40.4917V32.2493H118.788V40.4917H117.521ZM118.165 30.8756C117.919 30.8756 117.706 30.7915 117.527 30.6234C117.351 30.4553 117.264 30.2531 117.264 30.017C117.264 29.7809 117.351 29.5788 117.527 29.4107C117.706 29.2425 117.919 29.1585 118.165 29.1585C118.412 29.1585 118.623 29.2425 118.799 29.4107C118.977 29.5788 119.067 29.7809 119.067 30.017C119.067 30.2531 118.977 30.4553 118.799 30.6234C118.623 30.7915 118.412 30.8756 118.165 30.8756ZM126.946 34.0953L125.808 34.4173C125.737 34.2277 125.631 34.0434 125.491 33.8646C125.356 33.6821 125.17 33.5319 124.933 33.4138C124.697 33.2957 124.395 33.2367 124.027 33.2367C123.522 33.2367 123.102 33.353 122.765 33.5855C122.433 33.8145 122.266 34.106 122.266 34.4602C122.266 34.775 122.381 35.0236 122.61 35.2061C122.839 35.3885 123.197 35.5406 123.683 35.6622L124.907 35.9627C125.644 36.1416 126.193 36.4153 126.554 36.7837C126.915 37.1486 127.096 37.6191 127.096 38.195C127.096 38.6673 126.96 39.0894 126.688 39.4614C126.42 39.8335 126.044 40.1268 125.561 40.3415C125.078 40.5561 124.517 40.6635 123.876 40.6635C123.036 40.6635 122.34 40.481 121.789 40.1161C121.238 39.7512 120.889 39.2182 120.742 38.517L121.944 38.2165C122.059 38.6601 122.275 38.9928 122.594 39.2146C122.916 39.4364 123.336 39.5473 123.855 39.5473C124.445 39.5473 124.914 39.4221 125.261 39.1717C125.611 38.9177 125.787 38.6136 125.787 38.2594C125.787 37.9732 125.686 37.7335 125.486 37.5404C125.286 37.3436 124.978 37.1969 124.563 37.1003L123.189 36.7784C122.435 36.5995 121.88 36.3223 121.526 35.9466C121.175 35.5674 121 35.0934 121 34.5246C121 34.0595 121.131 33.6481 121.392 33.2904C121.656 32.9326 122.016 32.6518 122.47 32.4479C122.928 32.244 123.447 32.142 124.027 32.142C124.842 32.142 125.483 32.3209 125.948 32.6786C126.416 33.0364 126.749 33.5086 126.946 34.0953ZM130.269 35.5334V40.4917H129.002V29.5019H130.269V33.5372H130.376C130.569 33.1115 130.859 32.7734 131.245 32.523C131.635 32.269 132.154 32.142 132.802 32.142C133.363 32.142 133.855 32.2547 134.277 32.4801C134.699 32.7019 135.027 33.0435 135.259 33.505C135.495 33.9629 135.613 34.5461 135.613 35.2544V40.4917H134.347V35.3402C134.347 34.6856 134.177 34.1794 133.837 33.8216C133.501 33.4603 133.034 33.2796 132.437 33.2796C132.022 33.2796 131.65 33.3673 131.32 33.5426C130.995 33.7179 130.737 33.9737 130.548 34.3099C130.362 34.6462 130.269 35.0541 130.269 35.5334Z" fill="#3A4D57"/>
<path d="M60.0361 47.635V58.6248H58.7053V47.635H60.0361ZM66.1173 50.3825V51.4557H61.8459V50.3825H66.1173ZM63.0908 48.4077H64.3572V56.2637C64.3572 56.6215 64.4091 56.8898 64.5128 57.0687C64.6201 57.244 64.7561 57.362 64.9207 57.4228C65.0888 57.4801 65.2659 57.5087 65.4519 57.5087C65.5914 57.5087 65.7059 57.5015 65.7953 57.4872C65.8848 57.4693 65.9563 57.455 66.01 57.4443L66.2676 58.5819C66.1817 58.6141 66.0619 58.6463 65.908 58.6785C65.7542 58.7143 65.5592 58.7322 65.3231 58.7322C64.9654 58.7322 64.6148 58.6553 64.2713 58.5014C63.9315 58.3476 63.6489 58.1133 63.4235 57.7985C63.2017 57.4836 63.0908 57.0866 63.0908 56.6072V48.4077ZM69.5664 47.635V48.6009C69.5664 48.8942 69.5127 49.2073 69.4054 49.54C69.3017 49.8691 69.1478 50.1893 68.9439 50.5005C68.7436 50.8082 68.5003 51.0765 68.2141 51.3054L67.5273 50.7473C67.7526 50.4254 67.9476 50.0909 68.1122 49.7439C68.2803 49.3933 68.3644 49.0195 68.3644 48.6224V47.635H69.5664ZM75.9119 52.2284L74.7742 52.5504C74.7027 52.3608 74.5971 52.1765 74.4576 51.9977C74.3217 51.8152 74.1357 51.665 73.8995 51.5469C73.6634 51.4288 73.3611 51.3698 72.9927 51.3698C72.4883 51.3698 72.0679 51.4861 71.7316 51.7186C71.3989 51.9476 71.2326 52.2391 71.2326 52.5933C71.2326 52.9081 71.3471 53.1567 71.576 53.3392C71.805 53.5216 72.1627 53.6737 72.6492 53.7953L73.8727 54.0958C74.6097 54.2747 75.1588 54.5484 75.5201 54.9168C75.8814 55.2817 76.0621 55.7522 76.0621 56.3281C76.0621 56.8004 75.9262 57.2225 75.6543 57.5945C75.386 57.9666 75.0103 58.2599 74.5274 58.4746C74.0444 58.6892 73.4828 58.7966 72.8424 58.7966C72.0017 58.7966 71.3059 58.6141 70.755 58.2492C70.2041 57.8843 69.8553 57.3513 69.7086 56.6501L70.9106 56.3496C71.0251 56.7932 71.2415 57.1259 71.5599 57.3477C71.8819 57.5695 72.3022 57.6804 72.821 57.6804C73.4112 57.6804 73.8799 57.5552 74.2269 57.3048C74.5775 57.0508 74.7528 56.7467 74.7528 56.3925C74.7528 56.1063 74.6526 55.8666 74.4523 55.6735C74.2519 55.4767 73.9443 55.33 73.5293 55.2334L72.1556 54.9115C71.4007 54.7326 70.8462 54.4554 70.492 54.0797C70.1415 53.7005 69.9662 53.2265 69.9662 52.6577C69.9662 52.1926 70.0967 51.7812 70.3579 51.4235C70.6226 51.0657 70.9822 50.7849 71.4365 50.581C71.8944 50.3771 72.4131 50.2751 72.9927 50.2751C73.8083 50.2751 74.4487 50.454 74.9138 50.8117C75.3824 51.1695 75.7151 51.6417 75.9119 52.2284ZM81.4457 47.635H82.9697L86.0176 52.765H86.1464L89.1944 47.635H90.7184L86.7474 54.0958V58.6248H85.4166V54.0958L81.4457 47.635ZM94.4505 58.7966C93.7064 58.7966 93.0535 58.6195 92.4919 58.2653C91.9338 57.9112 91.4974 57.4157 91.1826 56.7789C90.8713 56.1421 90.7157 55.398 90.7157 54.5466C90.7157 53.688 90.8713 52.9385 91.1826 52.2982C91.4974 51.6578 91.9338 51.1605 92.4919 50.8064C93.0535 50.4522 93.7064 50.2751 94.4505 50.2751C95.1946 50.2751 95.8457 50.4522 96.4038 50.8064C96.9655 51.1605 97.4019 51.6578 97.7131 52.2982C98.028 52.9385 98.1854 53.688 98.1854 54.5466C98.1854 55.398 98.028 56.1421 97.7131 56.7789C97.4019 57.4157 96.9655 57.9112 96.4038 58.2653C95.8457 58.6195 95.1946 58.7966 94.4505 58.7966ZM94.4505 57.6589C95.0158 57.6589 95.4808 57.5141 95.8457 57.2243C96.2106 56.9345 96.4807 56.5535 96.656 56.0813C96.8313 55.6091 96.919 55.0975 96.919 54.5466C96.919 53.9957 96.8313 53.4823 96.656 53.0065C96.4807 52.5307 96.2106 52.1461 95.8457 51.8528C95.4808 51.5594 95.0158 51.4128 94.4505 51.4128C93.8853 51.4128 93.4202 51.5594 93.0553 51.8528C92.6904 52.1461 92.4203 52.5307 92.245 53.0065C92.0698 53.4823 91.9821 53.9957 91.9821 54.5466C91.9821 55.0975 92.0698 55.6091 92.245 56.0813C92.4203 56.5535 92.6904 56.9345 93.0553 57.2243C93.4202 57.5141 93.8853 57.6589 94.4505 57.6589ZM105.313 55.2549V50.3825H106.579V58.6248H105.313V57.2297H105.227C105.034 57.6482 104.733 58.0042 104.326 58.2975C103.918 58.5873 103.403 58.7322 102.78 58.7322C102.265 58.7322 101.807 58.6195 101.406 58.3941C101.006 58.1651 100.691 57.8217 100.462 57.3638C100.233 56.9023 100.119 56.321 100.119 55.6198V50.3825H101.385V55.5339C101.385 56.135 101.553 56.6143 101.889 56.9721C102.229 57.3298 102.662 57.5087 103.188 57.5087C103.503 57.5087 103.823 57.4282 104.148 57.2672C104.478 57.1062 104.753 56.8594 104.975 56.5267C105.2 56.194 105.313 55.7701 105.313 55.2549ZM108.899 58.6248V50.3825H110.122V51.6274H110.208C110.358 51.2196 110.63 50.8887 111.024 50.6347C111.417 50.3807 111.861 50.2537 112.355 50.2537C112.448 50.2537 112.564 50.2555 112.703 50.259C112.843 50.2626 112.949 50.268 113.02 50.2751V51.563C112.977 51.5523 112.879 51.5362 112.725 51.5147C112.575 51.4897 112.415 51.4771 112.247 51.4771C111.847 51.4771 111.489 51.5612 111.174 51.7294C110.863 51.8939 110.616 52.1229 110.434 52.4162C110.255 52.706 110.165 53.0369 110.165 53.409V58.6248H108.899Z" fill="#3A4D57"/>
<path d="M45.7271 180.532L45.731 180.512V178.719C45.731 179.158 47.0484 179.512 48.6751 179.512C50.708 179.512 52.3552 179.068 52.3552 178.519V180.771H49.1918C47.9351 180.772 46.7557 180.683 45.7271 180.532Z" fill="#5D7C87"/>
<path d="M128.839 180.772V178.52C128.839 179.069 130.487 179.512 132.519 179.512C134.146 179.512 135.464 179.159 135.464 178.72V180.533C134.435 180.684 133.255 180.773 132.004 180.773L128.839 180.772Z" fill="#5D7C87"/>
<path d="M132.519 179.512C130.487 179.512 128.839 179.069 128.839 178.52C128.839 177.833 130.901 177.276 133.439 177.276C136.614 177.276 139.188 177.971 139.188 178.829C139.188 179.565 137.683 180.203 135.464 180.533V178.72C135.464 179.158 134.146 179.512 132.519 179.512Z" fill="#455D68"/>
<path d="M42.0068 178.829C42.0068 177.972 44.5809 177.276 47.7562 177.276C50.2932 177.276 52.3545 177.833 52.3545 178.52C52.3545 179.069 50.7081 179.512 48.6744 179.512C47.0477 179.512 45.7303 179.159 45.7303 178.72V180.513L45.7264 180.533C43.5112 180.203 42.0068 179.56 42.0068 178.829Z" fill="#455D68"/>
<path d="M135.464 180.532C137.684 180.203 139.188 179.564 139.188 178.828V210.072C139.188 211.146 135.972 212.016 132.003 212.016H49.1909C45.2229 212.016 42.0059 211.146 42.0059 210.072V178.828C42.0059 179.561 43.5102 180.203 45.7262 180.532C46.7549 180.683 47.9343 180.772 49.1902 180.772H52.3535H128.839H132.002C133.256 180.772 134.435 180.683 135.464 180.532Z" fill="#3A4D57"/>
<path d="M46.3243 201.925V185.005H52.2395C53.4182 185.005 54.3903 185.209 55.1559 185.617C55.9214 186.019 56.4915 186.561 56.866 187.244C57.2405 187.922 57.4278 188.673 57.4278 189.5C57.4278 190.227 57.2984 190.827 57.0395 191.301C56.7861 191.774 56.4502 192.149 56.0316 192.424C55.6185 192.7 55.1696 192.903 54.685 193.036V193.201C55.2027 193.234 55.7232 193.416 56.2464 193.746C56.7696 194.077 57.2075 194.55 57.56 195.167C57.9125 195.784 58.0887 196.538 58.0887 197.431C58.0887 198.279 57.896 199.042 57.5104 199.719C57.1249 200.397 56.5163 200.934 55.6846 201.33C54.8529 201.727 53.7707 201.925 52.4378 201.925H46.3243ZM48.3731 200.107H52.4378C53.7762 200.107 54.7263 199.849 55.2881 199.331C55.8553 198.808 56.139 198.174 56.139 197.431C56.139 196.858 55.993 196.329 55.7011 195.845C55.4092 195.354 54.9934 194.963 54.4536 194.671C53.9139 194.374 53.275 194.225 52.537 194.225H48.3731V200.107ZM48.3731 192.441H52.1734C52.7903 192.441 53.3466 192.32 53.8423 192.077C54.3435 191.835 54.74 191.493 55.0319 191.053C55.3294 190.612 55.4781 190.094 55.4781 189.5C55.4781 188.756 55.2192 188.125 54.7015 187.608C54.1838 187.084 53.3631 186.823 52.2395 186.823H48.3731V192.441ZM61.1909 201.925V189.235H63.1407V201.925H61.1909ZM62.1823 187.12C61.8023 187.12 61.4746 186.991 61.1992 186.732C60.9293 186.473 60.7944 186.162 60.7944 185.798C60.7944 185.435 60.9293 185.124 61.1992 184.865C61.4746 184.606 61.8023 184.477 62.1823 184.477C62.5624 184.477 62.8873 184.606 63.1572 184.865C63.4326 185.124 63.5703 185.435 63.5703 185.798C63.5703 186.162 63.4326 186.473 63.1572 186.732C62.8873 186.991 62.5624 187.12 62.1823 187.12ZM66.7117 201.925V189.235H68.5954V191.152H68.7275C68.9589 190.524 69.3775 190.015 69.9833 189.624C70.5892 189.233 71.2721 189.037 72.0322 189.037C72.1754 189.037 72.3544 189.04 72.5692 189.045C72.784 189.051 72.9465 189.059 73.0566 189.07V191.053C72.9905 191.036 72.8391 191.011 72.6022 190.978C72.3709 190.94 72.1258 190.921 71.8669 190.921C71.2501 190.921 70.6993 191.05 70.2146 191.309C69.7355 191.562 69.3554 191.915 69.0745 192.366C68.7991 192.813 68.6615 193.322 68.6615 193.895V201.925H66.7117ZM81.6817 189.235V190.888H75.1055V189.235H81.6817ZM77.0222 186.195H78.9719V198.29C78.9719 198.841 79.0517 199.254 79.2115 199.529C79.3767 199.799 79.586 199.981 79.8394 200.074C80.0982 200.163 80.3708 200.207 80.6572 200.207C80.872 200.207 81.0483 200.196 81.186 200.174C81.3237 200.146 81.4338 200.124 81.5164 200.107L81.913 201.859C81.7808 201.908 81.5963 201.958 81.3595 202.008C81.1226 202.063 80.8225 202.09 80.459 202.09C79.9082 202.09 79.3684 201.972 78.8397 201.735C78.3165 201.498 77.8814 201.137 77.5344 200.653C77.1929 200.168 77.0222 199.557 77.0222 198.819V186.195ZM86.8369 194.291V201.925H84.8872V185.005H86.8369V191.218H87.0021C87.2995 190.563 87.7457 190.042 88.3405 189.657C88.9408 189.266 89.7395 189.07 90.7364 189.07C91.6011 189.07 92.3584 189.244 93.0083 189.591C93.6582 189.932 94.1621 190.458 94.5201 191.168C94.8837 191.873 95.0654 192.771 95.0654 193.862V201.925H93.1157V193.994C93.1157 192.986 92.8541 192.207 92.3308 191.656C91.8131 191.1 91.0944 190.821 90.1746 190.821C89.5357 190.821 88.9629 190.956 88.4562 191.226C87.955 191.496 87.5584 191.89 87.2665 192.408C86.9801 192.925 86.8369 193.553 86.8369 194.291ZM103.424 202.189C102.367 202.189 101.433 201.922 100.623 201.388C99.8137 200.848 99.1804 200.088 98.7232 199.108C98.2661 198.122 98.0375 196.957 98.0375 195.613C98.0375 194.28 98.2661 193.124 98.7232 192.143C99.1804 191.163 99.8165 190.406 100.632 189.871C101.447 189.337 102.389 189.07 103.457 189.07C104.283 189.07 104.936 189.208 105.415 189.483C105.9 189.753 106.269 190.061 106.522 190.408C106.781 190.75 106.982 191.031 107.125 191.251H107.29V185.005H109.24V201.925H107.357V199.975H107.125C106.982 200.207 106.778 200.499 106.514 200.851C106.249 201.198 105.872 201.509 105.382 201.785C104.892 202.054 104.239 202.189 103.424 202.189ZM103.688 200.438C104.471 200.438 105.131 200.234 105.671 199.827C106.211 199.414 106.621 198.843 106.902 198.116C107.183 197.384 107.324 196.538 107.324 195.58C107.324 194.633 107.186 193.804 106.91 193.093C106.635 192.377 106.227 191.821 105.688 191.425C105.148 191.023 104.482 190.821 103.688 190.821C102.862 190.821 102.174 191.034 101.623 191.458C101.078 191.876 100.667 192.446 100.392 193.168C100.122 193.884 99.9872 194.688 99.9872 195.58C99.9872 196.483 100.125 197.304 100.4 198.042C100.681 198.775 101.094 199.358 101.64 199.794C102.19 200.223 102.873 200.438 103.688 200.438ZM116.816 202.222C116.012 202.222 115.282 202.071 114.627 201.768C113.971 201.46 113.451 201.016 113.065 200.438C112.68 199.854 112.487 199.149 112.487 198.323C112.487 197.596 112.63 197.007 112.917 196.555C113.203 196.098 113.586 195.74 114.065 195.481C114.544 195.222 115.073 195.029 115.651 194.903C116.235 194.771 116.822 194.666 117.411 194.589C118.182 194.49 118.807 194.415 119.286 194.366C119.771 194.311 120.123 194.22 120.344 194.093C120.57 193.966 120.682 193.746 120.682 193.432V193.366C120.682 192.551 120.459 191.918 120.013 191.466C119.573 191.014 118.903 190.788 118.006 190.788C117.075 190.788 116.345 190.992 115.816 191.4C115.288 191.807 114.916 192.242 114.701 192.705L112.85 192.044C113.181 191.273 113.622 190.673 114.172 190.243C114.729 189.808 115.334 189.505 115.99 189.334C116.651 189.158 117.301 189.07 117.94 189.07C118.347 189.07 118.815 189.12 119.344 189.219C119.878 189.312 120.393 189.508 120.889 189.805C121.39 190.103 121.806 190.552 122.136 191.152C122.467 191.752 122.632 192.556 122.632 193.564V201.925H120.682V200.207H120.583C120.451 200.482 120.231 200.777 119.922 201.091C119.614 201.405 119.204 201.672 118.691 201.892C118.179 202.112 117.554 202.222 116.816 202.222ZM117.113 200.471C117.885 200.471 118.534 200.32 119.063 200.017C119.597 199.714 119.999 199.323 120.269 198.843C120.545 198.364 120.682 197.86 120.682 197.332V195.547C120.6 195.646 120.418 195.737 120.137 195.82C119.862 195.897 119.542 195.966 119.179 196.026C118.821 196.081 118.471 196.131 118.13 196.175C117.794 196.214 117.521 196.247 117.312 196.274C116.805 196.34 116.331 196.448 115.891 196.596C115.456 196.74 115.103 196.957 114.833 197.249C114.569 197.535 114.437 197.926 114.437 198.422C114.437 199.1 114.687 199.612 115.189 199.959C115.695 200.3 116.337 200.471 117.113 200.471ZM126.992 206.684C126.662 206.684 126.367 206.656 126.108 206.601C125.849 206.551 125.67 206.502 125.571 206.452L126.067 204.734C126.541 204.855 126.959 204.899 127.323 204.866C127.686 204.833 128.008 204.671 128.289 204.379C128.576 204.092 128.837 203.627 129.074 202.982L129.438 201.991L124.745 189.235H126.86L130.363 199.347H130.495L133.998 189.235H136.113L130.726 203.776C130.484 204.431 130.184 204.974 129.826 205.403C129.468 205.838 129.052 206.16 128.578 206.37C128.11 206.579 127.582 206.684 126.992 206.684Z" fill="#FAFAFA"/>
<path d="M36.2084 79.4957C34.1463 79.2819 30.4993 79.3032 29.6836 81.804C28.7804 84.5729 32.7997 85.4975 34.6244 84.3851C37.5053 82.6299 33.871 81.1421 31.9004 81.613C28.9374 82.3215 26.5818 84.9579 28.0341 88.04C29.174 90.4587 32.1323 90.8318 34.0098 88.9519C36.184 86.7739 32.2727 85.6174 30.5285 86.3644C28.2369 87.3458 26.0351 90.297 26.6173 92.8908C27.1482 95.2574 31.3277 96.578 33.2257 95.061C34.4761 94.0623 33.8883 92.5681 32.4778 92.0349C31.0153 91.4811 29.1172 92.2455 27.8898 93.0407C26.6252 93.8595 25.3117 95.1785 25.7724 96.8162C26.465 99.2783 29.3563 99.9781 31.5336 100.022C32.0108 100.032 33.3961 98.9533 32.7753 98.9407C30.7912 98.9004 28.6786 98.4453 27.6626 96.4896C26.6212 94.4851 29.7839 91.616 31.2874 93.4233C32.283 93.6678 32.3311 94.0173 31.4318 94.4717C31.147 94.3881 30.8701 94.2863 30.5987 94.1672C28.9997 93.824 28.1272 92.5524 28.2432 90.9888C28.3441 89.6288 29.5417 86.9577 31.2488 87.0736C31.9185 87.1194 34.3514 88.7823 31.8223 89.0955C31.1312 89.1807 30.2824 88.1639 29.9535 87.6748C29.5574 87.0862 29.2798 86.2319 29.2435 85.5432C29.2048 85.0194 29.2837 84.5106 29.4817 84.0175C30.4173 83.5276 31.3529 83.0377 32.2877 82.5479C32.6459 82.536 34.9099 83.3809 33.5902 83.8432C33.0947 84.0167 31.9454 83.2302 31.6511 82.8326C29.9495 80.5331 33.6075 80.4384 34.966 80.5788C35.444 80.6269 36.8593 79.5628 36.2084 79.4957Z" fill="#FBBE68"/>
<path d="M147.462 125.768C148.754 124.622 150.923 127.677 151.228 128.497C151.509 129.25 151.805 131.093 151.021 131.756C150.554 132.152 147.29 132.94 147.31 131.456C147.355 128.15 151.876 131.701 152.438 132.826C152.952 133.857 153.032 135.142 152.833 136.261C152.452 138.396 149.461 141.164 147.456 139.271C145.259 137.198 149.072 136.191 150.835 137.16C151.818 137.7 152.504 138.598 152.961 139.605C153.722 141.282 154.283 146.417 151.204 146.432C150.486 146.435 148.393 148.044 149.305 148.039C154.666 148.014 158.049 142.22 155.049 137.529C151.63 132.183 141.195 137.443 144.975 140.724C150.357 145.396 159.555 134.604 153.464 129.756C151.154 127.918 147.303 127.808 145.448 130.369C143.458 133.117 146.608 134.9 149.201 134.262C152.203 133.523 154.983 130.373 153.719 127.194C152.253 123.509 148.467 123.206 145.771 125.598C144.418 126.798 146.832 126.326 147.462 125.768Z" fill="#FBBE68"/>
<path d="M138.88 69.6001C139.743 68.8349 141.191 70.8749 141.396 71.4224C141.583 71.9257 141.781 73.1563 141.258 73.5997C140.945 73.8639 138.765 74.3901 138.779 73.3985C138.809 71.1904 141.829 73.5626 142.203 74.3136C142.547 75.0023 142.6 75.8606 142.467 76.6076C142.212 78.0339 140.215 79.8823 138.876 78.6185C137.409 77.234 139.956 76.5619 141.133 77.2088C141.789 77.5693 142.248 78.1688 142.553 78.8417C143.061 79.9619 143.436 83.3912 141.379 83.4006C140.899 83.403 139.502 84.4775 140.111 84.4743C143.692 84.457 145.952 80.5875 143.948 77.4549C141.664 73.8845 134.695 77.3973 137.219 79.5888C140.814 82.7088 146.957 75.5009 142.89 72.2641C141.347 71.0358 138.774 70.9624 137.536 72.6727C136.206 74.5084 138.31 75.6989 140.043 75.2729C142.047 74.7798 143.904 72.6759 143.059 70.5522C142.08 68.091 139.552 67.889 137.752 69.4857C136.847 70.288 138.459 69.9732 138.88 69.6001Z" fill="#FA6564"/>
<path d="M55.9251 60.7812C56.5388 60.2369 57.5691 61.6884 57.7142 62.0781C57.8476 62.4363 57.9888 63.3119 57.6156 63.6267C57.3939 63.8144 55.843 64.1891 55.8525 63.4839C55.8738 61.9132 58.0219 63.6006 58.2885 64.1347C58.5331 64.6246 58.571 65.2352 58.4763 65.7669C58.2948 66.7814 56.8741 68.0964 55.9219 67.1971C54.8782 66.2126 56.6903 65.7338 57.5273 66.1945C57.9943 66.4509 58.3201 66.8776 58.5378 67.3557C58.8991 68.1525 59.1658 70.5917 57.7032 70.5988C57.3624 70.6003 56.3676 71.3648 56.8015 71.3624C59.3488 71.3506 60.9557 68.5974 59.5302 66.3696C57.9059 63.8294 52.9486 66.3286 54.7441 67.8874C57.3008 70.1073 61.6712 64.9796 58.7776 62.6769C57.6795 61.8036 55.8501 61.7507 54.9689 62.9672C54.0231 64.2728 55.5204 65.12 56.7526 64.8163C58.1789 64.4652 59.4995 62.9688 58.8983 61.4588C58.2018 59.7083 56.4031 59.5648 55.1228 60.7007C54.4798 61.2703 55.6261 61.0463 55.9251 60.7812Z" fill="#FA6564"/>
<path d="M90.1932 158.404C89.3302 157.638 87.8818 159.679 87.6775 160.226C87.4897 160.729 87.2925 161.96 87.8155 162.403C88.1279 162.668 90.3076 163.194 90.2942 162.202C90.2642 159.994 87.2444 162.365 86.8697 163.117C86.5265 163.806 86.4729 164.664 86.6062 165.411C86.861 166.838 88.8584 168.686 90.1971 167.422C91.6637 166.038 89.1172 165.366 87.9401 166.012C87.2838 166.373 86.8255 166.972 86.5202 167.645C86.0121 168.766 85.6374 172.195 87.694 172.205C88.1737 172.207 89.5716 173.282 88.9618 173.279C85.381 173.261 83.1209 169.392 85.1254 166.259C87.4092 162.689 94.3782 166.202 91.8538 168.392C88.2589 171.512 82.1159 164.305 86.1833 161.068C87.7264 159.839 90.2989 159.766 91.5374 161.476C92.8667 163.312 90.7628 164.502 89.0304 164.077C87.0259 163.583 85.1688 161.48 86.0137 159.356C86.9927 156.895 89.5211 156.693 91.3213 158.289C92.2253 159.092 90.6137 158.777 90.1932 158.404Z" fill="#FA6564"/>
</g>
<defs>
<clipPath id="clip0_11_7194">
<rect width="181" height="229.111" fill="white"/>
</clipPath>
</defs>
</svg>
