<svg width="138" height="126" viewBox="0 0 138 126" fill="none" xmlns="http://www.w3.org/2000/svg">
<path d="M49.3254 60.4548L34.6302 51.9149L34.7007 76.7957L49.396 85.3357L49.3254 60.4548Z" fill="#ECF3FB"/>
<path d="M87.5264 30.7088L72.831 22.1688L41.291 40.3785L55.9864 48.9185L87.5264 30.7088Z" fill="#E4EEF9"/>
<path d="M55.9863 48.9184L41.291 40.3784C37.6002 42.5094 34.6185 47.675 34.6306 51.9149L49.3259 60.4548C49.3138 56.215 52.2955 51.0493 55.9863 48.9184Z" fill="#E4EEF9"/>
<path d="M55.9858 48.9184C52.295 51.0493 49.3134 56.215 49.3254 60.4548L49.3959 85.3356L87.6182 63.268L87.5259 30.7088L55.9858 48.9184Z" fill="#C6D9F4"/>
<path d="M128.964 89.573L128.935 79.4494C128.938 80.6109 128.172 81.7743 126.637 82.6606L126.665 92.7843C128.201 91.898 128.967 90.7346 128.964 89.573Z" fill="#DDE6F5"/>
<path d="M56.5283 71.0783L56.557 81.202L96.7002 104.531L96.6715 94.407L56.5283 71.0783Z" fill="#ECF3FB"/>
<path d="M56.5283 71.0783L96.6715 94.407C99.3195 95.9458 103.625 95.9449 106.29 94.406L126.637 82.6606C129.687 80.8995 129.704 78.0441 126.674 76.2836L92.7088 56.5452C89.6794 54.7847 84.7498 54.7846 81.6995 56.5457L56.5283 71.0783Z" fill="#A4BBDD"/>
<path d="M56.491 58.8337L56.5257 71.0773L96.6689 94.406L96.6342 82.1624L56.491 58.8337Z" fill="#ECF3FB"/>
<path d="M56.4916 58.8337L96.6349 82.1624C99.2829 83.7013 103.59 83.7013 106.255 82.1625L123.538 72.1844L78.5999 46.0695L56.4916 58.8337Z" fill="#BDCEEC"/>
<path d="M126.571 60.2918L126.577 62.5661L126.578 62.5648C128.063 61.7074 128.829 60.5911 128.875 59.4682C128.875 59.4617 128.876 59.4552 128.875 59.4474L128.868 57.0898C128.868 58.2491 128.102 59.4084 126.571 60.2918Z" fill="#D6DFED"/>
<path d="M126.578 62.5661L126.6 70.4156C126.6 70.4156 126.601 70.4156 126.601 70.4143C128.135 69.5283 128.902 68.3664 128.899 67.2045L128.875 59.4682C128.83 60.5911 128.064 61.7074 126.579 62.5648L126.578 62.5661Z" fill="#DDE6F5"/>
<path d="M56.4624 48.7097L56.4911 58.8333L96.6343 82.162L96.6056 72.0383L56.4624 48.7097Z" fill="#ECF3FB"/>
<path d="M106.227 72.0381L106.234 74.3111C106.234 74.3098 106.235 74.3098 106.235 74.3098L126.578 62.5661L126.571 60.2918L106.227 72.0381Z" fill="#D6DFED"/>
<path d="M106.234 74.3111L106.256 82.1619L106.258 82.1606L126.6 70.4156L126.578 62.5661L106.235 74.3098C106.235 74.3098 106.234 74.3098 106.234 74.3111Z" fill="#DDE6F5"/>
<path d="M96.6058 72.038L96.6123 74.3097L96.6136 74.311C99.2613 75.8502 103.568 75.8489 106.234 74.311L106.227 72.038C103.561 73.5772 99.2535 73.5772 96.6058 72.038Z" fill="#D6DFED"/>
<path d="M96.6122 74.3097L96.6343 82.1618C96.6343 82.1618 96.6356 82.1618 96.6356 82.1631C99.2833 83.701 103.59 83.6997 106.256 82.1618L106.234 74.311C103.568 75.8489 99.2612 75.8502 96.6135 74.311L96.6122 74.3097Z" fill="#DDE6F5"/>
<path d="M126.579 62.5648L126.601 70.4143L126.607 72.6886C128.142 71.8013 128.909 70.6381 128.906 69.4762L128.878 59.3602C128.878 59.3888 128.878 59.4187 128.875 59.4474C128.876 59.4552 128.875 59.4617 128.875 59.4682C128.829 60.591 128.063 61.7074 126.579 62.5648Z" fill="#DDE6F5"/>
<path d="M56.4682 50.9811L56.4982 61.1049L96.6408 84.4348H96.6421L96.6356 82.1631L96.6135 74.311L96.6122 74.3097L56.4682 50.9811Z" fill="#ECF3FB"/>
<path d="M106.257 82.1606L106.254 82.1618L106.288 94.4064L106.321 104.53L126.665 92.784L126.636 82.6602L123.572 84.4284L123.543 74.4581L126.607 72.6886L126.601 70.4143L126.579 62.5648L126.577 62.5661L106.235 74.3098L106.257 82.1606Z" fill="#DDE6F5"/>
<path d="M96.6355 82.1632C96.6355 82.1632 96.6342 82.1632 96.6342 82.1618L96.6693 94.4064H96.6706V94.4077L96.6992 104.53C99.3469 106.069 103.655 106.069 106.321 104.53L106.288 94.4065L106.261 84.4349C106.261 84.4349 106.262 84.4336 106.264 84.4336L106.257 82.1606L106.235 74.3098C106.235 74.3098 106.234 74.3097 106.234 74.3111C103.568 75.849 99.2611 75.8503 96.6133 74.3111L96.6355 82.1632Z" fill="#E2EAF7"/>
<path d="M41.6587 40.1399L96.6051 72.0383C99.2531 73.5772 103.561 73.5766 106.226 72.0378L126.571 60.2919C129.621 58.5308 129.637 55.6754 126.608 53.9149L72.353 22.4185L41.6587 40.1399Z" fill="#BDCEEC"/>
<path d="M101.409 71.8742C102.975 71.8742 104.491 71.5178 105.567 70.8965L125.912 59.1505C126.953 58.5495 127.55 57.7985 127.551 57.09C127.552 56.3898 126.967 55.648 125.946 55.0543L72.3509 23.9416L44.2882 40.1436L97.2674 70.8987C98.3341 71.5186 99.8435 71.8742 101.409 71.8742Z" fill="#3F434C"/>
<path d="M101.409 70.2268C102.676 70.2268 103.923 69.9438 104.744 69.4698L125.088 57.7239C125.546 57.4599 125.775 57.2197 125.867 57.0897C125.777 56.9636 125.555 56.7327 125.118 56.4787L72.3485 25.8455L47.5754 40.1483L98.0955 69.4743C98.9062 69.9456 100.145 70.2268 101.409 70.2268Z" fill="#171D1C"/>
<path d="M56.4624 48.7094L56.4689 50.9811L96.6128 74.3097L96.6063 72.038L56.4624 48.7094Z" fill="#E5ECF3"/>
<path d="M56.4686 50.9811L56.4985 61.1049L56.5571 81.2016L96.6997 104.53L96.6125 74.3097L56.4686 50.9811Z" fill="#ECF3FB"/>
<path d="M56.4751 66.8662L56.5531 81.2042L56.8329 81.3669L82.1392 96.0718L91.7451 101.655L91.7347 99.9712L91.7152 96.3984L91.6931 92.1425L91.684 90.5708V90.5695L83.5886 95.2365H83.5873L61.6456 82.4858L58.2836 80.5315L58.2823 80.5302H58.2836L69.1789 74.2486L67.8167 73.4575L57.8621 67.6715L56.4751 66.8662Z" fill="#3F434C"/>
<path d="M83.5892 95.2365H83.5879L83.5892 95.2378L84.9514 96.0289L88.64 98.1718L91.7354 99.9712L91.7158 96.3984L91.6937 92.1425L91.6846 90.5708V90.5695L83.5892 95.2365Z" fill="#2A3134"/>
<path d="M57.8623 67.6715L57.9234 79.1615L57.9299 80.3259L58.2826 80.5302H58.2839L69.1792 74.2485L67.817 73.4575L57.8623 67.6715Z" fill="#2A3134"/>
<path d="M31.5719 94.3545L31.584 98.6174L59.6143 114.907L59.6022 110.644L31.5719 94.3545Z" fill="#BDCEEC"/>
<path d="M59.6026 110.644L59.6143 114.906L59.6169 114.905L88.6391 98.1718L91.7148 96.3984L91.6927 92.1425L84.9505 96.0289L59.6052 110.643L59.6026 110.644Z" fill="#94AAC4"/>
<path d="M31.571 94.3545L58.4698 109.986L59.3779 110.514L59.6017 110.644L59.6043 110.643L84.9496 96.029L91.6919 92.1426L91.6828 90.5709L91.6711 88.2432L91.6659 87.3194L69.1791 74.25L67.8155 73.4576L57.922 79.1616L33.0178 93.5205L31.571 94.3545Z" fill="#B6C7E0"/>
<path d="M58.2814 80.5304L58.2827 80.5317L61.6448 82.4859L83.5864 95.2366H83.5877L91.6831 90.5696L91.6714 88.2419L91.6662 87.3195L69.1794 74.25L69.1781 74.2487L58.2827 80.5304H58.2814Z" fill="#CCDBF2"/>
<path d="M69.1792 74.25L91.666 87.3195V87.3182L69.1792 74.2487H69.1779L69.1792 74.25Z" fill="#CCDBF2"/>
<path d="M34.301 94.3571L37.6591 96.3087L59.5774 109.046L59.6047 109.062L82.1383 96.0719L83.5864 95.2366L61.6448 82.4859L58.2828 80.5316L58.2815 80.5303L56.832 81.367L34.3817 94.3102L34.301 94.3571Z" fill="#CCDBF2"/>
<path d="M37.6591 96.31L59.5773 109.048L59.6046 109.063L83.5877 95.2379L91.6831 90.5709L91.6714 88.2433L71.7425 76.6648L61.6448 82.4859L37.7398 96.2632L37.6591 96.31Z" fill="#ECF3FB"/>
<path d="M34.3858 86.1474C39.0708 93.4345 48.2703 104.53 59.5773 109.048L91.6831 90.5709L91.6714 88.2432L71.7425 76.6648C57.0284 84.1324 41.2945 87.5471 34.3858 86.1474Z" fill="#C1E5A9"/>
<path d="M59.5795 109.084L59.5933 109.076L91.7153 90.5897L91.7035 88.2244L91.6874 88.2152L71.7432 76.6278L71.7275 76.6358C64.8615 80.1203 57.1911 82.9841 50.1291 84.6996C43.5616 86.295 37.8254 86.8109 34.3918 86.1155L34.3163 86.1002L34.358 86.1649C36.0008 88.7201 39.4995 93.741 44.475 98.6593C49.4206 103.548 54.4976 107.053 59.5649 109.078L59.5795 109.084ZM91.6501 90.5521L59.5744 109.012C46.5883 103.816 37.1153 90.3208 34.4542 86.1943C37.9523 86.8801 43.519 86.3724 50.1444 84.7629C57.2055 83.0475 64.875 80.1847 71.7412 76.7017L91.6386 88.262L91.6501 90.5521Z" fill="#9FD699"/>
<path d="M35.8077 84.8947C40.4927 92.1818 48.2703 104.53 59.5773 109.048L91.6831 90.5709L91.6714 88.2432L71.7425 76.6648C57.0283 84.1324 42.7164 86.2944 35.8077 84.8947Z" fill="#D9F7C4"/>
<path d="M59.5795 109.084L59.5933 109.076L91.7153 90.5897L91.7035 88.2244L91.6874 88.2152L71.7432 76.6278L71.7275 76.6358C64.9445 80.0782 57.722 82.65 50.8411 84.0731C44.8892 85.3041 39.4118 85.5921 35.8137 84.8628L35.7383 84.8475L36.04 85.3172C40.6834 92.5438 48.455 104.639 59.5649 109.078L59.5795 109.084ZM91.6501 90.5521L59.5744 109.012C48.4914 104.576 40.732 92.4991 36.0948 85.282L35.8761 84.9416C39.5337 85.6643 44.8481 85.3791 50.8543 84.1368C57.7354 82.7137 64.9577 80.1427 71.7412 76.7017L91.6386 88.262L91.6501 90.5521Z" fill="#9FD699"/>
<path d="M37.3963 83.316C42.0815 90.6034 48.2708 104.53 59.5773 109.048L89.2982 91.9435L91.6831 90.5709L91.6714 88.2432L71.7425 76.6648C70.3295 77.3817 68.9348 78.0348 67.5621 78.6294C54.6384 84.2255 43.6415 84.582 37.3963 83.316Z" fill="url(#paint0_linear_18291_720)"/>
<path d="M59.5795 109.084L59.5933 109.076L91.7153 90.5897L91.7035 88.2244L91.6874 88.2152L71.7432 76.6278L71.7275 76.6358C70.3534 77.333 68.9475 77.9937 67.5489 78.5996C51.7916 85.4225 40.4906 83.9101 37.4024 83.2841L37.3269 83.2688L37.3686 83.3335C38.2239 84.6639 39.1389 86.232 40.1076 87.892C42.3293 91.6993 44.8473 96.0147 48.0069 99.9105C51.6801 104.439 55.4606 107.438 59.5649 109.078L59.5795 109.084ZM91.6501 90.5521L59.5744 109.012C50.352 105.318 44.4636 95.228 40.1638 87.8593C39.2103 86.2254 38.3089 84.6806 37.4648 83.363C40.9678 84.0615 45.4078 84.1383 49.9784 83.5782C55.7493 82.8713 61.6695 81.2163 67.5748 78.6593C68.9693 78.0552 70.371 77.3966 71.7412 76.7017L91.6386 88.262L91.6501 90.5521Z" fill="#9FD699"/>
<path opacity="0.15" d="M90.305 91.3645L65.2344 76.5228L68.4716 74.6564L91.6724 88.2431L91.6841 90.5708L90.305 91.3645Z" fill="#6EB778"/>
<path d="M51.8384 68.6531L78.3843 84.2487C80.8621 85.7044 84.5201 84.6162 86.5525 81.8189L91.9101 74.4447L93.0967 75.728L87.7391 83.1021C85.7067 85.8995 82.0487 86.9876 79.5708 85.5319L53.025 69.9363C52.6556 69.7193 52.3333 69.458 52.0589 69.1613L50.8723 67.8781C51.1467 68.1748 51.4691 68.436 51.8384 68.6531Z" fill="#BDCEEC"/>
<path d="M51.0323 60.9505C48.9999 63.7479 49.3601 67.1967 51.839 68.653L78.3848 84.2486C80.8626 85.7043 84.5206 84.6162 86.553 81.8188L91.9106 74.4447L56.3899 53.5764L51.0323 60.9505Z" fill="#DDE6F5"/>
<path d="M28.2312 95.4925L28.2517 102.74C28.2526 103.057 28.4606 103.373 28.8765 103.615L28.8559 96.3667C28.4401 96.125 28.232 95.809 28.2312 95.4925Z" fill="#35373D"/>
<path d="M28.8555 96.3667L28.876 103.615L53.8755 118.143L53.855 110.895L28.8555 96.3667Z" fill="#3F434C"/>
<path d="M59.3755 109.463C59.5258 109.376 59.6009 109.262 59.6006 109.149L59.6211 116.396C59.6214 116.51 59.5463 116.624 59.396 116.711L56.9157 118.143L56.8952 110.895L59.3755 109.463Z" fill="#35373D"/>
<path d="M53.8556 110.895L53.8762 118.143C54.7126 118.629 56.0741 118.629 56.916 118.143L56.8955 110.895C56.0535 111.381 54.6921 111.381 53.8556 110.895Z" fill="#383B42"/>
<path d="M28.8663 94.6059C28.0244 95.092 28.0191 95.8801 28.8564 96.3667L53.8559 110.895C54.6923 111.381 56.0538 111.381 56.8957 110.895L59.376 109.463C59.6747 109.29 59.6763 109.011 59.3795 108.839L32.4243 93.1739C32.1276 93.0015 31.6453 93.0015 31.3466 93.1739L28.8663 94.6059Z" fill="#2A3134"/>
<path d="M39.0152 73.1307C39.0132 73.8752 39.5363 74.7815 40.1841 75.1548C40.832 75.529 41.3581 75.2292 41.3601 74.4848L41.3682 71.7395L39.0232 70.3764L39.0152 73.1307Z" fill="#FFA20E"/>
<path d="M39.0229 70.3764L41.3679 71.7395L41.3779 68.1361C41.3799 67.3917 40.8568 66.4863 40.209 66.1121C39.5621 65.7379 39.035 66.0377 39.033 66.7821L39.0229 70.3764Z" fill="#FCB43D"/>
<path d="M36.0147 71.4013C36.0127 72.1457 36.5358 73.0521 37.1837 73.4253C37.8315 73.7995 38.3576 73.4997 38.3596 72.7553L38.3677 70.01L36.0228 68.6469L36.0147 71.4013Z" fill="#3E76EF"/>
<path d="M36.0225 68.6469L38.3674 70.01L38.3774 66.4066C38.3795 65.6622 37.8563 64.7568 37.2085 64.3826C36.5616 64.0083 36.0345 64.3081 36.0325 65.0526L36.0225 68.6469Z" fill="#4F91FF"/>
<path d="M42.0338 74.8862C42.0317 75.6306 42.5549 76.536 43.2017 76.9102C43.8495 77.2834 44.3757 76.9837 44.3777 76.2402L44.3857 73.4929L42.0418 72.1308L42.0338 74.8862Z" fill="#ED4543"/>
<path d="M42.042 72.1308L44.3859 73.4929L44.396 69.8906C44.398 69.1471 43.8749 68.2408 43.2281 67.8676C42.5802 67.4933 42.0541 67.7931 42.0521 68.5375L42.042 72.1308Z" fill="#F16065"/>
<path d="M45.1373 76.6909C45.1352 77.4353 45.6583 78.3407 46.3062 78.7149C46.953 79.0881 47.4802 78.7883 47.4822 78.0439L47.4902 75.2966L45.1453 73.9346L45.1373 76.6909Z" fill="#2DCA7D"/>
<path d="M45.145 73.9345L47.4899 75.2966L47.5 71.6952C47.502 70.9508 46.9789 70.0454 46.3311 69.6712C45.6842 69.298 45.1571 69.5978 45.1551 70.3412L45.145 73.9345Z" fill="#3BE094"/>
<path d="M64.7959 63.9896L64.9509 64.1572C65.0198 64.2318 65.1009 64.2975 65.1937 64.352C65.8161 64.7177 66.7357 64.4441 67.2463 63.7414C67.6812 63.1427 67.6798 62.4263 67.2863 62.0007L67.1313 61.8331C67.5249 62.2587 67.5263 62.9751 67.0913 63.5739C66.5808 64.2765 65.6612 64.5501 65.0388 64.1844C64.9459 64.1299 64.8649 64.0642 64.7959 63.9896Z" fill="#A9C3EA"/>
<path d="M64.7994 63.9912C64.3161 63.4685 64.4466 62.5618 65.091 61.966C65.7353 61.3702 66.6494 61.3109 67.1327 61.8336C67.616 62.3563 67.4855 63.2629 66.8411 63.8587C66.1968 64.4545 65.2827 64.5138 64.7994 63.9912Z" fill="#ECF3FB"/>
<path d="M65.6623 63.566C65.8964 63.566 66.2337 63.4265 66.46 63.115C66.6045 62.9161 66.6688 62.6917 66.6318 62.5146C66.6029 62.3757 66.5205 62.3274 66.4935 62.3115C66.4313 62.275 66.3543 62.2565 66.2647 62.2565C65.9799 62.2565 65.6672 62.4336 65.4678 62.7079C65.3235 62.9067 65.2592 63.1311 65.2962 63.3083C65.3252 63.4471 65.4075 63.4955 65.4346 63.5114C65.4963 63.5476 65.5729 63.566 65.6623 63.566Z" fill="#BDCEEC"/>
<path d="M61.6953 62.1706L61.8503 62.3381C61.9193 62.4127 62.0003 62.4784 62.0931 62.5329C62.7155 62.8986 63.6352 62.625 64.1457 61.9224C64.5807 61.3236 64.5793 60.6072 64.1857 60.1816L64.0307 60.014C64.4243 60.4396 64.4257 61.1561 63.9907 61.7548C63.4802 62.4574 62.5606 62.731 61.9382 62.3653C61.8453 62.3108 61.7643 62.2451 61.6953 62.1706Z" fill="#A9C3EA"/>
<path d="M61.6983 62.1722C61.215 61.6495 61.3456 60.7428 61.9899 60.147C62.6342 59.5512 63.5484 59.4919 64.0317 60.0146C64.5149 60.5372 64.3844 61.4439 63.7401 62.0397C63.0957 62.6355 62.1816 62.6948 61.6983 62.1722Z" fill="#ECF3FB"/>
<path d="M62.5613 61.7468C62.7953 61.7468 63.1327 61.6074 63.359 61.2959C63.5034 61.097 63.5677 60.8725 63.5308 60.6954C63.5018 60.5565 63.4196 60.5082 63.3925 60.4924C63.3304 60.4558 63.2534 60.4373 63.1637 60.4373C62.8788 60.4373 62.5661 60.6145 62.367 60.8886C62.2224 61.0875 62.1582 61.3121 62.1952 61.4893C62.2242 61.628 62.3065 61.6764 62.3335 61.6922C62.3951 61.7285 62.4718 61.7468 62.5613 61.7468Z" fill="#BDCEEC"/>
<path d="M58.5948 60.3512L58.7497 60.5188C58.8187 60.5933 58.8997 60.659 58.9926 60.7136C59.615 61.0792 60.5346 60.8056 61.0451 60.103C61.4801 59.5043 61.4787 58.7878 61.0851 58.3622L60.9301 58.1946C61.3237 58.6202 61.3251 59.3367 60.8901 59.9354C60.3796 60.6381 59.46 60.9116 58.8376 60.546C58.7447 60.4914 58.6637 60.4258 58.5948 60.3512Z" fill="#A9C3EA"/>
<path d="M58.5972 60.3528C58.1139 59.8301 58.2445 58.9234 58.8888 58.3276C59.5332 57.7318 60.4473 57.6725 60.9306 58.1952C61.4139 58.7179 61.2833 59.6245 60.639 60.2203C59.9947 60.8161 59.0805 60.8754 58.5972 60.3528Z" fill="#ECF3FB"/>
<path d="M59.4603 59.9275C59.6942 59.9275 60.0316 59.7881 60.2579 59.4766C60.4025 59.2777 60.4667 59.0533 60.4297 58.8762C60.4007 58.7373 60.3184 58.6889 60.2913 58.673C60.2293 58.6366 60.1523 58.618 60.0626 58.618C59.7779 58.618 59.465 58.7952 59.2659 59.0693C59.1213 59.2683 59.0572 59.4928 59.0941 59.67C59.1231 59.8087 59.2053 59.857 59.2324 59.8729C59.2941 59.9092 59.3708 59.9275 59.4603 59.9275Z" fill="#BDCEEC"/>
<path d="M62.2857 67.5067L62.4406 67.6743C62.5096 67.7489 62.5906 67.8146 62.6835 67.8691C63.3059 68.2348 64.2255 67.9612 64.736 67.2586C65.171 66.6599 65.1696 65.9434 64.776 65.5178L64.6211 65.3502C65.0146 65.7758 65.016 66.4923 64.581 67.091C64.0705 67.7936 63.1509 68.0672 62.5285 67.7015C62.4356 67.647 62.3546 67.5813 62.2857 67.5067Z" fill="#A9C3EA"/>
<path d="M62.2887 67.5082C61.8054 66.9856 61.9359 66.0789 62.5802 65.4831C63.2246 64.8873 64.1387 64.828 64.622 65.3507C65.1053 65.8733 64.9747 66.78 64.3304 67.3758C63.6861 67.9716 62.7719 68.0309 62.2887 67.5082Z" fill="#ECF3FB"/>
<path d="M63.1517 67.083C63.3857 67.083 63.723 66.9436 63.9493 66.6321C64.0938 66.4332 64.1581 66.2087 64.1211 66.0316C64.0921 65.8927 64.0099 65.8444 63.9828 65.8285C63.9207 65.7921 63.8437 65.7735 63.754 65.7735C63.4693 65.7735 63.1564 65.9507 62.9573 66.2248C62.8127 66.4237 62.7486 66.6483 62.7856 66.8254C62.8145 66.9642 62.8969 67.0125 62.9238 67.0284C62.9854 67.0646 63.0622 67.083 63.1517 67.083Z" fill="#BDCEEC"/>
<path d="M59.1861 65.6877L59.341 65.8552C59.41 65.9298 59.491 65.9955 59.5839 66.05C60.2063 66.4157 61.1259 66.1421 61.6364 65.4395C62.0714 64.8408 62.07 64.1243 61.6764 63.6987L61.5215 63.5311C61.915 63.9567 61.9164 64.6732 61.4814 65.2719C60.9709 65.9745 60.0513 66.2481 59.4289 65.8824C59.3361 65.8279 59.255 65.7622 59.1861 65.6877Z" fill="#A9C3EA"/>
<path d="M59.1886 65.6893C58.7053 65.1666 58.8358 64.2599 59.4801 63.6641C60.1245 63.0683 61.0386 63.009 61.5219 63.5317C62.0052 64.0544 61.8746 64.961 61.2303 65.5568C60.586 66.1527 59.6718 66.2119 59.1886 65.6893Z" fill="#ECF3FB"/>
<path d="M60.0516 65.2639C60.2856 65.2639 60.6229 65.1245 60.8491 64.813C60.9937 64.6141 61.0579 64.3896 61.021 64.2125C60.9921 64.0736 60.9097 64.0253 60.8827 64.0094C60.8205 63.9729 60.7435 63.9544 60.6538 63.9544C60.3691 63.9544 60.0563 64.1316 59.8572 64.4057C59.7126 64.6046 59.6484 64.8292 59.6854 65.0064C59.7143 65.1451 59.7966 65.1934 59.8236 65.2093C59.8854 65.2456 59.962 65.2639 60.0516 65.2639Z" fill="#BDCEEC"/>
<path d="M56.0855 63.8685L56.2404 64.0361C56.3094 64.1106 56.3904 64.1763 56.4833 64.2309C57.1057 64.5965 58.0253 64.3229 58.5358 63.6203C58.9708 63.0216 58.9694 62.3051 58.5758 61.8795L58.4209 61.7119C58.8144 62.1375 58.8158 62.854 58.3808 63.4527C57.8703 64.1554 56.9507 64.4289 56.3283 64.0633C56.2354 64.0087 56.1544 63.9431 56.0855 63.8685Z" fill="#A9C3EA"/>
<path d="M56.0885 63.8698C55.6052 63.3472 55.7357 62.4405 56.38 61.8447C57.0244 61.2489 57.9385 61.1896 58.4218 61.7123C58.9051 62.2349 58.7745 63.1416 58.1302 63.7374C57.4859 64.3332 56.5718 64.3925 56.0885 63.8698Z" fill="#ECF3FB"/>
<path d="M56.9519 63.4448C57.1859 63.4448 57.5233 63.3054 57.7496 62.9938C57.8941 62.795 57.9584 62.5705 57.9214 62.3934C57.8924 62.2545 57.8101 62.2062 57.783 62.1903C57.7209 62.1538 57.6439 62.1353 57.5543 62.1353C57.2694 62.1353 56.9567 62.3125 56.7574 62.5867C56.613 62.7855 56.5488 63.01 56.5857 63.1872C56.6147 63.3259 56.6971 63.3743 56.7241 63.3902C56.7857 63.4264 56.8625 63.4448 56.9519 63.4448Z" fill="#BDCEEC"/>
<path d="M59.7764 71.0238L59.9314 71.1914C60.0003 71.266 60.0814 71.3317 60.1742 71.3862C60.7966 71.7519 61.7162 71.4783 62.2267 70.7756C62.6617 70.177 62.6603 69.4605 62.2668 69.0349L62.1118 68.8673C62.5053 69.2929 62.5067 70.0093 62.0717 70.6081C61.5612 71.3107 60.6416 71.5843 60.0192 71.2186C59.9264 71.1641 59.8454 71.0984 59.7764 71.0238Z" fill="#A9C3EA"/>
<path d="M59.7794 71.0252C59.2961 70.5026 59.4266 69.5959 60.071 69.0001C60.7153 68.4043 61.6294 68.345 62.1127 68.8677C62.596 69.3903 62.4655 70.297 61.8211 70.8928C61.1768 71.4886 60.2627 71.5479 59.7794 71.0252Z" fill="#ECF3FB"/>
<path d="M60.6428 70.6001C60.8767 70.6001 61.2142 70.4606 61.4405 70.1491C61.585 69.9503 61.6493 69.7259 61.6123 69.5488C61.5833 69.4099 61.501 69.3615 61.4739 69.3457C61.4118 69.3091 61.3348 69.2907 61.2451 69.2907C60.9602 69.2907 60.6475 69.4678 60.4484 69.7419C60.3039 69.9408 60.2396 70.1653 60.2766 70.3425C60.3056 70.4814 60.3879 70.5298 60.415 70.5457C60.4766 70.5817 60.5532 70.6001 60.6428 70.6001Z" fill="#BDCEEC"/>
<path d="M56.6773 69.2047L56.8322 69.3723C56.9012 69.4469 56.9822 69.5126 57.0751 69.5671C57.6975 69.9328 58.6171 69.6592 59.1276 68.9565C59.5626 68.3579 59.5612 67.6414 59.1676 67.2158L59.0127 67.0482C59.4062 67.4738 59.4076 68.1903 58.9726 68.789C58.4621 69.4916 57.5425 69.7652 56.9201 69.3995C56.8272 69.345 56.7462 69.2793 56.6773 69.2047Z" fill="#A9C3EA"/>
<path d="M56.6807 69.2065C56.1974 68.6838 56.328 67.7771 56.9723 67.1813C57.6167 66.5855 58.5308 66.5262 59.0141 67.0489C59.4974 67.5716 59.3668 68.4782 58.7225 69.074C58.0782 69.6698 57.164 69.7291 56.6807 69.2065Z" fill="#ECF3FB"/>
<path d="M57.5432 68.7811C57.7773 68.7811 58.1146 68.6417 58.3409 68.3301C58.4854 68.1313 58.5497 67.9068 58.5127 67.7297C58.4837 67.5908 58.4014 67.5425 58.3743 67.5265C58.3123 67.4901 58.2353 67.4715 58.1456 67.4715C57.8607 67.4715 57.548 67.6487 57.3487 67.923C57.2043 68.1217 57.1402 68.3463 57.1772 68.5235C57.2061 68.6622 57.2883 68.7106 57.3154 68.7264C57.3772 68.7627 57.4538 68.7811 57.5432 68.7811Z" fill="#BDCEEC"/>
<path d="M53.5757 67.3855L53.7307 67.5531C53.7996 67.6277 53.8806 67.6934 53.9735 67.7479C54.5959 68.1136 55.5155 67.84 56.026 67.1373C56.461 66.5387 56.4596 65.8222 56.0661 65.3965L55.9111 65.229C56.3046 65.6546 56.306 66.371 55.8711 66.9698C55.3606 67.6724 54.4409 67.946 53.8185 67.5803C53.7257 67.5258 53.6447 67.4601 53.5757 67.3855Z" fill="#A9C3EA"/>
<path d="M53.5787 67.3871C53.0954 66.8645 53.2259 65.9578 53.8703 65.362C54.5146 64.7662 55.4287 64.7069 55.912 65.2295C56.3953 65.7522 56.2648 66.6589 55.6204 67.2547C54.9761 67.8505 54.062 67.9098 53.5787 67.3871Z" fill="#ECF3FB"/>
<path d="M54.4418 66.9618C54.6757 66.9618 55.0131 66.8224 55.2393 66.5109C55.3838 66.312 55.4481 66.0875 55.4111 65.9104C55.3822 65.7715 55.3 65.7233 55.2729 65.7074C55.2108 65.6708 55.1338 65.6523 55.044 65.6523C54.7592 65.6523 54.4465 65.8295 54.2474 66.1036C54.1028 66.3025 54.0386 66.5271 54.0756 66.7043C54.1046 66.843 54.1869 66.8914 54.2138 66.9072C54.2755 66.9435 54.3522 66.9618 54.4418 66.9618Z" fill="#BDCEEC"/>
<path d="M81.2182 79.6995L81.471 79.9729C81.5835 80.0945 81.7157 80.2017 81.8671 80.2906C82.8823 80.8871 84.3824 80.4408 85.2151 79.2947C85.9247 78.3181 85.9224 77.1494 85.2805 76.4552L85.0277 76.1818C85.6696 76.876 85.6719 78.0447 84.9624 79.0213C84.1296 80.1675 82.6295 80.6137 81.6143 80.0173C81.4629 79.9283 81.3307 79.8212 81.2182 79.6995Z" fill="#A9C3EA"/>
<path d="M81.2216 79.7007C80.4332 78.8481 80.6462 77.3691 81.6972 76.3973C82.7482 75.4254 84.2393 75.3287 85.0276 76.1813C85.816 77.0338 85.6031 78.5128 84.552 79.4847C83.501 80.4565 82.0099 80.5532 81.2216 79.7007Z" fill="#ECF3FB"/>
<path d="M83.2568 77.4602C83.2036 77.5334 83.2124 77.6242 83.2772 77.6622C83.3428 77.7008 83.4388 77.6715 83.492 77.5983L84.1565 76.6837C84.2097 76.6105 84.2003 76.5206 84.1346 76.4821C84.0698 76.444 83.9745 76.4723 83.9214 76.5455L83.2568 77.4602Z" fill="#ED4543"/>
<path d="M81.8737 77.4224C81.338 78.1598 81.4775 79.0824 82.2068 79.389C82.7576 79.6216 83.498 79.402 83.9707 78.8672C84.0125 78.82 84.0512 78.7717 84.0869 78.7226C84.3806 78.3183 84.4692 77.8584 84.3692 77.475C84.3442 77.3773 84.2054 77.3774 84.1359 77.4731C84.1093 77.5097 84.1007 77.5542 84.1101 77.5918C84.1887 77.903 84.116 78.2739 83.8789 78.6004C83.4617 79.1745 82.702 79.3895 82.2064 79.0648C81.7635 78.7752 81.6918 78.128 82.0434 77.5984C82.055 77.581 82.0669 77.564 82.0791 77.5472C82.3171 77.2196 82.6666 77.0086 83.0157 76.9489C83.0578 76.9415 83.0997 76.9165 83.1262 76.88C83.1958 76.7843 83.1401 76.6699 83.0312 76.6876C82.6006 76.7598 82.1675 77.0181 81.8737 77.4224Z" fill="#ED4543"/>
<path d="M63.7207 72.7489L74.9836 79.3658L81.062 70.9996L69.7991 64.3827L63.7207 72.7489Z" fill="#2A3134"/>
<path d="M64.8581 72.5116L71.1294 76.1963L71.7956 76.5866L72.2093 76.8299L73.5403 77.6119L73.9567 77.8565L74.7686 78.334L75.5609 77.2437L79.9248 71.2365L73.8435 67.6637L71.9283 66.5383L71.5119 66.2937L70.1809 65.5117L70.0144 65.4141L69.8361 65.6587L69.3586 66.3158L64.8581 72.5116Z" fill="#171D1C"/>
<path d="M71.9284 66.5383L73.9568 77.8565L74.7687 78.334L75.561 77.2437L73.8436 67.6637L71.9284 66.5383Z" fill="#565C66"/>
<path d="M70.1811 65.5117L72.2095 76.8299L73.5405 77.6119L71.5121 66.2937L70.1811 65.5117Z" fill="#565C66"/>
<path d="M69.3589 66.3158L71.1297 76.1963L71.7959 76.5866L69.8365 65.6587L69.3589 66.3158Z" fill="#565C66"/>
<path d="M41.7057 32.3559L41.7174 36.2878C41.7812 36.803 42.1507 37.3065 42.8273 37.6995L96.5468 68.9179C99.0996 70.4011 103.251 70.4011 105.82 68.9179L126.815 56.7969C128.257 55.9642 128.979 54.8726 128.979 53.781L128.99 57.2835C128.997 57.2093 129 57.1339 129 57.0597L128.979 50.0078C128.979 51.0981 128.257 52.1897 126.815 53.0224L105.82 65.1434C103.251 66.6266 99.0996 66.6266 96.5468 65.1434L42.8273 33.925C42.0817 33.4917 41.7083 32.9245 41.7057 32.3559Z" fill="#BDCEEC"/>
<path d="M41.7176 36.2878L41.7267 39.4169C41.728 39.9855 42.1014 40.5541 42.8483 40.9873L96.5678 72.2058C99.1192 73.689 103.271 73.689 105.839 72.2058L126.835 60.0848C128.182 59.3067 128.901 58.3023 128.99 57.2835L128.979 53.781C128.979 54.8726 128.257 55.9642 126.816 56.7969L105.82 68.9179C103.252 70.4011 99.0997 70.4011 96.547 68.9179L42.8274 37.6995C42.1509 37.3065 41.7814 36.803 41.7176 36.2878Z" fill="#A5BFE5"/>
<path d="M42.8452 30.7643C41.3333 31.6372 41.3261 33.0525 42.8282 33.9254L96.5473 65.1435C99.0999 66.6269 103.252 66.627 105.82 65.144L126.815 53.0224C129.689 51.3635 129.703 48.6743 126.849 47.0158L75.5779 17.2202C73.026 15.7372 68.8736 15.7367 66.3042 17.2202L42.8452 30.7643Z" fill="#DDE6F5"/>
<path d="M53.7096 33.9209L88.9265 54.3867C89.8184 54.9051 90.9196 54.9066 91.813 54.3908L108.411 44.8081C109.303 44.2929 109.305 43.0057 108.414 42.488L73.1972 22.0222C72.3052 21.5039 71.2041 21.5023 70.3107 22.0182L53.7129 31.6009C52.8206 32.116 52.8188 33.4032 53.7096 33.9209Z" fill="#2A3134"/>
<path d="M55.5876 34.2152L60.0842 36.8278C59.2567 36.3464 59.258 35.1481 60.0894 34.668L75.5464 25.7438C76.3531 25.2793 77.3406 25.265 78.1577 25.7034L73.7366 23.1338C72.9065 22.6511 71.8812 22.6498 71.0485 23.1299L55.5903 32.0541C54.7602 32.5342 54.7575 33.7325 55.5876 34.2152Z" fill="#171D1C"/>
<path d="M60.0846 36.8278C60.0846 36.8291 60.086 36.8291 60.086 36.8291L88.1167 53.1188L88.386 53.2749C89.2174 53.7576 90.2427 53.7602 91.0741 53.2788L106.532 44.3546C107.364 43.8745 107.365 42.6762 106.535 42.1935L78.2362 25.7476C78.2102 25.732 78.1842 25.7177 78.1581 25.7034C77.341 25.265 76.3535 25.2793 75.5468 25.7438L75.2697 25.9038L60.0898 34.668C59.2585 35.1481 59.2571 36.3464 60.0846 36.8278Z" fill="#3F434C"/>
<path d="M62.6345 35.7518L65.3251 37.3157L67.5383 38.6012L73.3359 41.9697L73.4973 42.0647L73.8043 42.2429L78.1786 44.784L89.4955 51.361C89.5684 51.4039 89.6517 51.426 89.7349 51.426C89.8156 51.426 89.895 51.4052 89.9652 51.3649L100.875 45.0676L103.986 43.2708L94.8691 37.9727L92.7197 36.7237L77.1053 27.6486C77.0389 27.6148 76.9634 27.5965 76.8893 27.5965C76.806 27.5965 76.7227 27.6186 76.6499 27.6603L67.8519 32.7398L66.7095 33.3981L66.3973 33.579L64.3077 34.7851L63.5531 35.2223L62.6345 35.7518Z" fill="#171D1C"/>
<path d="M60.8065 22.6104C58.0879 24.3627 57.5302 28.1061 59.6199 30.5748L63.5538 35.2222L65.3259 37.3157L67.5391 38.6011L64.3201 34.7993L64.3084 34.785L60.1358 29.8565C60.1293 29.8487 60.1228 29.8409 60.1176 29.8331C58.0957 27.4169 58.7411 23.7582 61.472 22.1813L60.8065 22.6104Z" fill="#424E51"/>
<path d="M60.1184 29.833C60.1236 29.8408 60.1301 29.8486 60.1366 29.8564L64.3092 34.785L64.3209 34.7993L67.5398 38.6011L89.4971 51.3609C89.5699 51.4039 89.6532 51.426 89.7365 51.426C89.8172 51.426 89.8965 51.4051 89.9668 51.3648L100.876 45.0675L99.7783 43.7703L94.8706 37.9727L77.583 17.5481C76.0464 15.7331 73.4312 15.2777 71.3703 16.4669L61.4728 22.1813C58.7418 23.7582 58.0965 27.4169 60.1184 29.833Z" fill="#58686D"/>
<path d="M53.5457 20.1703L71.9143 41.1323L72.064 41.2204L72.349 41.3858L76.4089 43.7442L89.9047 36.2633L90.5947 35.8809L71.8575 10.0204L69.0053 11.6011L66.2435 13.1323L59.882 16.6584L56.7592 18.39L53.5457 20.1703Z" fill="#E1E8EF"/>
<path d="M76.409 43.7616L76.4165 43.7575L90.6172 35.8858L90.6072 35.8721L71.862 10.0006L53.5224 20.1662L53.5347 20.1803L71.9048 41.144L72.0566 41.2335L76.409 43.7616ZM90.5727 35.8759L76.4093 43.7269L71.9243 41.1205L53.5696 20.1744L71.8534 10.04L90.5727 35.8759Z" fill="#ACC5E8"/>
<path d="M65.6173 18.4565L65.9019 18.811L58.4806 24.7686L58.196 24.414L65.6173 18.4565Z" fill="#FF1D25"/>
<path d="M66.6944 19.7622L66.979 20.1167L59.5578 26.0742L59.2732 25.7197L66.6944 19.7622Z" fill="#2A3134"/>
<path d="M67.7725 21.0673L68.0571 21.4218L60.6359 27.3794L60.3513 27.0249L67.7725 21.0673Z" fill="#2A3134"/>
<path d="M68.8497 22.3735L69.1343 22.728L61.713 28.6856L61.4284 28.3311L68.8497 22.3735Z" fill="#2A3134"/>
<path d="M69.9278 23.679L70.2124 24.0335L62.7911 29.9911L62.5065 29.6366L69.9278 23.679Z" fill="#2A3134"/>
<path d="M71.005 24.9841L71.2896 25.3386L63.8682 31.2963L63.5836 30.9417L71.005 24.9841Z" fill="#2A3134"/>
<path d="M72.0831 26.289L72.3677 26.6435L66.389 31.443L66.1044 31.0885L72.0831 26.289Z" fill="#2A3134"/>
<path d="M73.1607 27.5951L73.4453 27.9496L69.7347 30.9283L69.4501 30.5738L73.1607 27.5951Z" fill="#2A3134"/>
<path d="M55.6338 14.946C55.9127 16.0727 56.2919 17.2223 56.7592 18.39C58.6334 23.0706 61.9192 28.0542 65.7641 33.1767C67.753 35.8286 69.8928 38.5166 72.064 41.2204L72.349 41.3858L76.4089 43.7442L89.9047 36.2633L90.5947 35.8809L71.8575 10.0203C69.8155 11.2991 68.0151 12.3388 66.2435 13.1322C64.0324 14.1224 61.8685 14.7274 59.341 14.9267C58.1926 15.0173 56.9694 15.0245 55.6338 14.946Z" fill="#E6EDF4"/>
<path d="M76.409 43.7615L76.4165 43.7574L90.6172 35.8858L90.6072 35.872L71.8617 10L71.8498 10.0075C69.5025 11.4776 67.824 12.4079 66.2375 13.1184C63.9276 14.153 61.7358 14.7228 59.3401 14.9116C58.1812 15.0029 56.9693 15.0092 55.6349 14.931L55.6144 14.9298L55.6194 14.9496C55.8919 16.0501 56.2707 17.2094 56.7455 18.3956C58.3795 22.4765 61.2415 27.1762 65.7523 33.1859C67.8327 35.9598 70.0952 38.7925 72.0524 41.2299L72.0566 41.2335L72.3416 41.3989L76.409 43.7615ZM90.5727 35.8759L76.4093 43.7268L72.0743 41.2087C70.1175 38.772 67.856 35.9404 65.7764 33.1676C61.2672 27.1602 58.4065 22.4627 56.7734 18.3843C56.3022 17.2066 55.9253 16.0553 55.6535 14.9622C56.9813 15.0395 58.188 15.0327 59.3423 14.9417C61.7417 14.7525 63.9366 14.1819 66.25 13.146C67.835 12.4361 69.5116 11.507 71.8538 10.0405L90.5727 35.8759Z" fill="#ACC5E8"/>
<path d="M68.4461 17.1414L68.6733 17.5349L60.4317 22.2934L60.2045 21.8998L68.4461 17.1414Z" fill="#FF1D25"/>
<path d="M69.3123 18.5956L69.5396 18.9891L61.2979 23.7476L61.0707 23.354L69.3123 18.5956Z" fill="#2A3134"/>
<path d="M70.1795 20.0498L70.4067 20.4434L62.1651 25.2018L61.9379 24.8082L70.1795 20.0498Z" fill="#2A3134"/>
<path d="M71.0462 21.5041L71.2734 21.8977L63.0318 26.6561L62.8046 26.2626L71.0462 21.5041Z" fill="#2A3134"/>
<path d="M71.9124 22.9583L72.1396 23.3519L63.898 28.1103L63.6708 27.7168L71.9124 22.9583Z" fill="#2A3134"/>
<path d="M72.7786 24.4126L73.0059 24.8061L64.7642 29.5646L64.537 29.171L72.7786 24.4126Z" fill="#2A3134"/>
<path d="M73.6453 25.867L73.8726 26.2605L67.233 30.094L67.0057 29.7004L73.6453 25.867Z" fill="#2A3134"/>
<path d="M74.512 27.3213L74.7393 27.7149L70.6185 30.0941L70.3912 29.7006L74.512 27.3213Z" fill="#2A3134"/>
<path d="M58.5476 12.0346C58.7759 12.9559 59.0403 13.9232 59.341 14.9267C59.5101 15.4918 59.69 16.0703 59.882 16.6583C61.4639 21.5055 63.8078 27.0652 66.8244 32.5657C68.4703 35.5653 70.3167 38.5468 72.349 41.3858L76.4089 43.7442L88.089 37.2696L90.5947 35.8809L71.8575 10.0203C70.8106 10.676 69.8711 11.1965 69.0053 11.601C65.1193 13.4184 62.7017 12.9233 58.5476 12.0346Z" fill="#ECF3FB"/>
<path d="M76.409 43.7615L76.4165 43.7574L90.6172 35.8858L90.6072 35.872L71.8617 10L71.8498 10.0075C70.8013 10.6642 69.8688 11.181 68.9992 11.5874C65.0849 13.4179 62.6257 12.8916 58.551 12.0198L58.5274 12.0147L58.5332 12.0382C58.7652 12.9747 59.0323 13.948 59.3267 14.931C59.5041 15.5238 59.6862 16.1065 59.8679 16.663C61.5809 21.9118 63.9818 27.4134 66.8114 32.573C68.5308 35.7067 70.3898 38.6747 72.3369 41.3946L72.3416 41.3989L76.409 43.7615ZM90.5727 35.8759L76.4093 43.7268L72.3596 41.3744C70.4138 38.656 68.5561 35.69 66.8379 32.5584C64.0092 27.4004 61.609 21.9007 59.8966 16.6536C59.715 16.0973 59.5329 15.5149 59.3557 14.9223C59.0638 13.948 58.7989 12.9832 58.5683 12.0543C62.6351 12.9243 65.0968 13.4456 69.0119 11.6147C69.8794 11.2093 70.8091 10.6943 71.8538 10.0405L90.5727 35.8759Z" fill="#ACC5E8"/>
<g opacity="0.12">
<path d="M89.7355 49.5682L99.7774 43.7705L100.875 45.0677L89.9658 51.365C89.8955 51.4053 89.8162 51.4261 89.7355 51.4261C89.6522 51.4261 89.569 51.404 89.4961 51.3611C81.2999 46.6394 73.2392 41.9565 65.3257 37.3158L89.7355 49.5682Z" fill="#171D1C"/>
</g>
<path d="M72.6185 16.5606L72.8457 16.9542L64.6041 21.7127L64.3768 21.3191L72.6185 16.5606Z" fill="#FF1D25"/>
<path d="M73.5106 17.7808L73.7378 18.1744L65.4962 22.9329L65.2689 22.5393L73.5106 17.7808Z" fill="#2A3134"/>
<path d="M74.4935 19.0867L74.7207 19.4803L66.479 24.2388L66.2517 23.8452L74.4935 19.0867Z" fill="#2A3134"/>
<path d="M75.5169 20.4607L75.7441 20.8543L66.933 25.9416L66.7058 25.548L75.5169 20.4607Z" fill="#2A3134"/>
<path d="M76.4725 21.8482L76.6997 22.2418L67.221 27.7145L66.9938 27.3209L76.4725 21.8482Z" fill="#2A3134"/>
<path d="M77.3865 23.1688L77.6138 23.5624L69.3721 28.3209L69.1449 27.9273L77.3865 23.1688Z" fill="#2A3134"/>
<path d="M84.7527 33.7132L84.98 34.1068L76.7383 38.8652L76.5111 38.4716L84.7527 33.7132Z" fill="#3FA9F5"/>
<path d="M84.1848 32.762L84.4121 33.1556L81.6608 34.7441L81.4335 34.3505L84.1848 32.762Z" fill="#3FA9F5"/>
<path d="M78.4075 24.6152L78.6348 25.0088L71.9951 28.8423L71.7678 28.4487L78.4075 24.6152Z" fill="#2A3134"/>
<path d="M79.4461 26.2119L79.6733 26.6055L75.5525 28.9847L75.3252 28.5911L79.4461 26.2119Z" fill="#2A3134"/>
<path d="M15.5348 108.175L12 115.263L32.924 124.634L37.1439 115.456L15.5348 108.175Z" fill="white"/>
<path d="M28.6718 114.819L15.5347 110.818L36.1906 118.82L28.6718 114.819Z" fill="#BDC4C8"/>
<path d="M30.3592 117.205L17.2217 113.204L37.878 121.206L30.3592 117.205Z" fill="#BDC4C8"/>
<path d="M18.5894 102C18.5894 102 23.3898 108.932 39.1046 117.642C39.1046 117.642 25.159 113.271 18.5894 102Z" fill="white"/>
<path d="M11.1941 5.99476C11.1941 5.99476 14.4127 17.1011 17.7569 18.5527C17.7569 18.5527 4.37896 9.27617 4 0C4 0 6.27158 4.48037 11.1941 5.99476Z" fill="white"/>
<path d="M123.167 9.99992C123.167 9.99992 125.701 19.1875 132.037 21.7221C132.037 21.7221 115.088 27.5826 126.81 35.9785C126.81 35.9785 109.702 24.8901 123.167 9.99992Z" fill="white"/>
<path d="M119.163 16.0457C119.136 20.0011 119.743 25.8232 122.788 31.0073C123.129 32.5292 124.321 34.1965 126.81 35.9789C126.81 35.9789 114.183 27.7941 119.163 16.0457Z" fill="#BDC4C8"/>
<path d="M138 107.675C130.13 108.328 130.946 119.429 123.075 120.083C120.394 116.858 117.714 113.633 115.033 110.408C122.903 109.755 122.087 98.654 129.957 98.0005C132.638 101.225 135.319 104.45 138 107.675Z" fill="white"/>
<g opacity="0.3">
<path d="M127.892 98.4713C126.837 98.8851 125.977 99.5321 125.23 100.314L133.105 110.166C133.836 109.363 134.678 108.694 135.704 108.246L127.892 98.4713Z" fill="#BDC4C8"/>
<path d="M117.832 109.593C117.032 110.025 116.117 110.318 115.033 110.408C117.714 113.633 120.394 116.858 123.075 120.083C124.062 120 124.911 119.755 125.659 119.385L117.832 109.593Z" fill="#BDC4C8"/>
</g>
<path d="M106.688 122.028C106.4 121.911 106.105 121.814 105.805 121.736C105.651 121.696 105.497 121.666 105.341 121.638C105.262 121.625 105.106 121.581 105.143 121.646C105.017 121.432 104.969 121.138 104.899 120.902C104.726 120.31 104.543 119.71 104.415 119.105C104.402 119.043 104.36 119.011 104.313 119.004C104.309 119.004 104.305 119.003 104.303 119.003C104.302 119.003 104.301 119.002 104.301 119.002C104.294 119.001 104.286 119 104.277 119C104.265 119 104.252 119 104.239 119C104.178 119 104.114 119.043 104.101 119.105C103.971 119.702 103.746 120.292 103.551 120.87C103.466 121.123 103.39 121.394 103.267 121.632C103.275 121.617 103.231 121.614 103.15 121.626C102.996 121.648 102.844 121.678 102.692 121.713C102.358 121.789 102.031 121.9 101.714 122.028C101.603 122.073 101.564 122.221 101.68 122.291C102.034 122.505 102.424 122.633 102.812 122.772C102.988 122.834 103.162 122.901 103.339 122.96C103.422 122.987 103.503 123.009 103.546 123.089C103.592 123.173 103.598 123.297 103.615 123.39C103.656 123.622 103.684 123.856 103.729 124.087C103.828 124.598 103.972 125.098 104.062 125.61C104.086 125.748 104.315 125.748 104.339 125.61C104.422 125.135 104.548 124.668 104.65 124.196C104.727 123.844 104.714 123.422 104.856 123.089C104.926 122.924 105.352 122.861 105.496 122.806C105.912 122.646 106.338 122.523 106.722 122.291C106.837 122.221 106.799 122.073 106.688 122.028Z" fill="white"/>
<path d="M43.4935 15.0281C43.2053 14.9111 42.9111 14.8145 42.6104 14.7356C42.4571 14.6958 42.3025 14.6656 42.1463 14.6383C42.0681 14.6251 41.9113 14.5809 41.949 14.6459C41.823 14.4316 41.7746 14.1384 41.705 13.9023C41.5313 13.3098 41.3483 12.7102 41.2209 12.1055C41.2079 12.0427 41.1659 12.0111 41.1182 12.0039C41.115 12.0036 41.111 12.0029 41.1085 12.0029C41.1078 12.0029 41.1071 12.0025 41.1064 12.0025C41.0988 12.0014 41.0913 12 41.0831 12C41.0705 12 41.0576 12 41.045 12C40.984 12 40.9198 12.0434 40.9065 12.1055C40.7769 12.7019 40.5516 13.2919 40.3571 13.8697C40.272 14.1234 40.1959 14.3936 40.0725 14.6326C40.0808 14.6175 40.037 14.6139 39.9555 14.6258C39.8012 14.648 39.6498 14.6778 39.4972 14.7126C39.1635 14.7887 38.8366 14.8996 38.5197 15.0281C38.4088 15.0733 38.3701 15.2211 38.4853 15.2907C38.8395 15.5053 39.2299 15.6331 39.6178 15.7716C39.7937 15.8344 39.9674 15.9012 40.145 15.9597C40.2272 15.9869 40.3083 16.0092 40.3513 16.0888C40.3973 16.1735 40.4037 16.2973 40.4202 16.3899C40.4619 16.6221 40.4895 16.8557 40.5344 17.0876C40.6334 17.5979 40.778 18.0977 40.8681 18.6102C40.8921 18.748 41.1204 18.748 41.1448 18.6102C41.228 18.1347 41.3533 17.6682 41.4555 17.1966C41.5323 16.8446 41.5194 16.4222 41.6615 16.0892C41.7315 15.9252 42.1578 15.8613 42.3014 15.8064C42.718 15.6467 43.1433 15.5236 43.5276 15.2911C43.6432 15.2208 43.6044 15.0733 43.4935 15.0281Z" fill="white"/>
<path d="M5.07798 99.0277C4.78982 98.9107 4.49555 98.8142 4.19483 98.7352C4.0416 98.6954 3.88693 98.6652 3.73082 98.6383C3.65259 98.6251 3.49577 98.5809 3.53345 98.6459C3.40749 98.4316 3.35904 98.1384 3.28943 97.9023C3.11574 97.3098 2.93272 96.7102 2.80532 96.1055C2.79241 96.0427 2.75042 96.0111 2.70269 96.0039C2.69946 96.0036 2.69551 96.0032 2.693 96.0029C2.69228 96.0029 2.69157 96.0025 2.69085 96.0025C2.68331 96.0014 2.67578 96 2.66752 96C2.65496 96 2.64204 96 2.62948 96C2.56848 96 2.50424 96.0434 2.49096 96.1055C2.36142 96.7019 2.13605 97.2919 1.94155 97.8697C1.8565 98.1234 1.78042 98.3936 1.65697 98.6322C1.66523 98.6172 1.62145 98.6136 1.53998 98.6254C1.38567 98.6477 1.23388 98.6775 1.08172 98.7123C0.747982 98.7883 0.42106 98.8989 0.104187 99.0277C-0.00670086 99.0729 -0.045458 99.2208 0.069736 99.2904C0.423931 99.505 0.814371 99.6327 1.2023 99.7713C1.37814 99.8341 1.55183 99.9008 1.72946 99.9593C1.81164 99.9866 1.89274 100.009 1.93581 100.088C1.98174 100.173 1.98784 100.297 2.00471 100.39C2.04634 100.622 2.07397 100.855 2.11883 101.087C2.21787 101.597 2.36249 102.097 2.45257 102.61C2.47661 102.748 2.70484 102.748 2.72925 102.61C2.8125 102.134 2.93774 101.668 3.04002 101.196C3.11681 100.844 3.1039 100.422 3.246 100.088C3.31598 99.9245 3.74231 99.8606 3.88585 99.8057C4.30249 99.646 4.72774 99.5229 5.11208 99.29C5.22763 99.2208 5.18887 99.0729 5.07798 99.0277Z" fill="white"/>
<path d="M37.7182 21.0522C37.2793 20.8742 36.8322 20.7281 36.3761 20.6075C36.1424 20.5465 35.9063 20.5006 35.6698 20.4597C35.5518 20.4399 35.3128 20.3728 35.3695 20.4712C35.1796 20.1457 35.1053 19.7007 34.9998 19.3415C34.7357 18.4407 34.4576 17.5292 34.2642 16.6105C34.2437 16.5151 34.1809 16.4674 34.1081 16.4562C34.1038 16.4555 34.0977 16.4552 34.0933 16.4544C34.0919 16.4544 34.0912 16.4541 34.0898 16.4541C34.0783 16.4516 34.0668 16.4501 34.0539 16.4501C34.0349 16.4501 34.0148 16.4501 33.9957 16.4501C33.9039 16.4501 33.8056 16.5162 33.7855 16.6102C33.5888 17.5167 33.2464 18.4131 32.9507 19.2916C32.8205 19.6774 32.7053 20.0879 32.5183 20.4507C32.5298 20.4281 32.4645 20.4224 32.3407 20.441C32.1064 20.4747 31.8756 20.5196 31.6431 20.5724C31.136 20.6879 30.6393 20.8566 30.1585 21.0522C29.9901 21.1207 29.9309 21.345 30.1053 21.4512C30.6444 21.7771 31.2372 21.9712 31.8275 22.1818C32.0945 22.2773 32.3586 22.3792 32.6285 22.4679C32.7534 22.5091 32.8765 22.5436 32.9421 22.6645C33.0118 22.7933 33.0218 22.981 33.0469 23.1224C33.1101 23.4755 33.1528 23.8308 33.2199 24.1825C33.3713 24.9583 33.591 25.7177 33.7273 26.4961C33.7646 26.7053 34.1106 26.7053 34.1479 26.4961C34.2746 25.7737 34.4651 25.0646 34.6202 24.3476C34.7364 23.8129 34.7174 23.1709 34.9331 22.6645C35.04 22.4151 35.6874 22.3182 35.9063 22.235C36.5397 21.992 37.1857 21.805 37.7699 21.4512C37.9454 21.3453 37.8865 21.1211 37.7182 21.0522Z" fill="white"/>
<defs>
<linearGradient id="paint0_linear_18291_720" x1="81.4469" y1="80.2851" x2="43.6407" y2="98.5191" gradientUnits="userSpaceOnUse">
<stop stop-color="#CCE5BC"/>
<stop offset="0.0081" stop-color="#CDE6BD"/>
<stop offset="0.1825" stop-color="#DFF1D1"/>
<stop offset="0.379" stop-color="#EBF9E0"/>
<stop offset="0.616" stop-color="#F3FEE8"/>
<stop offset="1" stop-color="#F5FFEB"/>
</linearGradient>
</defs>
</svg>
