<svg width="139" height="115" viewBox="0 0 139 115" fill="none" xmlns="http://www.w3.org/2000/svg">
<path d="M114.098 89.6555L113.224 92.8669L107.26 136.485L115.028 161.937L67.477 175.46L58.9732 147.597C58.9732 147.597 49.1586 142.324 46.1551 139.065L38.9648 131.265C33.9956 125.875 23.5279 101.567 23.5279 101.567C21.4839 96.3171 20.3495 94.4496 20.3914 91.2289L20.5393 79.9237L19.5458 72.8419C19.3039 71.1169 20.3748 69.4902 22.0697 69.0082C26.2154 67.8292 30.6612 69.7233 32.6569 73.518L33.536 75.1899C34.3467 76.7316 34.906 78.3869 35.1929 80.094L35.6918 83.0634C36.1478 85.7759 37.3343 88.3273 39.128 90.4512L44.1939 96.4497L50.1356 84.8046C52.6473 79.8824 53.8061 74.3898 53.4997 68.8639L52.6332 53.2547C52.4728 50.3669 52.0229 47.4984 51.2898 44.6909L46.0404 24.5864C45.1607 21.2167 45.6595 17.6575 47.4298 14.6748C49.3956 11.3627 53.8475 10.4473 57.0586 12.6951C58.2593 13.5358 59.1592 14.7287 59.6269 16.0993L68.3782 41.7545L75.1824 37.5801C76.582 36.7217 78.2273 36.3225 79.8825 36.4398C83.1343 36.67 85.8422 39.0261 86.4715 42.1723L87.7742 48.6837L93.4038 50.1202C96.9805 51.0332 99.6755 53.9574 100.241 57.541L101.089 62.9104L106.605 68.7189C108.219 70.4183 110.024 71.9191 111.817 73.4346C113.541 74.8913 114.67 76.9532 114.917 79.2206C115.3 82.726 115.022 86.2631 114.098 89.6555Z" fill="#FACBA6"/>
<path d="M20.3678 80.8148L20.3759 80.1979L19.3802 73.105C19.3747 73.0645 19.3798 73.025 19.3758 72.9846C20.2499 71.3981 23.9126 70.1003 26.2613 72.0673C27.7086 73.2795 29.2922 76.3774 28.4359 78.2474C27.3414 80.637 20.6994 80.8817 20.3678 80.8148Z" fill="#FBD9BE"/>
<path d="M102.094 74.3262C101.6 65.5429 101.406 62.7316 101.406 62.7316L106.924 68.5411C108.538 70.2408 110.344 71.7418 112.138 73.2576C113.537 74.4395 114.534 76.0229 114.996 77.7876C113.546 73.0376 104.884 76.4333 102.094 74.3262Z" fill="#F8BC91"/>
<path d="M91.3644 68.7067C90.9642 70.8461 88.0968 48.6043 88.0968 48.6043L93.7204 50.0401C94.4214 50.2188 95.0785 50.4888 95.6983 50.8172C91.7269 51.2545 92.1393 64.5639 91.3644 68.7067Z" fill="#F8BC91"/>
<path d="M54.5205 104.062C49.4697 101.529 44.0906 96.5517 44.0906 96.5517L50.0293 84.9096C51.3818 82.2585 52.3277 79.4386 52.8778 76.5401C52.2816 93.7307 56.9064 105.26 54.5205 104.062Z" fill="#F8BC91"/>
<path d="M75.8967 60.8328C75.8529 63.9561 68.6672 41.7681 68.6672 41.7681L75.4694 37.5949C76.8685 36.7367 78.5128 36.3377 80.1679 36.4548C76.6904 37.8489 75.9109 59.8395 75.8967 60.8328Z" fill="#F8BC91"/>
<path d="M59.3552 15.3717C59.171 14.7683 57.508 13.3383 55.6344 13.7451C53.8009 14.1432 51.903 15.4206 51.5052 17.9618C51.1358 20.3261 52.7584 24.833 53.1174 25.258C54.0946 26.4144 62.291 24.6603 61.8391 22.5935C61.1269 19.3349 59.5395 15.9751 59.3552 15.3717Z" fill="#FBD9BE"/>
</svg>
